<svg width="60" height="60" viewBox="0 0 60 60" fill="none" xmlns="http://www.w3.org/2000/svg">
<path d="M15.3546 28.669C15.3428 28.9236 15.2304 29.1631 15.042 29.3347C14.8536 29.5064 14.6047 29.5962 14.3501 29.5844C14.0955 29.5726 13.856 29.4601 13.6843 29.2718C13.5127 29.0834 13.4228 28.8345 13.4346 28.5799C13.4397 28.4532 13.4697 28.3288 13.523 28.2138C13.5763 28.0988 13.6518 27.9955 13.7452 27.9098C13.8386 27.8241 13.948 27.7577 14.0672 27.7144C14.1863 27.6712 14.3129 27.652 14.4395 27.6579C14.5661 27.6637 14.6903 27.6946 14.805 27.7487C14.9196 27.8027 15.0224 27.879 15.1075 27.973C15.1925 28.0669 15.2582 28.1768 15.3006 28.2963C15.343 28.4157 15.3614 28.5424 15.3546 28.669ZM55.055 43.5345C54.8011 44.1098 54.3398 44.5514 53.7559 44.7777L50.8721 45.8958C50.6021 46.0007 50.3149 46.0546 50.0253 46.0547C49.0831 46.0547 48.192 45.484 47.8314 44.5541L47.6268 44.0264L45.4912 44.9175C45.5821 45.5793 45.4637 46.2607 45.1362 46.8562C44.7327 47.5899 44.0676 48.1238 43.261 48.3623C43.4823 49.1356 43.4125 49.9902 42.9985 50.7426C42.3796 51.8681 41.1699 52.4668 39.9651 52.3656C39.9753 52.91 39.8424 53.4476 39.5796 53.9245C39.1729 54.6642 38.4998 55.2009 37.6843 55.4356C37.2355 55.5659 36.7634 55.5947 36.3021 55.5197C36.2925 56.0266 36.1596 56.5236 35.9148 56.9678C35.5078 57.7076 34.806 58.2633 33.9892 58.4922C33.712 58.5704 33.4253 58.6101 33.1373 58.6105C32.6027 58.6107 32.0775 58.4702 31.6144 58.2033L30.9176 57.8031C30.5114 58.3336 29.9505 58.724 29.2957 58.9224C28.9902 59.0155 28.6725 59.0629 28.3531 59.0632C27.8311 59.0632 27.3148 58.9351 26.8429 58.6828C26.1997 58.3397 25.6923 57.788 25.4041 57.1183C24.5571 57.4394 23.5846 57.4035 22.7391 56.9512C22.1647 56.6436 21.6975 56.1685 21.3994 55.5892C20.4992 56.0301 19.4092 56.0481 18.4625 55.5417C17.706 55.137 17.1516 54.4598 16.9015 53.6347C16.7754 53.2214 16.7335 52.787 16.7784 52.3572C16.2752 52.3462 15.7817 52.2169 15.3379 51.9795C14.5814 51.5749 14.027 50.8977 13.7771 50.0724C13.5269 49.2472 13.6121 48.3761 14.0166 47.6197L14.765 46.2204C14.6023 45.8127 14.5187 45.3754 14.4392 44.9476C14.3025 44.2135 14.1913 43.7239 13.9 43.6108C13.7649 43.5583 13.4503 43.4277 12.3318 42.9297L12.0714 43.5188C11.6835 44.396 10.821 44.9188 9.91855 44.9188C9.60156 44.9188 9.27988 44.8543 8.97191 44.7183L6.14277 43.4679C5.57007 43.2147 5.12957 42.7524 4.90269 42.1659C4.67582 41.5794 4.69023 40.9411 4.94336 40.3684L11.4388 25.6724C11.6919 25.0997 12.1543 24.6593 12.7408 24.4323C13.3271 24.2053 13.9654 24.2197 14.5383 24.4729L17.3675 25.7233C18.5526 26.247 19.0907 27.6375 18.5669 28.8227L18.1301 29.8108L19.8583 30.6081C19.881 30.6186 19.9034 30.6301 19.9253 30.6423C20.8942 31.1876 21.9297 30.9447 23.2405 30.6375C24.9947 30.2263 27.1499 29.7217 29.6712 31.1747C33.1561 29.0529 35.8319 30.1436 37.8098 30.9521C39.2393 31.5364 40.0886 31.8458 40.9193 31.4137L42.4246 30.6079L42.0232 29.5726C41.555 28.3643 42.1569 27.0003 43.3648 26.5319L46.2489 25.414C46.8327 25.1876 47.4712 25.2029 48.0463 25.4566C48.6216 25.7106 49.0632 26.1718 49.2894 26.7555L55.0973 41.7367C55.324 42.3208 55.3089 42.9592 55.055 43.5345ZM10.3568 42.7609L16.8522 28.0649C16.9205 27.9102 16.8858 27.7712 16.8592 27.7019C16.8324 27.6328 16.7644 27.5066 16.6098 27.4383L13.7806 26.1879C13.7216 26.1616 13.6577 26.148 13.5931 26.148C13.5187 26.148 13.4569 26.1657 13.4178 26.181C13.3486 26.2078 13.2224 26.2756 13.1541 26.4303L6.65875 41.1263C6.59031 41.281 6.625 41.4201 6.65172 41.4893C6.67843 41.5584 6.7464 41.6846 6.90109 41.7529L9.73035 43.0033C9.96566 43.1075 10.2527 42.9963 10.3568 42.7609ZM17.6663 50.2132L19.5014 47.0374C19.7764 46.3978 19.5174 45.648 18.9013 45.3192C18.246 44.9694 17.4282 45.2168 17.0784 45.871L15.6701 48.504C15.5016 48.8189 15.4667 49.1827 15.5714 49.5287C15.6763 49.8746 15.9074 50.1579 16.2223 50.3263C16.6851 50.5736 17.2497 50.5249 17.6663 50.2132ZM21.1743 53.3267L23.2121 49.3803C23.3154 48.8115 23.0372 48.2196 22.5259 47.9467C22.0592 47.6974 21.4903 47.7483 21.0729 48.0656L18.795 52.0661C18.6265 52.3811 18.5916 52.7449 18.6964 53.0908C18.8012 53.4368 19.0323 53.72 19.3472 53.8884C20.0014 54.2383 20.8207 53.9863 21.1743 53.3267ZM25.3213 54.9345L27.1236 51.471C27.2262 50.9025 26.948 50.3113 26.4371 50.0386C25.9281 49.7669 25.2866 49.8599 24.8716 50.2531L22.9159 54.0404C22.8905 54.558 23.1631 55.0516 23.6235 55.2979C24.2019 55.6072 24.9218 55.4495 25.3213 54.9345ZM29.5497 56.4771L30.8998 53.9522C31.1427 53.4979 31.1004 52.9335 30.792 52.5139C30.6747 52.3542 30.523 52.2231 30.348 52.1302C29.8389 51.8583 29.1969 51.9518 28.7818 52.3462L27.0228 55.7269C26.9805 56.2554 27.2578 56.7781 27.7274 57.0294C28.3821 57.3795 29.1995 57.1316 29.5497 56.4771ZM33.7639 54.3171C33.7175 54.2911 32.8922 53.8085 32.8922 53.8085C32.8387 54.1635 32.727 54.5116 32.5532 54.8365L31.8399 56.1703L32.5484 56.5773C32.8287 56.7382 33.1607 56.7771 33.4833 56.6867C33.8186 56.5927 34.106 56.3658 34.272 56.0641C34.611 55.4478 34.3831 54.6642 33.7639 54.3171ZM31.7578 48.0728C31.65 48.0127 31.555 47.9319 31.4785 47.835C31.4019 47.7382 31.3452 47.6272 31.3117 47.5083C31.2781 47.3895 31.2684 47.2652 31.283 47.1426C31.2976 47.02 31.3363 46.9015 31.3969 46.7939C31.4574 46.6863 31.5386 46.5917 31.6358 46.5156C31.733 46.4395 31.8443 46.3833 31.9633 46.3503C32.0823 46.3173 32.2066 46.3081 32.3291 46.3233C32.4516 46.3384 32.57 46.3777 32.6773 46.4387L39.6175 50.3438C40.2359 50.6838 41.0158 50.4573 41.3557 49.8389C41.6927 49.2265 41.4627 48.4445 40.843 48.0956C39.216 47.1843 37.3721 46.1516 35.558 45.1131C35.3446 44.9883 35.189 44.7844 35.1252 44.5456C35.0615 44.3067 35.0946 44.0524 35.2174 43.8378C35.3402 43.6233 35.5428 43.466 35.781 43.4001C36.0193 43.3341 36.2739 43.365 36.4895 43.4859C38.2967 44.5206 40.1372 45.5513 41.761 46.4608L41.7613 46.4611C42.0514 46.6233 42.391 46.6611 42.7177 46.5677C43.0524 46.472 43.3278 46.2535 43.4932 45.9527C43.6928 45.5899 43.7012 45.1637 43.5166 44.7831C43.3989 44.5407 43.2105 44.3398 42.9762 44.2069L35.306 39.8351C34.0566 39.1231 32.4563 39.7712 30.6027 40.5214C27.778 41.6648 24.2632 43.0877 21.2383 39.1952C21.0229 38.9182 20.9407 38.5756 21.0067 38.2308C21.0728 37.8852 21.2768 37.5968 21.5809 37.419C23.735 36.1618 25.553 34.7907 26.9852 33.3433C27.2998 33.0251 27.6269 32.7195 27.9658 32.4272C26.4205 31.8193 25.0756 32.1335 23.6686 32.4633C22.1764 32.8131 20.6338 33.1748 19.0407 32.2958L17.3723 31.5261L13.09 41.2148C14.086 41.6581 14.4545 41.8148 14.5787 41.863C15.6305 42.2713 15.9835 43.2115 16.1734 44.0579C17.1525 43.2239 18.5825 43.0237 19.7841 43.665C20.6855 44.146 21.2691 45.0034 21.4366 45.9467C22.1139 45.8493 22.8047 45.9704 23.4086 46.2924C24.1376 46.6803 24.6891 47.3344 24.9483 48.1185C25.7437 47.8996 26.5927 47.9948 27.3198 48.3844C28.0489 48.7722 28.6003 49.4261 28.8596 50.2101C29.6551 49.9912 30.5043 50.0866 31.2316 50.4764C31.5973 50.6709 31.9215 50.9351 32.1858 51.254L36.2021 53.5275C36.4952 53.6905 36.8375 53.7282 37.1657 53.6336C37.4983 53.5379 37.7721 53.3202 37.9369 53.0206C38.2739 52.4081 38.0439 51.6261 37.4243 51.2775M46.949 42.2776L43.1078 32.3694L41.7947 33.0722C40.1427 33.9313 38.5963 33.2993 37.1007 32.6879C35.144 31.888 33.1203 31.0606 30.2131 33.0549C29.5886 33.4816 28.9514 34.022 28.3182 34.6619C26.929 36.0657 25.2169 37.3957 23.2212 38.6219C25.2358 40.671 27.4108 39.7906 29.8993 38.7832C32.0116 37.9279 34.1958 37.0438 36.2345 38.2058L43.9049 42.5776C44.2022 42.7467 44.4705 42.9621 44.6998 43.2158L46.949 42.2776ZM53.3495 42.4148L47.5417 27.4336C47.4807 27.2758 47.3577 27.2021 47.2899 27.1722C47.2284 27.1451 47.162 27.131 47.0948 27.1308C47.0374 27.1308 46.9806 27.1415 46.9272 27.1624L44.0431 28.2804C43.803 28.3734 43.6789 28.655 43.7719 28.8952L49.5798 43.8763C49.6728 44.1163 49.954 44.2404 50.1945 44.1474L53.0784 43.0294C53.2361 42.9682 53.3098 42.8454 53.3397 42.7775C53.3694 42.7098 53.4106 42.5724 53.3495 42.4148ZM46.2009 28.6069C45.67 28.6069 45.2398 29.0372 45.2398 29.5679C45.2398 29.8228 45.3411 30.0672 45.5213 30.2475C45.7015 30.4277 45.946 30.529 46.2009 30.529C46.4557 30.529 46.7002 30.4277 46.8804 30.2475C47.0607 30.0672 47.1619 29.8228 47.1619 29.5679C47.1619 29.313 47.0607 29.0686 46.8804 28.8883C46.7002 28.7081 46.4557 28.6069 46.2009 28.6069ZM47.3928 22.5234C47.4067 22.6542 47.393 22.7864 47.3525 22.9115C47.312 23.0367 47.2457 23.1519 47.1578 23.2497C47.0699 23.3475 46.9624 23.4258 46.8423 23.4794C46.7222 23.5329 46.5922 23.5607 46.4607 23.5608H37.4884C37.5053 23.6715 37.5202 23.7828 37.5323 23.8952C37.5462 24.026 37.5325 24.1582 37.492 24.2833C37.4515 24.4085 37.3852 24.5237 37.2973 24.6215C37.2094 24.7193 37.1019 24.7976 36.9818 24.8511C36.8617 24.9047 36.7317 24.9325 36.6002 24.9326H23.3998C23.2683 24.9325 23.1382 24.9049 23.0181 24.8513C22.898 24.7977 22.7905 24.7195 22.7026 24.6217C22.6147 24.5239 22.5483 24.4086 22.5078 24.2835C22.4674 24.1584 22.4537 24.0261 22.4677 23.8953C22.4798 23.7829 22.4946 23.6715 22.5114 23.5608H13.5393C13.4077 23.5608 13.2777 23.5332 13.1575 23.4796C13.0373 23.4261 12.9298 23.3478 12.8419 23.25C12.754 23.1521 12.6876 23.0369 12.6472 22.9117C12.6067 22.7865 12.5931 22.6542 12.6072 22.5234C12.8568 20.191 14.3065 18.2624 16.3052 17.3179C15.7034 16.6501 15.3365 15.7667 15.3365 14.7991C15.3365 12.7219 17.0264 11.032 19.1036 11.032C21.1807 11.032 22.8707 12.722 22.8707 14.7991C22.8707 15.7702 22.5012 16.6567 21.8956 17.3253C22.9257 17.8153 23.8213 18.5689 24.4782 19.514C25.1828 18.7655 26.0325 18.1684 26.9755 17.7592C26.1921 16.9809 25.7062 15.9035 25.7062 14.7146C25.7062 12.347 27.6324 10.4206 30 10.4206C32.3677 10.4206 34.294 12.347 34.294 14.7146C34.294 15.9036 33.808 16.9809 33.0245 17.7593C33.9676 18.1685 34.8173 18.7656 35.5219 19.5142C36.1786 18.569 37.0743 17.8154 38.1045 17.3254C37.4989 16.6568 37.1294 15.7704 37.1294 14.7992C37.1294 12.722 38.8193 11.0321 40.8965 11.0321C42.9736 11.0321 44.6636 12.7221 44.6636 14.7992C44.6636 15.7669 44.2967 16.6501 43.6949 17.3181C45.6933 18.2622 47.1433 20.1909 47.3928 22.5234ZM40.8964 16.6913C41.9397 16.6913 42.7885 15.8426 42.7885 14.7992C42.7885 13.7559 41.9397 12.9071 40.8964 12.9071C39.853 12.9071 39.0043 13.7559 39.0043 14.7992C39.0043 15.8426 39.853 16.6913 40.8964 16.6913ZM29.9999 17.1334C31.3337 17.1334 32.4189 16.0483 32.4189 14.7145C32.4189 13.3807 31.3337 12.2955 29.9999 12.2955C28.6662 12.2955 27.581 13.3807 27.581 14.7145C27.5812 16.0483 28.6663 17.1334 29.9999 17.1334ZM19.1036 16.6913C20.1469 16.6913 20.9957 15.8426 20.9957 14.7992C20.9957 13.7559 20.1469 12.9071 19.1036 12.9071C18.0603 12.9071 17.2115 13.7559 17.2115 14.7992C17.2115 15.8426 18.0603 16.6913 19.1036 16.6913ZM23.0502 21.6856C23.1239 21.5144 23.2039 21.346 23.2901 21.1807C22.5157 19.6012 20.8841 18.5662 19.1036 18.5662C17.0798 18.5662 15.3405 19.8507 14.7032 21.6856H23.0502ZM35.4592 23.0574C34.7493 20.6891 32.5607 19.0084 29.9999 19.0084C27.439 19.0084 25.2504 20.6891 24.5406 23.0574H35.4592ZM45.2968 21.6856C44.6595 19.8507 42.9202 18.5662 40.8964 18.5662C39.1158 18.5662 37.4843 19.6012 36.7098 21.1808C36.796 21.3461 36.876 21.5145 36.9497 21.6856H45.2968ZM52.834 25.646C52.834 25.8946 52.9328 26.1331 53.1086 26.3089C53.2844 26.4847 53.5229 26.5835 53.7715 26.5835C54.0202 26.5835 54.2586 26.4847 54.4344 26.3089C54.6102 26.1331 54.709 25.8946 54.709 25.646C54.709 21.2765 53.5523 16.9818 51.3639 13.2261C51.2378 13.0132 51.0326 12.8589 50.7931 12.7967C50.5536 12.7345 50.2992 12.7695 50.0854 12.894C49.8716 13.0186 49.7157 13.2227 49.6518 13.4617C49.5878 13.7007 49.6209 13.9553 49.7439 14.1701C51.7655 17.6395 52.834 21.6078 52.834 25.646ZM6.22843 26.5835C6.47707 26.5835 6.71553 26.4847 6.89135 26.3089C7.06716 26.1331 7.16593 25.8946 7.16593 25.646C7.16593 20.6353 8.78957 15.9974 11.5366 12.2278L11.6038 14.1015C11.6082 14.2245 11.6368 14.3455 11.688 14.4575C11.7392 14.5695 11.8119 14.6703 11.902 14.7541C11.9921 14.838 12.0979 14.9033 12.2133 14.9463C12.3286 14.9893 12.4513 15.0092 12.5744 15.0048C12.6974 15.0004 12.8184 14.9718 12.9304 14.9206C13.0423 14.8694 13.1431 14.7967 13.227 14.7066C13.3109 14.6165 13.3762 14.5107 13.4192 14.3953C13.4622 14.28 13.4821 14.1573 13.4777 14.0342L13.3347 10.054C17.5042 5.60025 23.4321 2.81189 29.9999 2.81189C34.8334 2.81189 39.5467 4.35443 43.4329 7.18205L41.5443 7.2499C41.2958 7.25882 41.061 7.36608 40.8916 7.5481C40.7222 7.73011 40.6321 7.97196 40.641 8.22044C40.6499 8.46893 40.7572 8.70369 40.9392 8.87309C41.1212 9.04249 41.3631 9.13265 41.6116 9.12373L45.9941 8.96634C46.1363 8.96126 46.2754 8.92389 46.401 8.85707C46.5266 8.79025 46.6353 8.69573 46.719 8.58066C46.8026 8.4656 46.859 8.33301 46.8838 8.19294C46.9086 8.05287 46.9012 7.90899 46.8621 7.7722L45.6589 3.55498C45.5906 3.31586 45.4302 3.11364 45.2129 2.9928C44.9956 2.87196 44.7392 2.8424 44.5001 2.91062C44.2609 2.97884 44.0587 3.13926 43.9379 3.35657C43.817 3.57389 43.7875 3.83031 43.8557 4.06943L44.2539 5.46501C40.1035 2.53345 35.114 0.93689 29.9999 0.93689C22.8557 0.93689 16.4111 3.98576 11.8957 8.84939L7.90879 9.98693C7.66969 10.0552 7.46749 10.2156 7.34667 10.4329C7.22585 10.6502 7.19631 10.9066 7.26455 11.1457C7.33278 11.3848 7.49321 11.587 7.71053 11.7079C7.92784 11.8287 8.18426 11.8582 8.42336 11.79L9.83019 11.3886C6.97246 15.4194 5.29093 20.3399 5.29093 25.646C5.29093 25.8946 5.38971 26.1331 5.56552 26.3089C5.74134 26.4847 5.97979 26.5835 6.22843 26.5835Z" fill="white"/>
</svg>
