<svg width="60" height="60" viewBox="0 0 60 60" fill="none" xmlns="http://www.w3.org/2000/svg">
<g clip-path="url(#clip0_2434_156)">
<path d="M59.1458 15.7555H59.1455L59.1436 15.7535L55.2707 15.2009C55.0758 15.1732 54.8934 15.0882 54.7467 14.9568C54.6001 14.8253 54.4957 14.6534 54.4468 14.4626C54.3978 14.2718 54.4066 14.0708 54.4719 13.885C54.5373 13.6993 54.6562 13.537 54.8138 13.4188L57.9439 11.0713C58.1551 10.9128 58.2948 10.677 58.3321 10.4156C58.3694 10.1542 58.3014 9.88869 58.143 9.67745L54.5589 4.89866C54.4005 4.68742 54.1646 4.54777 53.9032 4.51043C53.6418 4.47309 53.3763 4.54111 53.1651 4.69954L50.036 7.04712C49.8785 7.16659 49.6891 7.23649 49.4918 7.24793C49.2945 7.25937 49.0982 7.21183 48.928 7.11136C48.7579 7.01089 48.6214 6.86203 48.5361 6.68376C48.4508 6.50548 48.4205 6.30585 48.449 6.11028L49.0026 2.23747C49.0211 2.10805 49.014 1.97624 48.9816 1.84957C48.9493 1.7229 48.8923 1.60384 48.8139 1.4992C48.7355 1.39456 48.6373 1.30639 48.5248 1.23971C48.4123 1.17303 48.2878 1.12916 48.1584 1.11059L48.1573 1.11047L42.2475 0.266213C42.1181 0.247628 41.9863 0.254717 41.8596 0.287074C41.7329 0.319431 41.6139 0.376424 41.5092 0.454798C41.4046 0.533171 41.3164 0.631391 41.2497 0.743849C41.183 0.856306 41.1391 0.980798 41.1205 1.11022V1.11047L40.567 4.98328C40.5392 5.17826 40.4542 5.36061 40.3228 5.50729C40.1914 5.65396 40.0194 5.75836 39.8286 5.80727C39.6379 5.85619 39.4369 5.84743 39.2511 5.7821C39.0653 5.71677 38.9031 5.59781 38.7849 5.44025L36.4383 2.31014C36.2799 2.09891 36.044 1.95926 35.7826 1.92192C35.5213 1.88458 35.2557 1.9526 35.0445 2.11103L32.0528 4.35606C30.6993 4.2122 29.3343 4.2122 27.9808 4.35606C19.1169 5.36919 12.1659 12.4381 11.3019 21.3178C11.275 21.5995 11.265 21.8793 11.2511 22.1591H10.9524C10.7232 22.1595 10.5012 22.2389 10.3238 22.384C10.1465 22.5291 10.0246 22.731 9.97872 22.9555L9.29077 26.227L6.535 24.3264C6.34332 24.1942 6.11134 24.1333 5.87942 24.1544C5.64749 24.1755 5.43031 24.2773 5.26564 24.4419L2.27889 27.4287C2.11447 27.5933 2.01289 27.8103 1.9918 28.042C1.9707 28.2737 2.03142 28.5055 2.1634 28.6971L4.05501 31.4478L0.78253 32.1358C0.560395 32.1845 0.361614 32.3077 0.219247 32.485C0.0768809 32.6623 -0.000490178 32.8831 2.33691e-06 33.1105V37.0928C-0.000100031 37.3213 0.0784061 37.5429 0.222344 37.7204C0.366281 37.8978 0.566889 38.0204 0.790495 38.0675L4.06297 38.7554L2.17137 41.5062C2.03938 41.6978 1.97866 41.9296 1.99976 42.1613C2.02086 42.393 2.12243 42.61 2.28685 42.7746L5.2736 45.7613C5.43827 45.926 5.65546 46.0277 5.88738 46.0488C6.1193 46.0699 6.35128 46.0091 6.54297 45.8768L9.29376 43.9802L9.98171 47.2527C10.0275 47.4773 10.1494 47.6791 10.3268 47.8242C10.5042 47.9693 10.7262 48.0488 10.9554 48.0492H14.9377C15.1662 48.0493 15.3878 47.9708 15.5653 47.8268C15.7428 47.6829 15.8653 47.4823 15.9124 47.2587L16.6003 43.9862L19.3511 45.8778C19.5427 46.0098 19.7745 46.0705 20.0062 46.0494C20.2379 46.0283 20.4549 45.9267 20.6195 45.7623L22.1656 44.2112V47.0486C22.1678 47.7445 22.353 48.4276 22.7024 49.0294C23.0519 49.6312 23.5535 50.1306 24.1568 50.4774V56.0089C24.1568 58.2082 25.9398 59.9912 28.1391 59.9912H32.1215C34.3208 59.9912 36.1038 58.2082 36.1038 56.0089V50.4774C36.7071 50.1306 37.2087 49.6312 37.5582 49.0294C37.9076 48.4276 38.0928 47.7445 38.095 47.0486V43.1081C38.1083 42.2922 38.326 41.4926 38.7283 40.7826C39.1306 40.0726 39.7046 39.4749 40.3977 39.0441C41.224 38.5081 42.0075 37.909 42.7413 37.2521L41.4132 35.7687C40.7568 36.357 40.0554 36.8933 39.3155 37.3726C38.3427 37.9831 37.5388 38.8283 36.9776 39.8304C36.4165 40.8326 36.116 41.9596 36.1038 43.1081V47.0486C36.1038 48.1484 35.2124 49.0398 34.1126 49.0398H26.148C25.0482 49.0398 24.1568 48.1484 24.1568 47.0486V43.0255C24.1455 41.8988 23.8501 40.7933 23.2981 39.8111C22.7461 38.8289 21.9553 38.0018 20.9988 37.4064C13.108 32.4482 10.7305 22.032 15.6888 14.1411C17.2023 11.7323 19.3004 9.74526 21.7878 8.36469C24.2753 6.98412 27.0714 6.25485 29.9163 6.24468C29.9014 6.28014 29.8884 6.31637 29.8774 6.3532C29.8405 6.6146 29.9089 6.87996 30.0676 7.09093L32.4142 10.22C32.535 10.3765 32.6054 10.5659 32.6161 10.7633C32.6268 10.9607 32.5772 11.1566 32.4739 11.3251C32.3744 11.4949 32.2265 11.6311 32.0492 11.7164C31.8718 11.8017 31.6731 11.8322 31.4783 11.804L27.6055 11.2505C27.4761 11.2319 27.3443 11.239 27.2176 11.2714C27.0909 11.3038 26.9719 11.3608 26.8672 11.4391C26.7626 11.5175 26.6744 11.6158 26.6077 11.7282C26.5411 11.8407 26.4972 11.9652 26.4786 12.0946L26.4785 12.0957L25.6333 18.0085C25.5958 18.2698 25.6637 18.5354 25.822 18.7467C25.9803 18.958 26.216 19.0978 26.4774 19.1354L26.4785 19.1355L30.3513 19.689C30.5463 19.7168 30.7287 19.8018 30.8753 19.9332C31.022 20.0646 31.1264 20.2366 31.1753 20.4274C31.2242 20.6181 31.2155 20.8191 31.1501 21.0049C31.0848 21.1907 30.9658 21.353 30.8083 21.4711L27.6792 23.8177C27.4679 23.9761 27.3283 24.212 27.291 24.4734C27.2536 24.7348 27.3216 25.0003 27.4801 25.2115L31.0642 29.9903C31.2226 30.2015 31.4584 30.3412 31.7198 30.3785C31.9812 30.4159 32.2467 30.3479 32.458 30.1894L35.5881 27.8428C35.7456 27.7251 35.9345 27.6566 36.1309 27.646C36.3273 27.6354 36.5224 27.6833 36.6916 27.7835C36.8608 27.8837 36.9966 28.0318 37.0817 28.2091C37.1669 28.3864 37.1976 28.5849 37.1701 28.7797L36.6175 32.6525C36.5989 32.7819 36.606 32.9137 36.6384 33.0404C36.6707 33.1671 36.7277 33.2862 36.8061 33.3908C36.8845 33.4955 36.9827 33.5836 37.0951 33.6503C37.2076 33.717 37.3321 33.7609 37.4615 33.7795H37.4618L43.3755 34.6247C43.4221 34.6307 43.469 34.6337 43.5159 34.6337C43.7556 34.634 43.9874 34.5477 44.1687 34.3908C44.3499 34.2339 44.4685 34.0168 44.5025 33.7795L45.0551 29.9067C45.0828 29.7117 45.1678 29.5294 45.2992 29.3827C45.4307 29.236 45.6026 29.1316 45.7934 29.0827C45.9842 29.0338 46.1852 29.0425 46.371 29.1079C46.5568 29.1732 46.719 29.2922 46.8372 29.4497L49.1847 32.5788C49.3432 32.7901 49.579 32.9297 49.8404 32.9671C50.1018 33.0044 50.3673 32.9364 50.5786 32.7779L55.3574 29.1938C55.5686 29.0354 55.7082 28.7996 55.7456 28.5382C55.7829 28.2768 55.7149 28.0113 55.5565 27.8L53.2099 24.6709C53.0896 24.5143 53.0194 24.3249 53.0088 24.1276C52.9981 23.9304 53.0474 23.7345 53.1502 23.5658C53.2475 23.394 53.395 23.2562 53.573 23.1707C53.751 23.0853 53.9508 23.0564 54.1457 23.0879L58.0186 23.6405C58.148 23.6591 58.2798 23.652 58.4065 23.6196C58.5331 23.5873 58.6522 23.5303 58.7569 23.4519C58.8615 23.3735 58.9497 23.2753 59.0164 23.1629C59.0831 23.0504 59.127 22.9259 59.1455 22.7965V22.7962L59.9898 16.8825C60.0084 16.7531 60.0013 16.6212 59.9689 16.4946C59.9366 16.3679 59.8796 16.2488 59.8012 16.1442C59.7228 16.0395 59.6246 15.9513 59.5122 15.8846C59.3997 15.8179 59.2752 15.7741 59.1458 15.7555ZM26.148 51.0309H34.1126V53.0221H26.148V51.0309ZM26.148 55.0133H34.1126V56.0089C34.1126 57.1086 33.2212 58 32.1215 58H28.1391C27.0394 58 26.148 57.1086 26.148 56.0089V55.0133ZM18.2221 37.8445C18.7657 38.2891 19.3338 38.7029 19.9236 39.084C20.8643 39.6785 21.5724 40.5778 21.9297 41.6317L19.7942 43.7632L17.7263 42.3375C16.8209 41.7135 15.581 41.9418 14.9569 42.8473C14.8073 43.0644 14.7023 43.3091 14.648 43.5671L14.1263 46.053H11.7598L11.2381 43.571C11.0116 42.4949 9.9557 41.8061 8.8796 42.0326C8.62158 42.0869 8.37692 42.1919 8.15979 42.3415L6.09097 43.7632L4.27702 41.9532L5.7017 39.8864C6.3263 38.9813 6.09881 37.7413 5.19371 37.1167C4.97643 36.9667 4.73149 36.8615 4.47315 36.8071L1.99117 36.2844V33.9189L4.47315 33.3962C5.54888 33.1681 6.23608 32.1112 6.00797 31.0353C5.95388 30.7801 5.85015 30.538 5.7027 30.3228L4.27702 28.25L6.09097 26.4401L8.16079 27.8657C9.06664 28.4891 10.3065 28.2601 10.9299 27.3543C11.0792 27.1373 11.184 26.8929 11.2381 26.6352L11.4124 25.8069C11.5719 26.954 11.8361 28.084 12.2019 29.1829C8.92602 29.5734 6.58702 32.5457 6.97754 35.8216C7.36806 39.0974 10.3404 41.4364 13.6162 41.0459C14.5873 40.93 15.5152 40.5776 16.3183 40.0194C17.1214 39.4612 17.7751 38.7143 18.2221 37.8445ZM16.676 36.4417C15.9326 38.5081 13.6548 39.5806 11.5883 38.8373C9.52187 38.0939 8.44938 35.8161 9.19271 33.7496C9.47027 32.9781 9.97955 32.3112 10.6508 31.8403C11.3221 31.3695 12.1225 31.1176 12.9424 31.1193H12.9803C13.8958 33.0934 15.1462 34.8941 16.676 36.4417ZM57.3097 21.5259L54.4225 21.1137C52.7895 20.8805 51.2767 22.0153 51.0435 23.6482C50.9315 24.4324 51.1356 25.2289 51.611 25.8626L53.3602 28.1953L50.1744 30.5847L48.4241 28.253C47.4345 26.9333 45.5624 26.6656 44.2428 27.6552C43.6091 28.1304 43.1901 28.8378 43.0779 29.6219L42.6746 32.5131L38.7331 31.9496L39.1453 29.0624C39.3791 27.4296 38.2449 25.9163 36.612 25.6826C36.2236 25.6269 35.8279 25.6484 35.4477 25.7457C35.0676 25.8431 34.7103 26.0144 34.3964 26.2499L32.0637 27.9991L29.6743 24.8133L32.006 23.0631C33.3257 22.0734 33.5934 20.2014 32.6038 18.8817C32.1286 18.248 31.4212 17.829 30.6371 17.7168L27.7499 17.3046L28.3134 13.3631L31.2006 13.7753C32.8334 14.0091 34.3467 12.8749 34.5804 11.242C34.6361 10.8535 34.6146 10.4579 34.5173 10.0777C34.4199 9.69753 34.2486 9.34027 34.0131 9.02634L32.2579 6.6917L35.4437 4.3023L37.194 6.63495C38.1836 7.95472 40.0556 8.22241 41.3753 7.2328C42.009 6.75759 42.428 6.05014 42.5402 5.26603L42.9524 2.37884L46.8939 2.94134L46.4817 5.82853C46.2485 7.46153 47.3832 8.97432 49.0162 9.20754C49.8004 9.31954 50.597 9.11545 51.2307 8.64006L53.5633 6.89082L55.9527 10.0767L53.6201 11.8269C52.3003 12.8165 52.0326 14.6886 53.0222 16.0082C53.4974 16.642 54.2049 17.061 54.989 17.1732L57.8762 17.5854L57.3097 21.5259Z" fill="white"/>
<path d="M42.81 9.47927C38.4113 9.47927 34.8454 13.0452 34.8454 17.4439C34.8454 21.8427 38.4113 25.4086 42.81 25.4086C47.2087 25.4086 50.7747 21.8427 50.7747 17.4439C50.7697 13.0472 47.2068 9.48413 42.81 9.47927ZM42.81 23.4174C39.5109 23.4174 36.8365 20.743 36.8365 17.4439C36.8365 14.1448 39.5109 11.4704 42.81 11.4704C46.1091 11.4704 48.7835 14.1448 48.7835 17.4439C48.7797 20.7414 46.1075 23.4136 42.81 23.4174ZM29.1347 44.0618H31.1259V47.0486H29.1347V44.0618ZM25.7756 34.2842C19.6298 31.8834 16.5939 24.9549 18.9948 18.809C19.9252 16.4276 21.5949 14.4075 23.7586 13.0454L22.6943 11.3609C16.1812 15.4641 14.2275 24.0703 18.3306 30.5834C19.9198 33.1059 22.2758 35.0523 25.0528 36.137C27.5109 37.0788 29.1341 39.4383 29.1347 42.0707H31.1259C31.129 38.617 29.0007 35.5196 25.7756 34.2842ZM49.0463 37.0927H56.0154V39.0839H49.0463V37.0927ZM47.4137 43.8305L48.6882 42.3006L54.6622 47.2778L53.3876 48.8075L47.4137 43.8305ZM43.0728 45.0574H45.064V52.0265H43.0728V45.0574ZM1.0166 17.2098L8.98076 15.2192L9.46337 17.1497L1.49921 19.1407L1.0166 17.2098ZM2.67039 7.04022L3.82713 5.42078L10.7956 10.3982L9.63897 12.0176L2.67039 7.04022ZM11.2007 0.501487L13.1296 0.00830078L15.1659 7.97234L13.237 8.46552L11.2007 0.501487Z" fill="white"/>
</g>
<defs>
<clipPath id="clip0_2434_156">
<rect width="60" height="60" fill="white"/>
</clipPath>
</defs>
</svg>
