<svg width="60" height="60" viewBox="0 0 60 60" fill="none" xmlns="http://www.w3.org/2000/svg">
<g clip-path="url(#clip0_2434_146)">
<path fill-rule="evenodd" clip-rule="evenodd" d="M39.375 45.8789H20.625V44.1211H39.375V45.8789ZM38.4375 49.3945H21.5625V47.6367H38.4375V49.3945ZM38.2031 52.9102H21.7969V51.1523H38.2031V52.9102ZM25.6055 55.5469V56.7188C25.6055 57.5278 26.2613 58.1836 27.0703 58.1836H32.9297C33.7387 58.1836 34.3945 57.5278 34.3945 56.7188V55.5469H36.1523V56.7188C36.1523 58.4986 34.7095 59.9414 32.9297 59.9414H27.0703C25.2905 59.9414 23.8477 58.4986 23.8477 56.7188V55.5469H25.6055Z" fill="white"/>
<path fill-rule="evenodd" clip-rule="evenodd" d="M14.2269 6.26549C18.3596 2.41532 23.9056 0.0585938 30 0.0585938C36.0944 0.0585938 41.6404 2.41532 45.7731 6.26549L44.5748 7.55163C40.7546 3.99258 35.6324 1.81641 30 1.81641C24.3676 1.81641 19.2454 3.99257 15.4252 7.55163L14.2269 6.26549ZM6.85547 23.2031C6.85547 17.1087 9.21219 11.5627 13.0624 7.43006L14.3485 8.62828C10.7895 12.4485 8.61328 17.5707 8.61328 23.2031C8.61328 26.6843 9.4444 29.9688 10.9183 32.8715L9.35091 33.6673C7.75473 30.5238 6.85547 26.9672 6.85547 23.2031ZM46.9376 7.43006C50.7878 11.5627 53.1445 17.1087 53.1445 23.2031C53.1445 26.9672 52.2453 30.5237 50.6491 33.6673L49.0817 32.8715C50.5556 29.9688 51.3867 26.6843 51.3867 23.2031C51.3867 17.5707 49.2105 12.4485 45.6515 8.62829L46.9376 7.43006ZM17.1565 42.4594C14.1426 40.4454 11.6282 37.7428 9.83805 34.5758L11.3683 33.7108C13.0226 36.6375 15.3471 39.1361 18.1331 40.9978L17.6448 41.7286L18.1331 40.9978C19.4899 41.9045 20.5864 43.1071 21.3618 44.4876L19.8292 45.3484C19.1868 44.2048 18.2792 43.2096 17.1565 42.4594ZM50.162 34.5758C48.3718 37.7428 45.8574 40.4454 42.8435 42.4594C41.7208 43.2096 40.8132 44.2048 40.1708 45.3484L38.6382 44.4876C39.4136 43.107 40.5101 41.9045 41.8669 40.9978C44.6529 39.1361 46.9774 36.6375 48.6317 33.7108L50.162 34.5758ZM39.9934 45.6813C39.4026 46.8522 39.082 48.1616 39.082 49.5129V51.2744H37.3242V49.5129C37.3242 47.8828 37.711 46.3026 38.4241 44.8894L39.9934 45.6813ZM20.918 49.5129C20.918 48.1616 20.5974 46.8522 20.0066 45.6814L21.5759 44.8895C22.289 46.3026 22.6758 47.8829 22.6758 49.5129V51.2744H20.918V49.5129ZM20.918 53.2031V51.4416H22.6758V53.2031C22.6758 53.5894 22.8241 53.939 23.0685 54.2013L21.7823 55.3995C21.2468 54.8247 20.918 54.0513 20.918 53.2031ZM39.082 51.4416V53.2031C39.082 54.0513 38.7532 54.8247 38.2177 55.3995L36.9315 54.2013C37.1759 53.939 37.3242 53.5894 37.3242 53.2031V51.4416H39.082ZM24.1406 56.4258C23.2924 56.4258 22.5191 56.097 21.9442 55.5614L23.1425 54.2753C23.4048 54.5197 23.7544 54.668 24.1406 54.668H29.7345V56.4258H24.1406ZM38.0558 55.5614C37.4809 56.097 36.7076 56.4258 35.8594 56.4258H30.2655V54.668H35.8594C36.2456 54.668 36.5952 54.5197 36.8575 54.2753L38.0558 55.5614Z" fill="white"/>
<path fill-rule="evenodd" clip-rule="evenodd" d="M53.5462 4.94433L50.135 7.80675L49.0051 6.4602L52.4163 3.59778L53.5462 4.94433ZM7.58367 3.59778L10.9949 6.4602L9.86496 7.80675L6.45375 4.94433L7.58367 3.59778ZM22.2693 10.8772C23.1356 9.12159 24.943 7.91019 27.0395 7.91019C28.1375 7.91019 29.1552 8.24527 30 8.81306C30.8448 8.24518 31.8625 7.91019 32.9605 7.91019C35.057 7.91019 36.8645 9.12156 37.7307 10.8772C39.6952 11.0439 41.2407 12.6878 41.2407 14.6953C41.2407 14.734 41.24 14.7722 41.2387 14.8101C43.3835 15.4922 44.9414 17.4916 44.9414 19.8633C44.9414 21.3973 44.2876 22.7739 43.2492 23.7399C43.8407 24.5023 44.2012 25.4578 44.2012 26.5078C44.2012 27.9783 43.5006 29.269 42.4307 30.0984C42.6151 30.5857 42.7211 31.1157 42.7211 31.6758C42.7211 33.9289 41.0876 35.7754 38.9536 36.1573C37.9099 37.9716 35.9522 39.1993 33.7007 39.1993C32.3064 39.1993 31.0228 38.7276 30 37.9383C28.9772 38.7276 27.6936 39.1993 26.2993 39.1993C24.0478 39.1993 22.0901 37.9716 21.0464 36.1573C18.9124 35.7754 17.2789 33.9289 17.2789 31.6758C17.2789 31.1157 17.385 30.5856 17.5694 30.0985C16.4995 29.269 15.7987 27.9783 15.7987 26.5078C15.7987 25.4577 16.1593 24.5024 16.7508 23.74C15.7125 22.7739 15.0586 21.3973 15.0586 19.8633C15.0586 17.4916 16.6165 15.4921 18.7613 14.81C18.76 14.7722 18.7593 14.734 18.7593 14.6953C18.7593 12.6878 20.3047 11.0439 22.2693 10.8772ZM30.8789 36.3871C31.6351 37.0441 32.6205 37.4414 33.7007 37.4414C35.422 37.4414 36.9051 36.4304 37.593 34.9682L37.8133 34.5L38.3296 34.4654C39.806 34.3666 40.9632 33.1561 40.9632 31.6758C40.9632 31.1559 40.8111 30.6675 40.5492 30.2344L40.0612 29.4273L40.9006 28.9974C41.8211 28.5258 42.4434 27.5891 42.4434 26.5078C42.4434 25.6316 42.0307 24.8515 41.3789 24.3284L40.4014 23.544L41.4719 22.8922C42.501 22.2657 43.1836 21.1437 43.1836 19.8633C43.1836 18.0754 41.8538 16.5947 40.1204 16.3522L39.1265 16.2132L39.3954 15.2463C39.4527 15.0404 39.4829 14.8635 39.4829 14.6953C39.4829 13.5548 38.5578 12.6259 37.4102 12.6211C37.4066 12.6215 37.4001 12.6223 37.3898 12.6236C37.3822 12.6246 37.3743 12.6257 37.3636 12.6271C37.3536 12.6285 37.3408 12.6302 37.3276 12.6319C37.301 12.6354 37.2658 12.6397 37.2262 12.643L36.5466 12.7003L36.3224 12.0561C35.8383 10.6656 34.5167 9.66801 32.9605 9.66801C32.1831 9.66801 31.4658 9.91821 30.8789 10.3428V36.3871ZM29.1211 10.3428C28.5342 9.91826 27.8168 9.66801 27.0395 9.66801C25.4834 9.66801 24.1618 10.6655 23.6776 12.0562L23.4534 12.7003L22.7738 12.643C22.7342 12.6397 22.699 12.6354 22.6724 12.6319C22.6592 12.6302 22.6464 12.6285 22.6364 12.6271C22.6257 12.6257 22.6178 12.6246 22.6102 12.6236C22.5999 12.6223 22.5934 12.6215 22.5898 12.6211C21.4421 12.6259 20.5171 13.5547 20.5171 14.6953C20.5171 14.8635 20.5473 15.0404 20.6046 15.2463L20.8735 16.2132L19.8795 16.3522C18.1462 16.5946 16.8164 18.0752 16.8164 19.8633C16.8164 21.1437 17.499 22.2657 18.5281 22.8922L19.5985 23.544L18.6212 24.3284C17.9693 24.8516 17.5566 25.6317 17.5566 26.5078C17.5566 27.5891 18.1789 28.5258 19.0994 28.9974L19.9386 29.4273L19.4508 30.2343C19.189 30.6675 19.0368 31.156 19.0368 31.6758C19.0368 33.1561 20.194 34.3666 21.6704 34.4654L22.1867 34.5L22.407 34.9682C23.0949 36.4304 24.578 37.4414 26.2993 37.4414C27.3795 37.4414 28.3649 37.0441 29.1211 36.3871V10.3428ZM2.10987 12.4682L6.2944 13.9913L5.69318 15.6431L1.50865 14.12L2.10987 12.4682ZM58.4914 14.12L54.3068 15.6431L53.7056 13.9913L57.8901 12.4682L58.4914 14.12ZM4.45312 24.4336H0V22.6758H4.45312V24.4336ZM60 24.4336H55.5469V22.6758H60V24.4336ZM6.2944 33.1181L2.10987 34.6412L1.50865 32.9894L5.69318 31.4663L6.2944 33.1181ZM54.3068 31.4663L58.4914 32.9894L57.8901 34.6412L53.7056 33.1181L54.3068 31.4663ZM10.9949 40.6493L7.58367 43.5117L6.45375 42.1651L9.86496 39.3027L10.9949 40.6493ZM50.135 39.3027L53.5462 42.1651L52.4163 43.5117L49.0051 40.6493L50.135 39.3027Z" fill="white"/>
<path fill-rule="evenodd" clip-rule="evenodd" d="M19.8926 16.3503C19.8931 16.3502 19.8936 16.3502 19.7578 15.4818C19.6221 14.6135 19.6225 14.6134 19.623 14.6133L19.6241 14.6131L19.6263 14.6128L19.6315 14.612C19.6352 14.6115 19.6395 14.6109 19.6444 14.6102C19.6542 14.6088 19.6663 14.6073 19.6807 14.6055C19.7094 14.6021 19.747 14.5982 19.7928 14.5947C19.8841 14.5876 20.0088 14.5819 20.1598 14.5845C20.4606 14.5899 20.874 14.6288 21.3407 14.762C22.2929 15.0336 23.4288 15.6889 24.2592 17.1421L22.733 18.0142C22.1571 17.0065 21.4239 16.6136 20.8585 16.4523C20.5665 16.369 20.3089 16.3453 20.1286 16.3421C20.039 16.3405 19.9704 16.344 19.9288 16.3472C19.908 16.3488 19.8942 16.3504 19.888 16.3511C19.8849 16.3515 19.8838 16.3516 19.8847 16.3515L19.8876 16.3511L19.8902 16.3507L19.8918 16.3505L19.8926 16.3503ZM40.377 14.6133C40.3775 14.6134 40.3779 14.6135 40.2422 15.4818C40.1064 16.3502 40.1069 16.3502 40.1074 16.3503L40.1082 16.3505L40.1098 16.3507L40.1125 16.3511L40.1153 16.3515C40.1162 16.3516 40.1151 16.3515 40.112 16.3511C40.1058 16.3504 40.092 16.3488 40.0712 16.3472C40.0296 16.344 39.961 16.3405 39.8714 16.3421C39.6911 16.3453 39.4335 16.369 39.1415 16.4523C38.5761 16.6136 37.8429 17.0065 37.267 18.0142L35.7408 17.1421C36.5712 15.6889 37.7071 15.0336 38.6593 14.762C39.1261 14.6288 39.5394 14.5899 39.8402 14.5845C39.9912 14.5819 40.1159 14.5876 40.2072 14.5947C40.253 14.5982 40.2906 14.6021 40.3193 14.6055C40.3337 14.6073 40.3458 14.6088 40.3556 14.6102C40.3605 14.6109 40.3648 14.6115 40.3685 14.612L40.3737 14.6128L40.3759 14.6131L40.377 14.6133ZM49.6289 20.8594V22.6172H47.8711V20.8594H49.6289ZM18.5654 24.3697C18.5658 24.3694 18.5663 24.3691 18.071 23.643C17.5758 22.9169 17.5762 22.9166 17.5767 22.9163L17.5777 22.9156L17.5799 22.9141L17.5852 22.9105C17.5891 22.9079 17.5938 22.9048 17.5992 22.9013C17.6101 22.8942 17.6239 22.8853 17.6407 22.8749C17.6741 22.8541 17.7193 22.8271 17.7752 22.796C17.8866 22.734 18.0429 22.6546 18.2361 22.5761C18.6187 22.4205 19.1697 22.2586 19.8167 22.2585C20.4741 22.2585 21.2141 22.4263 21.9459 22.909C22.6717 23.3879 23.3439 24.1461 23.9238 25.2576L22.3653 26.0707C21.8905 25.1606 21.4011 24.6555 20.9779 24.3763C20.5606 24.1011 20.1641 24.0163 19.8168 24.0163C19.4591 24.0164 19.1372 24.1072 18.8981 24.2044C18.7805 24.2523 18.6887 24.2993 18.6298 24.332C18.6006 24.3483 18.58 24.3608 18.569 24.3676C18.5635 24.371 18.5604 24.373 18.5599 24.3733L18.56 24.3733C18.5602 24.3732 18.5606 24.3729 18.5611 24.3725L18.5632 24.3712L18.5646 24.3702L18.5654 24.3697ZM42.4233 22.9163C42.4238 22.9166 42.4242 22.9169 41.929 23.643C41.4337 24.3691 41.4342 24.3694 41.4346 24.3697L41.4354 24.3702L41.4368 24.3712L41.4389 24.3725C41.4399 24.3733 41.4403 24.3735 41.4401 24.3733C41.4396 24.373 41.4365 24.371 41.431 24.3676C41.42 24.3608 41.3994 24.3483 41.3702 24.332C41.3113 24.2993 41.2195 24.2523 41.1019 24.2044C40.8628 24.1072 40.5409 24.0164 40.1832 24.0163C39.8359 24.0163 39.4394 24.1011 39.0221 24.3763C38.5989 24.6555 38.1095 25.1606 37.6347 26.0707L36.0762 25.2576C36.6561 24.1461 37.3283 23.3879 38.0541 22.909C38.7859 22.4263 39.5259 22.2585 40.1833 22.2585C40.8303 22.2586 41.3813 22.4205 41.7639 22.5761C41.9571 22.6546 42.1134 22.734 42.2248 22.796C42.2807 22.8271 42.3259 22.8541 42.3593 22.8749C42.3761 22.8853 42.3899 22.8942 42.4008 22.9013C42.4041 22.9035 42.4072 22.9055 42.41 22.9073C42.4117 22.9085 42.4133 22.9095 42.4148 22.9105L42.4201 22.9141L42.4223 22.9156L42.4233 22.9163ZM49.6289 24.4922V26.2501H47.8711V24.4922H49.6289ZM21.5686 36.2202C21.5681 36.2202 21.5676 36.2202 21.6117 35.3424C21.6559 34.4646 21.6554 34.4646 21.6549 34.4646L21.6541 34.4645L21.6526 34.4644L21.6505 34.4644C21.6494 34.4643 21.6491 34.4643 21.6495 34.4643C21.6502 34.4643 21.6538 34.4644 21.66 34.4645C21.6723 34.4647 21.6949 34.4647 21.726 34.4638C21.7887 34.4619 21.8838 34.4561 21.9992 34.4401C22.2354 34.4072 22.5265 34.3354 22.7958 34.1902C23.0565 34.0495 23.2936 33.8428 23.4583 33.5227C23.6246 33.1994 23.7514 32.6935 23.6758 31.8998L25.4257 31.7331C25.5259 32.7851 25.3733 33.6428 25.0214 34.3268C24.668 35.0138 24.1484 35.4578 23.6304 35.7372C23.121 36.012 22.6114 36.1296 22.2415 36.1811C22.0539 36.2072 21.8947 36.2173 21.7788 36.2208C21.7207 36.2226 21.6729 36.2227 21.6372 36.2222C21.6194 36.222 21.6045 36.2216 21.5928 36.2212C21.587 36.221 21.5819 36.2208 21.5777 36.2207L21.572 36.2204L21.5696 36.2203L21.5686 36.2202ZM38.3451 34.4646C38.3446 34.4646 38.3441 34.4646 38.3883 35.3424C38.4324 36.2202 38.4319 36.2202 38.4314 36.2202L38.4304 36.2203L38.428 36.2204L38.4223 36.2207C38.4181 36.2208 38.413 36.221 38.4072 36.2212C38.3955 36.2216 38.3806 36.222 38.3628 36.2222C38.3271 36.2227 38.2793 36.2226 38.2212 36.2208C38.1053 36.2173 37.9461 36.2072 37.7585 36.1811C37.3886 36.1296 36.879 36.012 36.3696 35.7372C35.8517 35.4578 35.332 35.0138 34.9786 34.3268C34.6267 33.6428 34.4741 32.7851 34.5743 31.7331L36.3242 31.8998C36.2486 32.6935 36.3754 33.1994 36.5417 33.5227C36.7064 33.8428 36.9435 34.0495 37.2042 34.1902C37.4735 34.3354 37.7646 34.4072 38.0008 34.4401C38.1162 34.4561 38.2113 34.4619 38.274 34.4638C38.3051 34.4647 38.3277 34.4647 38.34 34.4645C38.3462 34.4644 38.3498 34.4643 38.3505 34.4643C38.3509 34.4643 38.3506 34.4643 38.3495 34.4644L38.3474 34.4644L38.3459 34.4645L38.3451 34.4646Z" fill="white"/>
</g>
<defs>
<clipPath id="clip0_2434_146">
<rect width="60" height="60" fill="white"/>
</clipPath>
</defs>
</svg>
