<svg width="60" height="60" viewBox="0 0 60 60" fill="none" xmlns="http://www.w3.org/2000/svg">
<path d="M11.288 40.5907C11.288 40.3731 11.3744 40.1645 11.5282 40.0106C11.6821 39.8568 11.8907 39.7703 12.1083 39.7703H31.9404C32.158 39.7703 32.3666 39.8568 32.5204 40.0106C32.6743 40.1645 32.7607 40.3731 32.7607 40.5907C32.7607 40.8082 32.6743 41.0169 32.5204 41.1707C32.3666 41.3245 32.158 41.411 31.9404 41.411H12.1083C11.8907 41.411 11.6821 41.3245 11.5282 41.1707C11.3744 41.0169 11.288 40.8082 11.288 40.5907ZM12.1083 35.3294H26.5962C26.8137 35.3294 27.0224 35.243 27.1762 35.0891C27.3301 34.9353 27.4165 34.7267 27.4165 34.5091C27.4165 34.2915 27.3301 34.0829 27.1762 33.9291C27.0224 33.7752 26.8137 33.6888 26.5962 33.6888H12.1083C11.8907 33.6888 11.6821 33.7752 11.5282 33.9291C11.3744 34.0829 11.288 34.2915 11.288 34.5091C11.288 34.7267 11.3744 34.9353 11.5282 35.0891C11.6821 35.243 11.8907 35.3294 12.1083 35.3294ZM45.685 47.3115V57.0451C45.685 58.093 44.8325 58.9454 43.7846 58.9454H30.7103C29.6624 58.9454 28.81 58.093 28.81 57.0451V51.1013C26.6333 51.607 24.356 51.8636 22.0243 51.8636C21.0578 51.8636 20.0863 51.8184 19.1319 51.7291L9.00012 58.798C8.86411 58.893 8.70249 58.9444 8.53661 58.9456C8.37072 58.9468 8.20839 58.8976 8.07105 58.8045C7.9337 58.7116 7.82774 58.5792 7.76716 58.4248C7.70657 58.2704 7.6942 58.1012 7.73168 57.9397L9.7657 49.1773C4.29727 46.4947 1.05469 42.1857 1.05469 37.5499C1.05469 34.3706 2.53594 31.3654 5.33824 28.8594C8.01926 26.4618 11.6675 24.7317 15.8888 23.8561C16.1014 23.8127 16.3226 23.8554 16.5039 23.9748C16.6852 24.0943 16.8117 24.2807 16.8558 24.4932C16.8999 24.7057 16.8579 24.9271 16.7392 25.1088C16.6204 25.2904 16.4344 25.4176 16.222 25.4625C12.3396 26.2678 8.86266 27.9085 6.43195 30.0822C3.98742 32.2684 2.69531 34.8506 2.69531 37.5499C2.69531 41.694 5.82012 45.59 11.0542 47.9716C11.2266 48.05 11.3666 48.1857 11.4503 48.3556C11.534 48.5255 11.5563 48.7192 11.5134 48.9037L9.8127 56.2304L18.4417 50.21C18.6033 50.0974 18.7999 50.0466 18.9959 50.0668C20.002 50.1708 21.0128 50.2229 22.0243 50.2228C24.3643 50.2228 26.6435 49.9502 28.81 49.4137V47.3114C28.81 46.2635 29.6624 45.411 30.7103 45.411H37.1584C39.8658 43.1746 41.3534 40.3924 41.3534 37.5498C41.3534 34.5125 39.6704 31.568 36.6145 29.2589C36.5274 29.1944 36.4539 29.1132 36.3983 29.0202C36.3427 28.9271 36.3061 28.8239 36.2906 28.7166C36.2751 28.6093 36.281 28.5 36.3081 28.395C36.3351 28.29 36.3826 28.1914 36.448 28.1049C36.5134 28.0184 36.5952 27.9457 36.6889 27.891C36.7825 27.8364 36.886 27.8008 36.9935 27.7864C37.1009 27.772 37.2102 27.779 37.3149 27.8071C37.4196 27.8352 37.5178 27.8838 37.6036 27.95C41.0796 30.5766 42.994 33.9859 42.994 37.5498C42.994 40.3616 41.7911 43.0939 39.5685 45.411H43.7845C44.8324 45.411 45.685 46.2636 45.685 47.3115ZM44.0443 47.3115C44.0443 47.1707 43.9254 47.0518 43.7846 47.0518H30.7103C30.5695 47.0518 30.4506 47.1707 30.4506 47.3115V57.0451C30.4506 57.1858 30.5695 57.3048 30.7103 57.3048H43.7846C43.9254 57.3048 44.0443 57.1858 44.0443 57.0451V47.3115ZM40.4082 52.1782C40.4082 52.3222 40.3703 52.4636 40.2984 52.5883C40.2264 52.713 40.1228 52.8166 39.9981 52.8885L35.3171 55.591C35.1924 55.663 35.051 55.7009 34.907 55.7009C34.763 55.7009 34.6215 55.663 34.4968 55.591C34.3721 55.519 34.2686 55.4155 34.1966 55.2908C34.1246 55.1661 34.0867 55.0246 34.0867 54.8806V49.4756C34.0866 49.3316 34.1245 49.1901 34.1965 49.0654C34.2685 48.9407 34.3721 48.8371 34.4968 48.7651C34.6215 48.6931 34.763 48.6552 34.907 48.6552C35.051 48.6552 35.1925 48.6932 35.3171 48.7652L39.9981 51.4678C40.1228 51.5398 40.2263 51.6433 40.2983 51.768C40.3703 51.8927 40.4082 52.0342 40.4082 52.1782ZM37.9473 52.1782L35.7273 50.8965V53.4598L37.9473 52.1782ZM53.5916 9.62843C53.7354 9.62846 53.8766 9.5905 54.0011 9.51839L57.1692 7.68933C57.2633 7.63586 57.3458 7.56432 57.4121 7.47882C57.4784 7.39332 57.5271 7.29555 57.5554 7.19115C57.5838 7.08675 57.5912 6.97777 57.5772 6.87049C57.5633 6.76321 57.5283 6.65974 57.4742 6.56605C57.4201 6.47237 57.348 6.3903 57.2621 6.32459C57.1761 6.25887 57.078 6.21081 56.9734 6.18316C56.8689 6.15551 56.7598 6.14881 56.6526 6.16347C56.5455 6.17813 56.4422 6.21384 56.3489 6.26855L53.1807 8.09761C53.0243 8.18791 52.902 8.32734 52.8328 8.49427C52.7637 8.66119 52.7516 8.84627 52.7985 9.02076C52.8453 9.19526 52.9484 9.34941 53.0918 9.45929C53.2353 9.56917 53.4109 9.62863 53.5916 9.62843ZM48.311 5.92742C48.4043 5.98136 48.5073 6.01638 48.6141 6.03048C48.7209 6.04458 48.8295 6.03749 48.9335 6.0096C49.0376 5.98172 49.1352 5.93359 49.2206 5.86797C49.3061 5.80235 49.3778 5.72053 49.4316 5.62718L51.3611 2.28523C51.4158 2.1919 51.4515 2.08867 51.4661 1.98149C51.4808 1.8743 51.4741 1.76528 51.4464 1.66069C51.4188 1.5561 51.3707 1.45801 51.305 1.37207C51.2393 1.28614 51.1572 1.21405 51.0635 1.15996C50.9699 1.10586 50.8664 1.07084 50.7591 1.05689C50.6518 1.04295 50.5429 1.05036 50.4385 1.07871C50.334 1.10705 50.2363 1.15577 50.1508 1.22205C50.0653 1.28833 49.9937 1.37087 49.9403 1.46492L48.0108 4.80687C47.902 4.99528 47.8725 5.21918 47.9288 5.42932C47.9851 5.63946 48.1226 5.81863 48.311 5.92742ZM53.4457 14.8208C53.4457 15.0383 53.5321 15.247 53.686 15.4008C53.8398 15.5547 54.0485 15.6411 54.266 15.6411H58.125C58.3426 15.6411 58.5512 15.5547 58.705 15.4008C58.8589 15.247 58.9453 15.0383 58.9453 14.8208C58.9453 14.6032 58.8589 14.3946 58.705 14.2407C58.5512 14.0869 58.3426 14.0005 58.125 14.0005H54.266C54.0485 14.0005 53.8398 14.0869 53.686 14.2407C53.5321 14.3946 53.4457 14.6032 53.4457 14.8208ZM18.692 23.8234C19.1282 22.1953 20.1673 20.8375 21.618 20L25.9088 17.5228C26.002 17.4689 26.105 17.4339 26.2118 17.4198C26.3186 17.4057 26.4272 17.4128 26.5312 17.4407C26.6133 17.4629 26.6915 17.4977 26.7629 17.5439C31.1725 14.2437 34.6494 10.4232 36.6413 6.68375L36.5658 6.55308C35.6363 4.94316 36.1898 2.87714 37.7998 1.9475C39.4099 1.01808 41.4758 1.57168 42.4054 3.18148L45.7527 8.97921C47.5307 8.05941 49.743 8.69421 50.7541 10.4457C51.7652 12.1971 51.2088 14.4301 49.5234 15.5103L52.8708 21.308C53.3197 22.0856 53.4382 22.9938 53.2046 23.8657C52.971 24.7374 52.4142 25.4648 51.6367 25.9137C51.1278 26.2089 50.55 26.3645 49.9617 26.3647C49.6676 26.3647 49.3713 26.3259 49.0792 26.2476C48.2074 26.0141 47.48 25.4572 47.0312 24.6798L46.9557 24.5491C42.7586 24.4054 37.7617 25.486 32.7431 27.6175L38.666 35.59C39.2571 36.3857 39.1534 37.4844 38.4247 38.1455L37.1217 39.328C36.9244 39.5067 36.6919 39.6423 36.4392 39.7262C36.1865 39.8101 35.9191 39.8404 35.6541 39.8152C35.3927 39.7899 35.1395 39.7104 34.9106 39.5818C34.6817 39.4531 34.4821 39.2781 34.3247 39.0679L28.1283 30.7764L27.9121 30.9012C26.9479 31.4579 25.8755 31.7423 24.7867 31.7423C24.2299 31.7418 23.6755 31.6683 23.1379 31.5236C21.5098 31.0875 20.152 30.0482 19.3145 28.5976C18.4768 27.1468 18.2558 25.4513 18.692 23.8234ZM37.3489 36.5683L31.5698 28.7893L29.559 29.9503L35.6389 38.0859C35.6592 38.1134 35.6851 38.1362 35.7149 38.1528C35.7447 38.1694 35.7777 38.1794 35.8117 38.1822C35.8561 38.1864 35.9418 38.1832 36.0192 38.1129L37.3221 36.9305C37.4245 36.8376 37.4359 36.6853 37.3489 36.5683ZM46.5752 10.404L48.7009 14.0857C49.6032 13.4602 49.892 12.2336 49.3334 11.266C48.7747 10.2985 47.568 9.93523 46.5752 10.404ZM37.9866 5.73277L48.4519 23.8593C48.6817 24.2573 49.0552 24.5427 49.5037 24.6628C49.9522 24.7828 50.4183 24.7227 50.8164 24.4928C51.2143 24.2632 51.4997 23.8896 51.6199 23.4411C51.74 22.9926 51.6797 22.5264 51.45 22.1285L40.9846 4.00191C40.6644 3.44726 40.0813 3.13683 39.4827 3.13683C39.1893 3.13683 38.8921 3.21136 38.6202 3.36839C38.2222 3.59808 37.9369 3.97168 37.8168 4.42015C37.6966 4.86863 37.7569 5.3348 37.9866 5.73277ZM27.6626 18.9198L31.8696 26.2067C36.7898 24.087 41.7255 22.9345 46.0022 22.8976L37.5947 8.33503C35.4245 12.0202 31.9584 15.7186 27.6626 18.9198ZM20.7352 27.7771C21.3536 28.8484 22.3576 29.6161 23.5623 29.9388C24.7669 30.2616 26.0203 30.0987 27.0915 29.4803L30.6718 27.4133L26.0186 19.3536L22.4382 21.4207C21.367 22.0391 20.5995 23.0431 20.2766 24.2478C19.9537 25.4525 20.1168 26.7061 20.7352 27.7771ZM5.55504 10.5377C5.55504 7.79035 7.79016 5.55511 10.5376 5.55511C13.2851 5.55511 15.5202 7.79023 15.5202 10.5377C15.5202 13.285 13.2851 15.5202 10.5376 15.5202C7.79016 15.5202 5.55504 13.285 5.55504 10.5377ZM7.19566 10.5377C7.19566 12.3805 8.69484 13.8795 10.5376 13.8795C12.3804 13.8795 13.8796 12.3805 13.8796 10.5377C13.8796 8.69492 12.3804 7.19574 10.5376 7.19574C8.69484 7.19574 7.19566 8.69492 7.19566 10.5377ZM1.05469 11.4039V9.67144C1.05469 8.90527 1.67789 8.28207 2.44395 8.28207C3.12246 8.28207 3.39012 7.76339 3.45586 7.60437C3.52172 7.44535 3.69937 6.88929 3.21949 6.40953C3.09005 6.28084 2.98743 6.12774 2.91757 5.95911C2.84771 5.79048 2.81199 5.60967 2.8125 5.42714C2.8125 5.05601 2.95699 4.70703 3.21949 4.44464L4.44445 3.21957C4.98609 2.67781 5.86758 2.67781 6.40934 3.21957C6.88922 3.69945 7.44527 3.52179 7.60418 3.45593C7.7632 3.39007 8.28187 3.12253 8.28187 2.44402C8.28187 1.67785 8.90508 1.05464 9.67113 1.05464H11.4036C12.1697 1.05464 12.7929 1.67785 12.7929 2.44402C12.7929 3.12253 13.3116 3.39007 13.4706 3.45593C13.6295 3.52179 14.1858 3.69921 14.6654 3.21957C15.2072 2.67781 16.0886 2.67781 16.6303 3.21957L17.8554 4.44464C18.1178 4.70703 18.2623 5.05589 18.2623 5.42703C18.2623 5.79816 18.1178 6.14714 17.8553 6.40953C17.3755 6.88929 17.5532 7.44535 17.619 7.60437C17.6849 7.76328 17.9524 8.28207 18.6309 8.28207C19.397 8.28207 20.0202 8.90527 20.0202 9.67144V11.4039C20.0202 12.17 19.397 12.7932 18.6309 12.7932C17.9524 12.7932 17.6848 13.3119 17.619 13.4709C17.5532 13.6298 17.3755 14.186 17.8554 14.6657C18.3971 15.2075 18.3971 16.089 17.8554 16.6306L16.6303 17.8557C16.368 18.1181 16.0191 18.2627 15.6479 18.2627C15.2768 18.2627 14.9278 18.1182 14.6654 17.8557C14.1857 17.3761 13.6297 17.5535 13.4706 17.6194C13.3117 17.6853 12.7929 17.9528 12.7929 18.6315C12.7929 19.3975 12.1697 20.0207 11.4036 20.0207H9.67137C8.90531 20.0207 8.28211 19.3975 8.28211 18.6315C8.28211 17.9514 7.76379 17.6839 7.605 17.6182C7.44598 17.5523 6.89039 17.3749 6.40957 17.8558C6.1473 18.1182 5.79832 18.2628 5.42719 18.2628C5.05605 18.2628 4.70695 18.1183 4.44469 17.8558L3.21973 16.6309C3.09028 16.5021 2.98766 16.349 2.9178 16.1804C2.84794 16.0117 2.81223 15.8309 2.81273 15.6484C2.81273 15.2772 2.95723 14.9282 3.21973 14.6659C3.69949 14.1861 3.52184 13.63 3.45598 13.4711C3.39012 13.3121 3.12258 12.7934 2.44406 12.7934C1.67789 12.7932 1.05469 12.17 1.05469 11.4039ZM2.69531 11.1635C3.71379 11.2522 4.5723 11.8787 4.97168 12.8431C5.37117 13.8076 5.20711 14.8577 4.54957 15.6406L5.43469 16.5257C6.2182 15.8675 7.26855 15.7031 8.23266 16.1023C9.19687 16.5017 9.82312 17.3607 9.91172 18.3802H11.1633C11.252 17.3618 11.8785 16.5032 12.8429 16.1037C13.8073 15.7045 14.8574 15.8683 15.6404 16.5257L16.5255 15.6406C15.868 14.8577 15.7041 13.8076 16.1034 12.8431C16.5029 11.8788 17.3613 11.2522 18.3798 11.1635V9.91191C17.3613 9.8232 16.5028 9.19671 16.1034 8.23226C15.7041 7.26781 15.868 6.21781 16.5254 5.43476L15.6403 4.54964C14.8571 5.20707 13.8071 5.37101 12.8428 4.97164C11.8785 4.57214 11.252 3.71375 11.1633 2.69527H9.91172C9.82301 3.71375 9.19652 4.57226 8.23219 4.97164C7.26773 5.37113 6.21762 5.20707 5.43469 4.54953L4.54957 5.43464C5.20699 6.21781 5.37105 7.26781 4.97156 8.23214C4.5723 9.19671 3.71379 9.8232 2.69531 9.91191V11.1635ZM58.8809 32.9732C58.5913 35.4023 57.4233 37.7131 56.7527 38.8743C56.0822 40.0355 54.6652 42.2025 52.7064 43.6678C51.4364 44.6178 50.1575 45.0957 48.9184 45.0957C48.0531 45.0957 47.207 44.8627 46.3966 44.3948L46.102 44.2246C45.6166 43.9445 45.2694 43.4913 45.1239 42.9484C44.9784 42.4055 45.0526 41.8394 45.3328 41.3541L46.5107 39.314C47.0899 38.3105 48.3777 37.9655 49.3812 38.5448L50.0721 38.9437C50.2679 39.0569 50.4997 39.0186 50.649 38.8485C51.2932 38.114 51.8865 37.2796 52.4126 36.3685C52.9386 35.4574 53.3646 34.5262 53.6786 33.6012C53.7512 33.387 53.6685 33.1671 53.4727 33.054L52.7817 32.6552C52.2963 32.375 51.9491 31.9217 51.8036 31.3789C51.6581 30.8361 51.7323 30.2698 52.0125 29.7846L53.1903 27.7444C53.7695 26.7411 55.0573 26.3961 56.0609 26.9752L56.3556 27.1454C58.3266 28.2833 59.1997 30.2984 58.8809 32.9732ZM55.5353 28.5662L55.2407 28.396C55.1348 28.3351 55.0091 28.3186 54.8911 28.3502C54.7731 28.3818 54.6725 28.4589 54.6112 28.5646L53.4334 30.6048C53.4032 30.6571 53.3836 30.715 53.3759 30.7749C53.3682 30.8349 53.3724 30.8958 53.3884 30.9541C53.4037 31.0126 53.4305 31.0675 53.4672 31.1156C53.5039 31.1636 53.5498 31.204 53.6021 31.2342L54.2931 31.633C55.1723 32.1407 55.5586 33.1668 55.2322 34.1284C54.8838 35.1549 54.4132 36.1845 53.8335 37.1887C53.2539 38.1926 52.5974 39.115 51.8825 39.9303C51.2129 40.6939 50.1313 40.8723 49.2519 40.3646L48.561 39.9658C48.4551 39.9048 48.3294 39.8884 48.2113 39.92C48.0933 39.9516 47.9927 40.0287 47.9314 40.1344L46.7536 42.1746C46.7234 42.2269 46.7038 42.2848 46.6961 42.3447C46.6884 42.4047 46.6926 42.4656 46.7086 42.5239C46.7239 42.5824 46.7507 42.6373 46.7874 42.6854C46.8241 42.7334 46.87 42.7738 46.9223 42.804L47.217 42.9741C48.6139 43.7806 50.088 43.5778 51.7236 42.3541C53.5121 41.0162 54.8428 38.9013 55.3321 38.054C55.8212 37.2069 56.9875 34.9968 57.2518 32.7791C57.4936 30.7507 56.9321 29.3727 55.5353 28.5662Z" fill="white"/>
</svg>
