<svg width="44" height="44" viewBox="0 0 44 44" fill="none" xmlns="http://www.w3.org/2000/svg">
<path d="M39.3156 40.3529H37.4383V21.8553C37.4383 21.6957 37.3749 21.5427 37.2621 21.4299C37.1493 21.3171 36.9963 21.2537 36.8367 21.2537H32.0244C31.8648 21.2537 31.7118 21.3171 31.599 21.4299C31.4862 21.5427 31.4228 21.6957 31.4228 21.8553V40.3529H29.4023V25.5461C29.4023 25.3866 29.3389 25.2336 29.2261 25.1208C29.1133 25.0079 28.9602 24.9446 28.8007 24.9446H23.9883C23.8287 24.9446 23.6757 25.0079 23.5629 25.1208C23.4501 25.2336 23.3867 25.3866 23.3867 25.5461V40.3529H21.3662V29.2369C21.3662 29.0773 21.3028 28.9243 21.19 28.8115C21.0772 28.6987 20.9241 28.6353 20.7646 28.6353H15.9523C15.7927 28.6353 15.6397 28.6987 15.5269 28.8115C15.4141 28.9243 15.3507 29.0773 15.3507 29.2369V40.3529H13.3301V32.9278C13.3301 32.7683 13.2668 32.6153 13.154 32.5024C13.0411 32.3896 12.8881 32.3263 12.7286 32.3263H7.91617C7.75663 32.3263 7.60362 32.3896 7.4908 32.5024C7.37799 32.6153 7.31461 32.7683 7.31461 32.9278V40.3529H5.4373C5.27776 40.3529 5.12475 40.4163 5.01193 40.5291C4.89912 40.6419 4.83574 40.7949 4.83574 40.9545V43.0547C4.83574 43.2142 4.89912 43.3672 5.01193 43.4801C5.12475 43.5929 5.27776 43.6562 5.4373 43.6562H39.3155C39.475 43.6562 39.6281 43.5929 39.7409 43.4801C39.8537 43.3672 39.9171 43.2142 39.9171 43.0547V40.9545C39.9171 40.7949 39.8537 40.6419 39.7409 40.5291C39.6281 40.4163 39.475 40.3529 39.3155 40.3529H39.3156ZM32.626 22.4568H36.2352V40.3529H32.626V22.4568ZM24.5899 26.1477H28.1992V40.3529H24.5899V26.1477ZM16.5539 29.8385H20.1631V40.353H16.5539V29.8385ZM8.5179 33.5294H12.1272V40.3529H8.5179V33.5294ZM38.7141 42.4532H6.03895V41.5561H38.714V42.4532H38.7141ZM21.6082 24.3417C21.7192 24.4585 21.8601 24.5426 22.0156 24.5848C22.1711 24.627 22.3352 24.6257 22.4901 24.581C22.6451 24.5369 22.785 24.451 22.8946 24.3328C23.0041 24.2146 23.0791 24.0685 23.1113 23.9106L24.2901 18.1831C24.3495 17.8937 24.266 17.6058 24.0609 17.3928C23.8557 17.18 23.5709 17.0863 23.2796 17.1351L17.557 18.0961C17.3988 18.1224 17.2509 18.1915 17.129 18.2957C17.0072 18.3999 16.9162 18.5354 16.8657 18.6876C16.8149 18.8397 16.8065 19.0027 16.8415 19.1591C16.8765 19.3156 16.9535 19.4595 17.0643 19.5754L17.7915 20.3381C16.069 21.9719 9.41707 27.9914 1.48298 31.4253C1.34904 31.4832 1.24075 31.5879 1.17827 31.7198C1.1158 31.8517 1.1034 32.0018 1.14338 32.1422C1.18337 32.2825 1.27301 32.4036 1.39562 32.4827C1.51822 32.5619 1.66542 32.5938 1.8098 32.5725C10.6325 31.2692 16.569 27.0982 20.7865 23.4798L21.6082 24.3417H21.6082ZM6.29419 30.3577C11.921 27.1721 16.7611 23.0701 19.0632 20.7823C19.1748 20.6713 19.2385 20.5211 19.2407 20.3637C19.2428 20.2063 19.1831 20.0544 19.0746 19.9405L18.352 19.1825L23.0174 18.399L22.0564 23.0682L21.2617 22.2347C21.1548 22.1225 21.0088 22.056 20.854 22.0489C20.6992 22.0417 20.5477 22.0946 20.4309 22.1965C17.0854 25.1147 12.5919 28.4939 6.29419 30.3577ZM34.4305 0.34375C29.7715 0.34375 25.9812 4.13411 25.9812 8.79313C25.9812 9.91977 26.1981 11.0078 26.6255 12.0339L23.4621 15.1974C23.3875 15.2721 23.3338 15.3651 23.3065 15.4671C23.2792 15.5691 23.2793 15.6765 23.3066 15.7785C23.3339 15.8804 23.3876 15.9734 23.4622 16.0481C23.5368 16.1228 23.6298 16.1765 23.7318 16.2039L25.6539 16.7189L25.5234 16.8494C25.4106 16.9622 25.3472 17.1153 25.3472 17.2748C25.3472 17.4343 25.4106 17.5874 25.5234 17.7002C25.6363 17.813 25.7893 17.8763 25.9488 17.8763C26.1084 17.8763 26.2614 17.8129 26.3742 17.7001L26.5047 17.5696L27.0197 19.4917C27.047 19.5938 27.1007 19.6868 27.1754 19.7615C27.25 19.8362 27.343 19.8899 27.445 19.9172C27.5471 19.9446 27.6545 19.9446 27.7565 19.9172C27.8585 19.8899 27.9515 19.8362 28.0261 19.7615L31.1897 16.5981C32.2158 17.0255 33.3038 17.2424 34.4305 17.2424C39.0895 17.2424 42.8798 13.4521 42.8798 8.79313C42.8798 4.1342 39.0895 0.34375 34.4305 0.34375ZM25.0495 15.3114L27.7805 12.5803L29.3673 13.0055L26.6362 15.7366L25.0494 15.3114H25.0495ZM32.9669 8.79313C32.9669 7.98609 33.6234 7.32952 34.4305 7.32952C35.2375 7.32952 35.8942 7.98609 35.8942 8.79313C35.8942 9.60016 35.2376 10.2567 34.4305 10.2567C34.2484 10.2567 34.0746 10.2218 33.9136 10.1607L34.8559 9.21852C34.9668 9.10532 35.0286 8.95291 35.0278 8.79441C35.027 8.63591 34.9637 8.48413 34.8516 8.37205C34.7395 8.25997 34.5878 8.19666 34.4293 8.19587C34.2708 8.19507 34.1184 8.25687 34.0052 8.36782L33.0629 9.31004C32.9998 9.14504 32.9672 8.96989 32.9669 8.79321L32.9669 8.79313ZM33.0197 11.0547C33.4424 11.3199 33.9314 11.4604 34.4305 11.4599C35.9009 11.4599 37.0973 10.2636 37.0973 8.79321C37.0973 7.32282 35.9009 6.12648 34.4305 6.12648C32.96 6.12648 31.7637 7.32282 31.7637 8.79321C31.7633 9.29224 31.9038 9.78126 32.169 10.204L30.9569 11.4161C30.4042 10.686 30.0757 9.77737 30.0757 8.79313C30.0757 6.39177 32.0293 4.43816 34.4306 4.43816C36.8318 4.43816 38.7855 6.39177 38.7855 8.79313C38.7855 11.1945 36.8319 13.148 34.4306 13.148C33.4464 13.148 32.5377 12.8195 31.8076 12.2668L33.0197 11.0547ZM27.9122 18.1741L27.487 16.5873L30.2181 13.8562L30.6433 15.443L27.9122 18.1741ZM34.4305 16.0393C33.5593 16.0393 32.7155 15.8882 31.9136 15.5904C31.9118 15.5487 31.9056 15.5074 31.8952 15.4671L31.3449 13.4134C32.2573 14.0258 33.3315 14.3523 34.4304 14.3511C37.4951 14.3511 39.9885 11.8578 39.9885 8.79313C39.9885 5.72842 37.4951 3.23503 34.4304 3.23503C31.3657 3.23503 28.8724 5.72842 28.8724 8.79313C28.8712 9.89202 29.1977 10.9663 29.8101 11.8787L27.7564 11.3284C27.7161 11.318 27.6748 11.3118 27.6332 11.31C27.3353 10.508 27.1842 9.66419 27.1842 8.79313C27.1842 4.79755 30.4348 1.54688 34.4304 1.54688C38.426 1.54688 41.6766 4.79755 41.6766 8.79313C41.6766 12.7887 38.426 16.0393 34.4304 16.0393H34.4305Z" fill="white"/>
</svg>
