<svg width="44" height="44" viewBox="0 0 44 44" fill="none" xmlns="http://www.w3.org/2000/svg">
<path d="M14.5476 11.1444C14.5007 11.319 14.4886 11.5013 14.5122 11.6806C14.5358 11.8599 14.5946 12.0328 14.6851 12.1894L15.8126 14.1006C15.9034 14.2572 16.0243 14.3942 16.1682 14.5039C16.3122 14.6136 16.4763 14.6939 16.6513 14.74C16.826 14.7869 17.0082 14.799 17.1875 14.7754C17.3669 14.7518 17.5398 14.693 17.6963 14.6025L18.1157 14.3894C18.567 14.7308 19.0588 15.0148 19.5801 15.235V15.6956C19.5801 16.0603 19.725 16.41 19.9828 16.6679C20.2407 16.9258 20.5904 17.0706 20.9551 17.0706H23.162C23.5266 17.0706 23.8764 16.9258 24.1342 16.6679C24.3921 16.41 24.537 16.0603 24.537 15.6956V15.2212C25.0575 15.0011 25.5474 14.7145 25.9945 14.3687L26.4001 14.6025C26.7156 14.7845 27.0905 14.8339 27.4423 14.7398C27.7942 14.6457 28.0944 14.4158 28.277 14.1006L29.377 12.1894C29.559 11.8739 29.6084 11.499 29.5143 11.1471C29.4202 10.7952 29.1903 10.4951 28.8751 10.3125L28.4763 10.0994C28.5177 9.80787 28.5384 9.5138 28.5382 9.21937C28.5386 8.93179 28.518 8.64456 28.4763 8.36L28.8751 8.13312C29.1903 7.95056 29.4202 7.65039 29.5143 7.2985C29.6084 6.94661 29.559 6.57177 29.377 6.25625L28.277 4.345C28.0944 4.02981 27.7942 3.79993 27.4423 3.70584C27.0905 3.61174 26.7156 3.66112 26.4001 3.84313L25.9738 4.05625C25.5243 3.71237 25.032 3.42813 24.5095 3.21063V2.75C24.5095 2.38533 24.3646 2.03559 24.1067 1.77773C23.8489 1.51987 23.4991 1.375 23.1345 1.375H20.9276C20.5629 1.375 20.2132 1.51987 19.9553 1.77773C19.6975 2.03559 19.5526 2.38533 19.5526 2.75V3.2175C19.0347 3.44299 18.5455 3.72916 18.0951 4.07L17.6963 3.84313C17.5398 3.75193 17.3668 3.69256 17.1873 3.66843C17.0077 3.6443 16.8252 3.65589 16.6502 3.70253C16.4751 3.74916 16.311 3.82993 16.1673 3.94019C16.0235 4.05044 15.903 4.18802 15.8126 4.345L14.7126 6.24938C14.6221 6.40596 14.5633 6.57886 14.5397 6.75818C14.5161 6.9375 14.5282 7.11971 14.5751 7.29437C14.6212 7.46938 14.7014 7.63356 14.8112 7.77749C14.9209 7.92142 15.0579 8.04228 15.2145 8.13312L15.6132 8.33938C15.5757 8.63128 15.5551 8.9251 15.5513 9.21937C15.5507 9.50925 15.5714 9.79879 15.6132 10.0856L15.2145 10.3125C15.0535 10.3998 14.9116 10.5183 14.7971 10.6612C14.6826 10.804 14.5978 10.9683 14.5476 11.1444ZM16.8988 9.21937C16.9012 8.98945 16.9173 8.75988 16.947 8.53187C16.9824 8.26028 16.9358 7.9843 16.8133 7.73932C16.6908 7.49434 16.498 7.29153 16.2595 7.15687L15.8607 6.93L16.9813 5.0325L17.3801 5.26625C17.6197 5.40472 17.8956 5.46764 18.1716 5.44679C18.4476 5.42594 18.7108 5.32228 18.927 5.14937C19.2724 4.87022 19.654 4.63896 20.0613 4.46187C20.3172 4.35998 20.5365 4.18362 20.691 3.95562C20.8454 3.72763 20.9279 3.45851 20.9276 3.18313V2.75H23.1345V3.21063C23.1342 3.48601 23.2166 3.75513 23.3711 3.98312C23.5255 4.21112 23.7449 4.38748 24.0007 4.48938C24.4081 4.66646 24.7896 4.89772 25.1351 5.17688C25.3512 5.34978 25.6145 5.45344 25.8905 5.47429C26.1665 5.49514 26.4423 5.43222 26.682 5.29375L27.0876 5.06L28.1876 6.94375L27.7888 7.17063C27.5503 7.30528 27.3575 7.50809 27.235 7.75307C27.1125 7.99805 27.066 8.27403 27.1013 8.54563C27.1311 8.77363 27.1471 9.0032 27.1495 9.23313C27.1471 9.46304 27.131 9.69262 27.1013 9.92063C27.066 10.1922 27.1125 10.4682 27.235 10.7132C27.3575 10.9582 27.5503 11.161 27.7888 11.2956L28.1876 11.5225L27.0876 13.4338L26.682 13.2C26.4423 13.0615 26.1665 12.9986 25.8905 13.0195C25.6145 13.0403 25.3512 13.144 25.1351 13.3169C24.7879 13.5935 24.4067 13.8246 24.0007 14.0044C23.7449 14.1063 23.5255 14.2826 23.3711 14.5106C23.2166 14.7386 23.1342 15.0077 23.1345 15.2831V15.7437H20.9276V15.2831C20.9279 15.0077 20.8454 14.7386 20.691 14.5106C20.5365 14.2826 20.3172 14.1063 20.0613 14.0044C19.6554 13.8246 19.2742 13.5935 18.927 13.3169C18.6787 13.1256 18.3741 13.0217 18.0607 13.0213C17.8199 13.0196 17.5828 13.0812 17.3732 13.2L16.9745 13.4338L15.8676 11.5225L16.2663 11.2956C16.5049 11.161 16.6977 10.9582 16.8202 10.7132C16.9427 10.4682 16.9892 10.1922 16.9538 9.92063C16.9213 9.68821 16.9029 9.45402 16.8988 9.21937Z" fill="white"/>
<path d="M22 12.6294C22.6799 12.6294 23.3445 12.4278 23.9098 12.0501C24.4751 11.6723 24.9157 11.1355 25.1758 10.5073C25.436 9.87923 25.5041 9.18806 25.3715 8.52125C25.2388 7.85444 24.9114 7.24194 24.4307 6.76119C23.9499 6.28045 23.3374 5.95306 22.6706 5.82042C22.0038 5.68779 21.3126 5.75586 20.6845 6.01604C20.0564 6.27621 19.5195 6.71681 19.1418 7.2821C18.7641 7.84739 18.5625 8.512 18.5625 9.19187C18.5625 10.1036 18.9247 10.9779 19.5693 11.6226C20.214 12.2672 21.0883 12.6294 22 12.6294ZM22 7.12937C22.4079 7.12937 22.8067 7.25034 23.1459 7.47697C23.485 7.7036 23.7494 8.02572 23.9055 8.40259C24.0616 8.77946 24.1025 9.19416 24.0229 9.59425C23.9433 9.99433 23.7469 10.3618 23.4584 10.6503C23.17 10.9387 22.8025 11.1352 22.4024 11.2147C22.0023 11.2943 21.5876 11.2535 21.2107 11.0974C20.8338 10.9413 20.5117 10.6769 20.2851 10.3377C20.0585 9.99856 19.9375 9.5998 19.9375 9.19187C19.9375 8.64486 20.1548 8.12026 20.5416 7.73347C20.9284 7.34667 21.453 7.12937 22 7.12937ZM37.9706 39.0294C38.0635 37.7764 38.5279 36.5796 39.3044 35.5919C40.1994 34.5369 40.6458 33.1735 40.5482 31.7935C40.4505 30.4135 39.8165 29.1265 38.7819 28.2081C38.1949 27.6866 37.5045 27.2946 36.7559 27.0577C36.0072 26.8208 35.2171 26.7442 34.4369 26.8331C33.1998 26.9564 32.042 27.4988 31.1555 28.3703C30.2689 29.2418 29.7069 30.3902 29.5625 31.625C29.4849 32.3464 29.5573 33.076 29.775 33.7681C29.9926 34.4601 30.351 35.0998 30.8275 35.6469C31.5993 36.6554 32.0518 37.8717 32.1269 39.1394V39.7719C32.1269 40.5432 32.4333 41.2829 32.9786 41.8282C33.524 42.3736 34.2637 42.68 35.035 42.68C35.8063 42.68 36.546 42.3736 37.0914 41.8282C37.6367 41.2829 37.9431 40.5432 37.9431 39.7719L37.9706 39.0294ZM36.5956 39.7719C36.5956 40.1785 36.4341 40.5684 36.1466 40.856C35.8591 41.1435 35.4691 41.305 35.0625 41.305C34.6559 41.305 34.2659 41.1435 33.9784 40.856C33.6909 40.5684 33.5294 40.1785 33.5294 39.7719V39.1875H36.5956V39.7719ZM36.7606 37.8125H35.75V35.3444L36.9256 34.1756L35.9494 33.1994L35.0625 34.0931L34.1756 33.1994L33.1994 34.1756L34.375 35.3444V37.8125H33.3506C33.0989 36.6968 32.6009 35.6515 31.8931 34.7531C31.5368 34.3485 31.268 33.8746 31.1036 33.3611C30.9391 32.8476 30.8826 32.3057 30.9375 31.7694C31.0448 30.8449 31.4656 29.9852 32.1299 29.3334C32.7942 28.6816 33.6618 28.2772 34.5881 28.1875C34.7461 28.1769 34.9046 28.1769 35.0625 28.1875C36.0969 28.1846 37.0959 28.5641 37.8675 29.2531C38.282 29.6233 38.6138 30.0766 38.8412 30.5836C39.0687 31.0907 39.1867 31.6399 39.1875 32.1956C39.1899 33.1239 38.858 34.022 38.2525 34.7256C37.5386 35.6351 37.0297 36.6881 36.7606 37.8125ZM4.72312 42.4256C4.85118 42.5526 5.02402 42.6242 5.20438 42.625H13.0625C13.2448 42.625 13.4197 42.5526 13.5486 42.4236C13.6776 42.2947 13.75 42.1198 13.75 41.9375V29.5625C13.75 29.3802 13.6776 29.2053 13.5486 29.0764C13.4197 28.9474 13.2448 28.875 13.0625 28.875H2.0625C1.88016 28.875 1.7053 28.9474 1.57636 29.0764C1.44743 29.2053 1.375 29.3802 1.375 29.5625V38.8438C1.37538 38.9347 1.3938 39.0247 1.42921 39.1085C1.46461 39.1923 1.51629 39.2682 1.58125 39.3319L4.72312 42.4256ZM4.8125 40.5625L3.4375 39.2219L5.12187 38.885L4.8125 40.5625ZM2.75 30.25H12.375V41.25H6.04313L6.66187 38.1425C6.68294 38.0323 6.67672 37.9186 6.64376 37.8114C6.61079 37.7041 6.55208 37.6066 6.47274 37.5273C6.39341 37.4479 6.29586 37.3892 6.18862 37.3562C6.08138 37.3233 5.9677 37.3171 5.8575 37.3381L2.75 37.9569V30.25Z" fill="white"/>
<path d="M4.125 31.625H11V33H4.125V31.625ZM4.125 35.0625H11V36.4375H4.125V35.0625ZM8.25 38.5H11V39.875H8.25V38.5ZM32.0238 8.04375L31.2262 9.1575C32.9823 10.4167 34.4609 12.0234 35.5702 13.8778C36.6795 15.7321 37.3959 17.7947 37.675 19.9375H35.75C35.6256 19.9378 35.5037 19.9719 35.3971 20.0361C35.2906 20.1002 35.2035 20.1921 35.145 20.3019C35.0898 20.4094 35.0639 20.5295 35.0699 20.6502C35.076 20.7709 35.1137 20.8879 35.1794 20.9894L37.9294 25.1144C37.9901 25.2115 38.074 25.2919 38.1737 25.3484C38.2733 25.4048 38.3855 25.4354 38.5 25.4375C38.6126 25.4377 38.7235 25.4102 38.823 25.3574C38.9225 25.3047 39.0076 25.2283 39.0706 25.135L41.8206 21.01C41.8863 20.9085 41.924 20.7916 41.9301 20.6709C41.9361 20.5502 41.9102 20.43 41.855 20.3225C41.7994 20.2089 41.7134 20.1128 41.6067 20.0449C41.4999 19.9769 41.3765 19.9398 41.25 19.9375H39.0569C38.775 17.5752 38.004 15.2976 36.7931 13.2498C35.5822 11.202 33.9579 9.429 32.0238 8.04375ZM38.5 23.5125L37.0356 21.3125H39.9644L38.5 23.5125ZM19.0644 41.6556C19.1289 41.7311 19.2091 41.7917 19.2992 41.8332C19.3894 41.8747 19.4876 41.8963 19.5869 41.8962C19.6348 41.9029 19.6834 41.9029 19.7313 41.8962C19.8526 41.8701 19.9647 41.8115 20.0555 41.7268C20.1463 41.6421 20.2124 41.5343 20.2469 41.415L20.8794 39.1669C21.2644 39.1669 21.6356 39.2081 22 39.2081C24.473 39.2147 26.9176 38.6821 29.1637 37.6475L28.5863 36.3962C26.5201 37.3422 24.2723 37.8255 22 37.8125H21.2644L21.7456 36.1212C21.7804 36.0006 21.7815 35.8728 21.7488 35.7516C21.716 35.6304 21.6508 35.5205 21.56 35.4337C21.4704 35.3477 21.3591 35.2876 21.2381 35.2598C21.117 35.2319 20.9907 35.2374 20.8725 35.2756L16.1562 36.7812C16.0479 36.8156 15.9497 36.8763 15.8705 36.9578C15.7913 37.0394 15.7336 37.1394 15.7025 37.2487C15.6726 37.3579 15.6702 37.4728 15.6954 37.5831C15.7206 37.6934 15.7726 37.7958 15.8469 37.8812L19.0644 41.6556ZM20.075 36.9669L19.25 39.7856L17.5588 37.8125L20.075 36.9669ZM10.7456 14.2037C10.8666 14.3008 11.0168 14.3541 11.1719 14.355C11.2692 14.3545 11.3652 14.3335 11.4537 14.2931C11.5672 14.2425 11.6649 14.1621 11.7363 14.0604C11.8077 13.9587 11.8503 13.8396 11.8594 13.7156L12.2306 8.7725C12.2389 8.66008 12.2194 8.54736 12.1738 8.44426C12.1283 8.34115 12.0581 8.25083 11.9694 8.18125C11.8801 8.1117 11.775 8.06528 11.6635 8.04609C11.5519 8.0269 11.4374 8.03554 11.33 8.07125L6.6275 9.625C6.50808 9.66325 6.4014 9.73343 6.31899 9.82795C6.23659 9.92247 6.18161 10.0377 6.16 10.1612C6.13322 10.2882 6.1429 10.4201 6.18791 10.5417C6.23293 10.6634 6.31144 10.7698 6.41437 10.8487L8.0025 12.0931C5.92886 14.9803 4.81315 18.4453 4.8125 22C4.81286 23.698 5.06304 25.3867 5.555 27.0119L6.875 26.6131C6.17136 24.3109 6.00503 21.878 6.3888 19.5015C6.77258 17.125 7.69623 14.8681 9.08875 12.9044L10.7456 14.2037ZM10.7456 9.70062L10.5463 12.3337L8.25 10.5256L10.7456 9.70062ZM41.25 30.9375H42.625V32.3125H41.25V30.9375ZM39.5835 28.1903L40.5556 27.2181L41.5277 28.1903L40.5556 29.1624L39.5835 28.1903ZM27.5 30.9375H28.875V32.3125H27.5V30.9375ZM29.2696 27.5014L30.2417 26.5292L31.2139 27.5014L30.2417 28.4735L29.2696 27.5014ZM34.375 24.75H35.75V26.125H34.375V24.75Z" fill="white"/>
</svg>
