<svg width="40" height="40" viewBox="0 0 40 40" fill="none" xmlns="http://www.w3.org/2000/svg">
<g clip-path="url(#clip0_2692_813)">
<path d="M36.25 30.625H21.8125C21.7433 30.3463 21.6112 30.0872 21.4263 29.8675L17.9744 25.8438C17.9158 25.7752 17.843 25.7202 17.7611 25.6824C17.6793 25.6447 17.5902 25.6251 17.5 25.625H10.625V25C10.625 24.8342 10.5592 24.6753 10.4419 24.5581C10.3247 24.4408 10.1658 24.375 10 24.375H1.25C1.08424 24.375 0.925268 24.4408 0.808058 24.5581C0.690848 24.6753 0.625 24.8342 0.625 25V38.75C0.625 38.9158 0.690848 39.0747 0.808058 39.1919C0.925268 39.3092 1.08424 39.375 1.25 39.375H6.25C6.41576 39.375 6.57473 39.3092 6.69194 39.1919C6.80915 39.0747 6.875 38.9158 6.875 38.75V38.125H10C10.1658 38.125 10.3247 38.0592 10.4419 37.9419C10.5592 37.8247 10.625 37.6658 10.625 37.5V36.875H14.8125L18.405 39.27C18.5072 39.3381 18.6272 39.3747 18.75 39.375C18.795 39.3749 18.8398 39.37 18.8838 39.3606L38.8838 34.9856C39.023 34.9551 39.1476 34.8779 39.237 34.7669C39.3263 34.6558 39.375 34.5175 39.375 34.375V33.75C39.374 32.9215 39.0444 32.1272 38.4586 31.5414C37.8728 30.9556 37.0785 30.626 36.25 30.625ZM5.625 38.125H1.875V25.625H5.625V38.125ZM9.375 36.875H6.875V25.625H9.375V36.875ZM38.125 33.875L18.875 38.0831L15.3463 35.73C15.2436 35.6618 15.1232 35.6253 15 35.625H10.625V26.875H17.2125L20.4744 30.6806C20.5716 30.7939 20.625 30.9382 20.625 31.0875V31.875C20.625 32.0408 20.5592 32.1997 20.4419 32.3169C20.3247 32.4342 20.1658 32.5 20 32.5H19.2681C19.186 32.5001 19.1046 32.4839 19.0286 32.4525C18.9527 32.4211 18.8837 32.375 18.8256 32.3169L16.0669 29.5581L15.1831 30.4419L17.9419 33.2006C18.1156 33.3754 18.3222 33.514 18.5499 33.6083C18.7776 33.7026 19.0217 33.7508 19.2681 33.75H20C20.4973 33.75 20.9742 33.5525 21.3258 33.2008C21.6775 32.8492 21.875 32.3723 21.875 31.875H36.25C36.7473 31.875 37.2242 32.0725 37.5758 32.4242C37.9275 32.7758 38.125 33.2527 38.125 33.75V33.875ZM38.75 19.375H37.5V5.625C37.5 5.12772 37.3025 4.65081 36.9508 4.29917C36.5992 3.94754 36.1223 3.75 35.625 3.75H31.2162C31.2073 3.73469 31.1975 3.71988 31.1869 3.70563L29.4194 1.9375C29.3022 1.82033 29.1432 1.75451 28.9775 1.75451C28.8118 1.75451 28.6528 1.82033 28.5356 1.9375L27.8869 2.58625C27.5626 2.41673 27.224 2.27618 26.875 2.16625V1.25C26.875 1.08424 26.8092 0.925268 26.6919 0.808058C26.5747 0.690848 26.4158 0.625 26.25 0.625H23.75C23.5842 0.625 23.4253 0.690848 23.3081 0.808058C23.1908 0.925268 23.125 1.08424 23.125 1.25V2.16625C22.776 2.27618 22.4374 2.41673 22.1131 2.58625L21.4644 1.9375C21.3472 1.82033 21.1882 1.75451 21.0225 1.75451C20.8568 1.75451 20.6978 1.82033 20.5806 1.9375L18.8125 3.70563C18.8021 3.71989 18.7925 3.73471 18.7838 3.75H14.375C13.8777 3.75 13.4008 3.94754 13.0492 4.29917C12.6975 4.65081 12.5 5.12772 12.5 5.625V9.375H1.25C1.08424 9.375 0.925268 9.44085 0.808058 9.55806C0.690848 9.67527 0.625 9.83424 0.625 10V17.5C0.625 17.6658 0.690848 17.8247 0.808058 17.9419C0.925268 18.0592 1.08424 18.125 1.25 18.125H12.5V19.375H11.25C11.0842 19.375 10.9253 19.4408 10.8081 19.5581C10.6908 19.6753 10.625 19.8342 10.625 20V22.5C10.625 22.9973 10.8225 23.4742 11.1742 23.8258C11.5258 24.1775 12.0027 24.375 12.5 24.375H37.5C37.9973 24.375 38.4742 24.1775 38.8258 23.8258C39.1775 23.4742 39.375 22.9973 39.375 22.5V20C39.375 19.8342 39.3092 19.6753 39.1919 19.5581C39.0747 19.4408 38.9158 19.375 38.75 19.375ZM36.25 5.625V19.375H35V6.875C35 6.70924 34.9342 6.55027 34.8169 6.43306C34.6997 6.31585 34.5408 6.25 34.375 6.25H30.9587C30.8488 5.901 30.7083 5.56239 30.5387 5.23812L30.7769 5H35.625C35.7908 5 35.9497 5.06585 36.0669 5.18306C36.1842 5.30027 36.25 5.45924 36.25 5.625ZM16.875 17.5V10C16.875 9.83424 16.8092 9.67527 16.6919 9.55806C16.5747 9.44085 16.4158 9.375 16.25 9.375V7.5H17.5V9.375C17.5 9.54076 17.5658 9.69973 17.6831 9.81694C17.8003 9.93415 17.9592 10 18.125 10H19.0413C19.1512 10.349 19.2917 10.6876 19.4613 11.0119L18.8125 11.6606C18.6953 11.7778 18.6295 11.9368 18.6295 12.1025C18.6295 12.2682 18.6953 12.4272 18.8125 12.5444L20.5806 14.3125C20.6978 14.4297 20.8568 14.4955 21.0225 14.4955C21.1882 14.4955 21.3472 14.4297 21.4644 14.3125L22.1131 13.6637C22.4374 13.8333 22.776 13.9739 23.125 14.0837V15C23.125 15.1658 23.1908 15.3247 23.3081 15.4419C23.4253 15.5592 23.5842 15.625 23.75 15.625H26.25C26.4158 15.625 26.5747 15.5592 26.6919 15.4419C26.8092 15.3247 26.875 15.1658 26.875 15V14.0837C27.224 13.9736 27.5626 13.8329 27.8869 13.6631L28.5356 14.3125C28.6528 14.4297 28.8118 14.4955 28.9775 14.4955C29.1432 14.4955 29.3022 14.4297 29.4194 14.3125L31.1875 12.5444C31.3047 12.4272 31.3705 12.2682 31.3705 12.1025C31.3705 11.9368 31.3047 11.7778 31.1875 11.6606L30.5394 11.0119C30.7087 10.6876 30.849 10.349 30.9587 10H31.875C32.0408 10 32.1997 9.93415 32.3169 9.81694C32.4342 9.69973 32.5 9.54076 32.5 9.375V7.5H33.75V19.375H16.25V18.125C16.4158 18.125 16.5747 18.0592 16.6919 17.9419C16.8092 17.8247 16.875 17.6658 16.875 17.5ZM20.1287 7.01375C20.2534 6.46583 20.4705 5.94315 20.7706 5.46812C20.8463 5.34817 20.8789 5.20604 20.8631 5.06509C20.8473 4.92413 20.7841 4.79274 20.6838 4.6925L20.1388 4.1475L21.0225 3.26375L21.5675 3.80875C21.6677 3.90909 21.7991 3.97235 21.9401 3.98814C22.081 4.00392 22.2232 3.9713 22.3431 3.89562C22.8181 3.59546 23.3408 3.37839 23.8888 3.25375C24.027 3.22228 24.1504 3.14477 24.2387 3.03392C24.3271 2.92308 24.3751 2.7855 24.375 2.64375V1.875H25.625V2.64375C25.6249 2.7855 25.6729 2.92308 25.7613 3.03392C25.8496 3.14477 25.973 3.22228 26.1112 3.25375C26.6592 3.37839 27.1819 3.59546 27.6569 3.89562C27.7768 3.9713 27.919 4.00392 28.0599 3.98814C28.2009 3.97235 28.3323 3.90909 28.4325 3.80875L28.9775 3.26375L29.8612 4.1475L29.3162 4.6925C29.2159 4.79274 29.1527 4.92413 29.1369 5.06509C29.1211 5.20604 29.1537 5.34817 29.2294 5.46812C29.5295 5.94315 29.7466 6.46583 29.8713 7.01375C29.9027 7.15196 29.9802 7.27537 30.0911 7.36373C30.2019 7.45208 30.3395 7.50013 30.4813 7.5H31.25V8.75H30.4813C30.3395 8.74986 30.2019 8.79792 30.0911 8.88627C29.9802 8.97463 29.9027 9.09804 29.8713 9.23625C29.7466 9.78417 29.5295 10.3068 29.2294 10.7819C29.1537 10.9018 29.1211 11.044 29.1369 11.1849C29.1527 11.3259 29.2159 11.4573 29.3162 11.5575L29.8612 12.1025L28.9775 12.9862L28.4325 12.4412C28.3323 12.3411 28.201 12.2779 28.0602 12.2621C27.9194 12.2463 27.7774 12.2789 27.6575 12.3544C27.1824 12.6544 26.6597 12.8714 26.1119 12.9963C25.9737 13.0276 25.8502 13.1049 25.7617 13.2157C25.6732 13.3264 25.625 13.4639 25.625 13.6056V14.375H24.375V13.6056C24.375 13.4639 24.3268 13.3264 24.2383 13.2157C24.1498 13.1049 24.0263 13.0276 23.8881 12.9963C23.3403 12.8714 22.8176 12.6544 22.3425 12.3544C22.2226 12.2789 22.0806 12.2463 21.9398 12.2621C21.799 12.2779 21.6677 12.3411 21.5675 12.4412L21.0225 12.9862L20.1388 12.1025L20.6838 11.5575C20.7841 11.4573 20.8473 11.3259 20.8631 11.1849C20.8789 11.044 20.8463 10.9018 20.7706 10.7819C20.4705 10.3068 20.2534 9.78417 20.1287 9.23625C20.0973 9.09804 20.0198 8.97463 19.9089 8.88627C19.7981 8.79792 19.6605 8.74986 19.5187 8.75H18.75V7.5H19.5187C19.6605 7.50013 19.7981 7.45208 19.9089 7.36373C20.0198 7.27537 20.0973 7.15196 20.1287 7.01375ZM13.75 5.625C13.75 5.45924 13.8158 5.30027 13.9331 5.18306C14.0503 5.06585 14.2092 5 14.375 5H19.2231L19.4613 5.23812C19.2917 5.56239 19.1512 5.901 19.0413 6.25H15.625C15.4592 6.25 15.3003 6.31585 15.1831 6.43306C15.0658 6.55027 15 6.70924 15 6.875V9.375H13.75V5.625ZM1.875 10.625H15.625V16.875H1.875V10.625ZM13.75 18.125H15V19.375H13.75V18.125ZM38.125 22.5C38.125 22.6658 38.0592 22.8247 37.9419 22.9419C37.8247 23.0592 37.6658 23.125 37.5 23.125H12.5C12.3342 23.125 12.1753 23.0592 12.0581 22.9419C11.9408 22.8247 11.875 22.6658 11.875 22.5V20.625H38.125V22.5Z" fill="#384BFF"/>
<path d="M24.9999 11.875C25.7415 11.875 26.4666 11.6551 27.0833 11.243C27.6999 10.831 28.1806 10.2453 28.4644 9.56006C28.7482 8.87484 28.8225 8.12084 28.6778 7.39341C28.5331 6.66598 28.176 5.9978 27.6515 5.47335C27.1271 4.9489 26.4589 4.59175 25.7315 4.44706C25.004 4.30236 24.25 4.37662 23.5648 4.66045C22.8796 4.94428 22.2939 5.42493 21.8819 6.04161C21.4698 6.6583 21.2499 7.38332 21.2499 8.125C21.2509 9.11926 21.6463 10.0725 22.3493 10.7756C23.0524 11.4786 24.0056 11.874 24.9999 11.875ZM24.9999 5.625C25.4943 5.625 25.9777 5.77162 26.3888 6.04633C26.7999 6.32103 27.1203 6.71148 27.3096 7.16829C27.4988 7.62511 27.5483 8.12777 27.4518 8.61273C27.3554 9.09768 27.1173 9.54314 26.7676 9.89277C26.418 10.2424 25.9725 10.4805 25.4876 10.577C25.0026 10.6734 24.5 10.6239 24.0432 10.4347C23.5863 10.2455 23.1959 9.92505 22.9212 9.51393C22.6465 9.1028 22.4999 8.61945 22.4999 8.125C22.4999 7.46196 22.7633 6.82608 23.2321 6.35723C23.7009 5.88839 24.3368 5.625 24.9999 5.625ZM5.18299 11.4331L3.30799 13.3081C3.19082 13.4253 3.125 13.5843 3.125 13.75C3.125 13.9157 3.19082 14.0747 3.30799 14.1919L5.18299 16.0669L6.06674 15.1831L4.63362 13.75L6.06674 12.3169L5.18299 11.4331ZM12.3167 11.4331L11.433 12.3169L12.8661 13.75L11.433 15.1831L12.3167 16.0669L14.1917 14.1919C14.3089 14.0747 14.3747 13.9157 14.3747 13.75C14.3747 13.5843 14.3089 13.4253 14.1917 13.3081L12.3167 11.4331ZM6.94112 15.97L9.44112 10.97L10.5592 11.5294L8.05924 16.5294L6.94112 15.97Z" fill="#384BFF"/>
</g>
<defs>
<clipPath id="clip0_2692_813">
<rect width="40" height="40" fill="white"/>
</clipPath>
</defs>
</svg>
