<svg width="40" height="40" viewBox="0 0 40 40" fill="none" xmlns="http://www.w3.org/2000/svg">
<path d="M14.5442 26.8282C14.5442 26.6958 14.5968 26.5689 14.6904 26.4753C14.784 26.3817 14.9109 26.3291 15.0433 26.3291H21.6005C21.7328 26.3291 21.8598 26.3817 21.9534 26.4753C22.047 26.5689 22.0995 26.6958 22.0995 26.8282C22.0995 26.9605 22.047 27.0875 21.9534 27.1811C21.8598 27.2747 21.7328 27.3272 21.6005 27.3272H15.0433C14.9109 27.3272 14.784 27.2747 14.6904 27.1811C14.5968 27.0875 14.5442 26.9605 14.5442 26.8282ZM15.0433 29.7372H20.5515C20.6175 29.7381 20.6831 29.7258 20.7444 29.7011C20.8056 29.6764 20.8614 29.6397 20.9084 29.5933C20.9554 29.5469 20.9927 29.4916 21.0182 29.4306C21.0437 29.3697 21.0568 29.3043 21.0568 29.2382C21.0568 29.1722 21.0437 29.1068 21.0182 29.0458C20.9927 28.9848 20.9554 28.9296 20.9084 28.8831C20.8614 28.8367 20.8056 28.8001 20.7444 28.7754C20.6831 28.7507 20.6175 28.7384 20.5515 28.7392H15.0433C14.9772 28.7384 14.9117 28.7507 14.8504 28.7754C14.7891 28.8001 14.7334 28.8367 14.6864 28.8831C14.6394 28.9296 14.602 28.9848 14.5766 29.0458C14.5511 29.1068 14.538 29.1722 14.538 29.2382C14.538 29.3043 14.5511 29.3697 14.5766 29.4306C14.602 29.4916 14.6394 29.5469 14.6864 29.5933C14.7334 29.6397 14.7891 29.6764 14.8504 29.7011C14.9117 29.7258 14.9772 29.7381 15.0433 29.7372ZM13.3539 25.6935C13.4022 25.7378 13.4413 25.7911 13.469 25.8505C13.4967 25.9099 13.5124 25.9742 13.5153 26.0397C13.5181 26.1052 13.508 26.1706 13.4856 26.2321C13.4632 26.2937 13.4288 26.3503 13.3845 26.3986L12.9388 26.885C13.2815 27.4956 13.3834 28.2123 13.2246 28.8943C13.0658 29.5762 12.6576 30.1741 12.0804 30.5705C11.5032 30.9668 10.7986 31.133 10.1051 31.0363C9.41157 30.9396 8.7793 30.587 8.33251 30.0479C7.88572 29.5088 7.65672 28.822 7.6905 28.1226C7.72428 27.4232 8.0184 26.7617 8.51506 26.2682C9.01173 25.7746 9.67503 25.4846 10.3746 25.4552C11.0742 25.4258 11.7595 25.6591 12.2959 26.1092L12.6488 25.7241C12.7382 25.6265 12.8628 25.5685 12.995 25.5627C13.1272 25.5569 13.2563 25.6039 13.3539 25.6933V25.6935ZM12.2063 27.684L10.9745 29.0278C10.8955 29.114 10.7887 29.1698 10.6727 29.1853C10.5568 29.2008 10.4391 29.175 10.3402 29.1126L9.29945 28.4552C9.1896 28.3836 9.11233 28.2716 9.08438 28.1435C9.05642 28.0154 9.08001 27.8814 9.15004 27.7706C9.22008 27.6597 9.33094 27.5809 9.45865 27.5511C9.58636 27.5213 9.72066 27.543 9.8325 27.6115L10.5205 28.0461L11.6207 26.8458C11.2823 26.5762 10.8581 26.4375 10.4258 26.4551C9.99352 26.4727 9.58201 26.6454 9.26662 26.9416C8.95123 27.2378 8.75308 27.6376 8.70842 28.068C8.66377 28.4983 8.77561 28.9304 9.02347 29.285C9.27132 29.6396 9.63862 29.8931 10.0581 29.9991C10.4776 30.1051 10.9212 30.0564 11.3077 29.862C11.6943 29.6676 11.9979 29.3405 12.163 28.9406C12.328 28.5406 12.3435 28.0946 12.2066 27.6842L12.2063 27.684ZM15.0433 19.7844H22.6214C22.7538 19.7844 22.8807 19.7318 22.9743 19.6382C23.0679 19.5446 23.1205 19.4177 23.1205 19.2853C23.1205 19.1529 23.0679 19.026 22.9743 18.9324C22.8807 18.8388 22.7538 18.7862 22.6214 18.7862H15.0433C14.9109 18.7862 14.784 18.8388 14.6904 18.9324C14.5968 19.026 14.5442 19.1529 14.5442 19.2853C14.5442 19.4177 14.5968 19.5446 14.6904 19.6382C14.784 19.7318 14.9109 19.7844 15.0433 19.7844ZM15.0433 22.1944H25.1766C25.2426 22.1952 25.3082 22.1829 25.3695 22.1582C25.4307 22.1335 25.4865 22.0968 25.5335 22.0504C25.5805 22.004 25.6178 21.9487 25.6433 21.8878C25.6688 21.8268 25.6819 21.7614 25.6819 21.6953C25.6819 21.6293 25.6688 21.5639 25.6433 21.5029C25.6178 21.442 25.5805 21.3867 25.5335 21.3402C25.4865 21.2938 25.4307 21.2572 25.3695 21.2325C25.3082 21.2078 25.2426 21.1955 25.1766 21.1963H15.0433C14.9772 21.1955 14.9117 21.2078 14.8504 21.2325C14.7891 21.2572 14.7334 21.2938 14.6864 21.3402C14.6394 21.3867 14.602 21.442 14.5766 21.5029C14.5511 21.5639 14.538 21.6293 14.538 21.6953C14.538 21.7614 14.5511 21.8268 14.5766 21.8878C14.602 21.9487 14.6394 22.004 14.6864 22.0504C14.7334 22.0968 14.7891 22.1335 14.8504 22.1582C14.9117 22.1829 14.9772 22.1952 15.0433 22.1944ZM13.3539 18.1506C13.4022 18.1949 13.4413 18.2482 13.469 18.3076C13.4967 18.3671 13.5124 18.4313 13.5153 18.4968C13.5181 18.5623 13.508 18.6277 13.4856 18.6892C13.4632 18.7508 13.4288 18.8074 13.3845 18.8557L12.9388 19.3421C13.2815 19.9527 13.3834 20.6694 13.2246 21.3514C13.0658 22.0333 12.6576 22.6312 12.0804 23.0276C11.5032 23.424 10.7986 23.5901 10.1051 23.4934C9.41157 23.3967 8.7793 23.0442 8.33251 22.505C7.88572 21.9659 7.65672 21.2791 7.6905 20.5797C7.72428 19.8803 8.0184 19.2189 8.51506 18.7253C9.01173 18.2317 9.67503 17.9417 10.3746 17.9123C11.0742 17.8829 11.7595 18.1162 12.2959 18.5663L12.6488 18.1812C12.6931 18.1329 12.7465 18.0938 12.8059 18.0661C12.8652 18.0384 12.9295 18.0226 12.995 18.0198C13.0605 18.0169 13.1259 18.027 13.1874 18.0494C13.249 18.0718 13.3056 18.1062 13.3539 18.1504V18.1506ZM12.2063 20.1407L10.9745 21.4844C10.8955 21.5707 10.7887 21.6264 10.6727 21.6419C10.5568 21.6574 10.4391 21.6317 10.3402 21.5692L9.29945 20.9119C9.1896 20.8403 9.11233 20.7284 9.08438 20.6002C9.05642 20.4721 9.08001 20.3382 9.15004 20.2273C9.22008 20.1164 9.33094 20.0376 9.45865 20.0078C9.58636 19.978 9.72066 19.9997 9.8325 20.0682L10.5205 20.5028L11.6207 19.3026C11.2823 19.0329 10.8581 18.8942 10.4258 18.9118C9.99352 18.9294 9.58201 19.1021 9.26662 19.3983C8.95123 19.6945 8.75308 20.0943 8.70842 20.5247C8.66377 20.9551 8.77561 21.3871 9.02347 21.7417C9.27132 22.0964 9.63862 22.3499 10.0581 22.4558C10.4776 22.5618 10.9212 22.5131 11.3077 22.3187C11.6943 22.1243 11.9979 21.7972 12.163 21.3973C12.328 20.9974 12.3435 20.5514 12.2066 20.1409L12.2063 20.1407ZM15.0433 12.241H25.1766C25.3089 12.241 25.4359 12.1884 25.5295 12.0948C25.623 12.0012 25.6756 11.8743 25.6756 11.7419C25.6756 11.6096 25.623 11.4826 25.5295 11.389C25.4359 11.2954 25.3089 11.2429 25.1766 11.2429H15.0433C14.9109 11.2429 14.784 11.2954 14.6904 11.389C14.5968 11.4826 14.5442 11.6096 14.5442 11.7419C14.5442 11.8743 14.5968 12.0012 14.6904 12.0948C14.784 12.1884 14.9109 12.241 15.0433 12.241ZM15.0433 14.651H25.1766C25.2426 14.6518 25.3082 14.6395 25.3695 14.6148C25.4307 14.5901 25.4865 14.5535 25.5335 14.5071C25.5805 14.4606 25.6178 14.4053 25.6433 14.3444C25.6688 14.2834 25.6819 14.218 25.6819 14.152C25.6819 14.0859 25.6688 14.0205 25.6433 13.9595C25.6178 13.8986 25.5805 13.8433 25.5335 13.7969C25.4865 13.7505 25.4307 13.7138 25.3695 13.6891C25.3082 13.6644 25.2426 13.6521 25.1766 13.6529H15.0433C14.9772 13.6521 14.9117 13.6644 14.8504 13.6891C14.7891 13.7138 14.7334 13.7505 14.6864 13.7969C14.6394 13.8433 14.602 13.8986 14.5766 13.9595C14.5511 14.0205 14.538 14.0859 14.538 14.152C14.538 14.218 14.5511 14.2834 14.5766 14.3444C14.602 14.4053 14.6394 14.4606 14.6864 14.5071C14.7334 14.5535 14.7891 14.5901 14.8504 14.6148C14.9117 14.6395 14.9772 14.6518 15.0433 14.651ZM10.4971 10.3665C11.1554 10.3659 11.7926 10.5984 12.2958 11.0227L12.6488 10.6376C12.7387 10.5417 12.8627 10.485 12.9941 10.48C13.1255 10.475 13.2535 10.522 13.3504 10.6108C13.4473 10.6996 13.5053 10.8231 13.5117 10.9544C13.518 11.0857 13.4724 11.2143 13.3845 11.3121L12.9388 11.7985C13.2388 12.3348 13.354 12.955 13.2666 13.5632C13.1792 14.1715 12.8939 14.7341 12.455 15.1642C12.016 15.5943 11.4477 15.868 10.8378 15.943C10.2278 16.018 9.61016 15.8901 9.08009 15.5792C8.55002 15.2682 8.13703 14.7915 7.90484 14.2225C7.67266 13.6535 7.6342 13.0239 7.7954 12.4309C7.95659 11.8379 8.30849 11.3144 8.79677 10.9413C9.28505 10.5681 9.88257 10.366 10.4971 10.3662V10.3665ZM9.14406 12.6805C9.17904 12.6251 9.2246 12.5771 9.27814 12.5393C9.33168 12.5015 9.39214 12.4746 9.45607 12.4601C9.52 12.4457 9.58615 12.444 9.65074 12.4551C9.71533 12.4663 9.77709 12.49 9.8325 12.5251L10.5205 12.9597L11.6207 11.7594C11.2823 11.4898 10.8581 11.3511 10.4258 11.3687C9.99352 11.3863 9.58201 11.559 9.26662 11.8552C8.95123 12.1513 8.75308 12.5512 8.70842 12.9816C8.66377 13.4119 8.77561 13.844 9.02347 14.1986C9.27132 14.5532 9.63862 14.8067 10.0581 14.9127C10.4776 15.0187 10.9212 14.97 11.3077 14.7756C11.6943 14.5812 11.9979 14.2541 12.163 13.8542C12.328 13.4542 12.3435 13.0082 12.2066 12.5978L10.9749 13.9415C10.8959 14.0278 10.7891 14.0835 10.6731 14.099C10.5572 14.1145 10.4395 14.0888 10.3405 14.0263L9.29984 13.369C9.18794 13.2984 9.10866 13.1862 9.07944 13.0572C9.05023 12.9281 9.07347 12.7927 9.14406 12.6808V12.6805ZM36.6656 31.4015C36.6662 32.7647 36.2875 34.1012 35.5717 35.2615C34.8559 36.4217 33.8314 37.3599 32.6128 37.9709C31.3942 38.582 30.0295 38.8419 28.6716 38.7214C27.3137 38.601 26.0161 38.1051 24.924 37.2891H6.6225C5.75064 37.2881 4.91477 36.9414 4.29827 36.3249C3.68177 35.7084 3.33498 34.8725 3.33398 34.0007V7.63217C3.33502 6.76033 3.68182 5.9245 4.29832 5.30803C4.91482 4.69156 5.75066 4.3448 6.6225 4.34381H11.3205V3.83388C11.3205 3.76835 11.3334 3.70346 11.3585 3.64291C11.3835 3.58237 11.4203 3.52736 11.4666 3.48102C11.513 3.43469 11.568 3.39793 11.6286 3.37286C11.6891 3.34779 11.754 3.33489 11.8195 3.3349H14.3097C14.4312 2.74598 14.7522 2.21701 15.2184 1.8372C15.6846 1.45739 16.2675 1.25 16.8689 1.25C17.4702 1.25 18.0531 1.45739 18.5193 1.8372C18.9855 2.21701 19.3065 2.74598 19.428 3.3349H21.9182C21.9837 3.33489 22.0486 3.34779 22.1092 3.37286C22.1697 3.39793 22.2247 3.43469 22.2711 3.48102C22.3174 3.52736 22.3542 3.58237 22.3793 3.64291C22.4044 3.70346 22.4173 3.76835 22.4173 3.83388V4.34381H27.1153C27.9872 4.3448 28.823 4.69158 29.4395 5.30806C30.056 5.92455 30.4028 6.7604 30.4038 7.63224V10.9279L32.4841 8.96435C32.7048 8.75665 32.9988 8.64494 33.3016 8.65373C33.6045 8.66252 33.8916 8.79108 34.0998 9.01123L35.117 10.0886C35.3245 10.3092 35.4362 10.6032 35.4274 10.906C35.4186 11.2089 35.2901 11.4959 35.0701 11.7041L30.4038 16.1088V24.1333C32.1442 24.396 33.7328 25.2736 34.8816 26.607C36.0304 27.9405 36.6633 29.6414 36.6656 31.4015ZM29.406 17.0509L28.4515 17.9516V24.104C28.7387 24.0701 29.0277 24.053 29.3169 24.0529C29.3466 24.0529 29.3761 24.0536 29.4057 24.054L29.406 17.0509ZM11.3205 7.79967V7.29412H6.62258C6.53326 7.29525 6.44792 7.33123 6.38474 7.39437C6.32156 7.45752 6.28555 7.54285 6.28438 7.63217V34.0005C6.28553 34.0899 6.32153 34.1752 6.38471 34.2384C6.44789 34.3016 6.53324 34.3376 6.62258 34.3387H22.5816C22.1572 33.3663 21.9485 32.3136 21.9698 31.2529C21.991 30.1922 22.2417 29.1486 22.7047 28.194C23.1676 27.2394 23.8318 26.3964 24.6515 25.7229C25.4713 25.0494 26.4271 24.5614 27.4534 24.2925V18.7048L24.8284 19.3276C24.7432 19.3478 24.6542 19.3452 24.5702 19.3201C24.4863 19.295 24.4105 19.2483 24.3503 19.1846C24.2902 19.1209 24.2479 19.0425 24.2277 18.9572C24.2075 18.872 24.2101 18.783 24.2352 18.699L24.6419 17.3392C24.6439 17.3323 24.6461 17.3254 24.6485 17.3186L25.1021 16.0105L25.1059 15.9997C25.1337 15.9245 25.1793 15.857 25.2388 15.8032L27.4534 13.7127V7.63217C27.4523 7.54285 27.4163 7.45752 27.3531 7.39437C27.2899 7.33123 27.2046 7.29525 27.1152 7.29412H22.4173V7.79967C22.4173 7.93203 22.3647 8.05896 22.2711 8.15256C22.1775 8.24615 22.0506 8.29873 21.9182 8.29873H11.8195C11.6872 8.29873 11.5602 8.24615 11.4666 8.15256C11.373 8.05896 11.3205 7.93203 11.3205 7.79967ZM25.5952 17.6356L25.439 18.1569L26.5188 17.9007L25.7759 17.1136L25.5952 17.6356ZM26.2798 16.193L27.4958 17.4812L34.3849 10.9783C34.4124 10.9517 34.4284 10.9154 34.4295 10.8772C34.4306 10.839 34.4168 10.8018 34.3909 10.7736L33.3737 9.69599C33.347 9.66855 33.3107 9.65258 33.2725 9.65148C33.2343 9.65039 33.1971 9.66426 33.169 9.69013L26.2798 16.193ZM22.4173 5.34146V6.29599H27.1152C27.4694 6.29645 27.8089 6.43734 28.0594 6.68778C28.3098 6.93822 28.4507 7.27776 28.4512 7.63193V12.7704L29.406 11.87V7.63217C29.4053 7.02493 29.1638 6.44277 28.7344 6.0134C28.305 5.58402 27.7229 5.34251 27.1156 5.34185L22.4173 5.34146ZM12.3186 7.3006H21.4191V4.33295H18.983C18.8519 4.33296 18.726 4.28132 18.6326 4.18921C18.5392 4.0971 18.4859 3.97192 18.4841 3.84076C18.4782 3.41628 18.3054 3.0112 18.0031 2.71311C17.7009 2.41503 17.2934 2.24791 16.8689 2.24791C16.4444 2.24791 16.0369 2.41503 15.7347 2.71311C15.4324 3.0112 15.2597 3.41628 15.2538 3.84076C15.252 3.97192 15.1986 4.0971 15.1052 4.18921C15.0118 4.28132 14.8859 4.33296 14.7548 4.33295H12.3186V7.3006ZM6.6225 36.2909H23.8362C23.5699 35.993 23.3282 35.6739 23.1135 35.3369H6.62258C6.26835 35.3365 5.92874 35.1956 5.67822 34.9452C5.42771 34.6947 5.28675 34.3551 5.28625 34.0009V7.63217C5.28673 7.27793 5.42768 6.93835 5.6782 6.6879C5.92872 6.43746 6.26834 6.2966 6.62258 6.29623H11.3205V5.34185H6.6225C6.01527 5.34251 5.43309 5.58402 5.00371 6.0134C4.57432 6.44277 4.33279 7.02493 4.33211 7.63217V34.0006C4.33279 34.6078 4.57432 35.19 5.00371 35.6194C5.43309 36.0487 6.01527 36.2903 6.6225 36.2909ZM35.6674 31.4015C35.6674 30.1454 35.295 28.9176 34.5972 27.8733C33.8994 26.8289 32.9076 26.0149 31.7472 25.5343C30.5868 25.0536 29.3099 24.9278 28.078 25.1729C26.8461 25.4179 25.7145 26.0227 24.8264 26.9108C23.9382 27.799 23.3334 28.9305 23.0884 30.1624C22.8433 31.3943 22.9691 32.6712 23.4497 33.8316C23.9304 34.992 24.7444 35.9839 25.7887 36.6817C26.833 37.3795 28.0609 37.7519 29.3169 37.7519C31.0005 37.75 32.6147 37.0804 33.8053 35.8898C34.9958 34.6993 35.6655 33.0851 35.6674 31.4015ZM32.0205 28.9819L28.4848 32.839L26.5119 31.5928C26.4 31.5243 26.2657 31.5026 26.138 31.5324C26.0103 31.5622 25.8995 31.641 25.8294 31.7519C25.7594 31.8628 25.7358 31.9967 25.7638 32.1249C25.7917 32.253 25.869 32.3649 25.9788 32.4365L28.3045 33.9053C28.4034 33.9678 28.5211 33.9935 28.637 33.978C28.753 33.9625 28.8598 33.9068 28.9388 33.8205L32.7563 29.6563C32.8005 29.608 32.8349 29.5514 32.8573 29.4899C32.8797 29.4283 32.8898 29.3629 32.8869 29.2974C32.8841 29.232 32.8684 29.1677 32.8407 29.1083C32.813 29.0489 32.7739 28.9955 32.7256 28.9513C32.6773 28.907 32.6207 28.8727 32.5592 28.8502C32.4976 28.8278 32.4322 28.8177 32.3667 28.8206C32.3012 28.8234 32.237 28.8391 32.1776 28.8668C32.1182 28.8945 32.0648 28.9336 32.0205 28.9819Z" fill="#384BFF"/>
</svg>
