<svg width="40" height="40" viewBox="0 0 40 40" fill="none" xmlns="http://www.w3.org/2000/svg">
<g clip-path="url(#clip0_2692_849)">
<path d="M37.1381 27.5263C37.7724 26.8379 38.1247 25.9361 38.125 25C38.125 22.9319 36.4431 21.25 34.375 21.25C32.3069 21.25 30.625 22.9319 30.625 25C30.625 25.9738 31.0012 26.8594 31.6119 27.5263C30.0138 27.6625 28.75 28.9919 28.75 30.625V34.375C28.75 34.5408 28.8158 34.6998 28.9331 34.817C29.0503 34.9342 29.2092 35 29.375 35H39.375C39.5408 35 39.6997 34.9342 39.8169 34.817C39.9342 34.6998 40 34.5408 40 34.375V30.625C40 28.9919 38.7363 27.6625 37.1381 27.5263ZM34.375 22.5C35.7537 22.5 36.875 23.6213 36.875 25C36.875 26.3788 35.7537 27.5 34.375 27.5C32.9963 27.5 31.875 26.3788 31.875 25C31.875 23.6213 32.9963 22.5 34.375 22.5ZM38.75 33.75H37.5V32.1875C37.5 32.0218 37.4342 31.8628 37.3169 31.7456C37.1997 31.6284 37.0408 31.5625 36.875 31.5625C36.7092 31.5625 36.5503 31.6284 36.4331 31.7456C36.3158 31.8628 36.25 32.0218 36.25 32.1875V33.75H32.5V32.1875C32.5 32.0218 32.4342 31.8628 32.3169 31.7456C32.1997 31.6284 32.0408 31.5625 31.875 31.5625C31.7092 31.5625 31.5503 31.6284 31.4331 31.7456C31.3158 31.8628 31.25 32.0218 31.25 32.1875V33.75H30V30.625C30 29.5913 30.8412 28.75 31.875 28.75H36.875C37.9087 28.75 38.75 29.5913 38.75 30.625V33.75ZM8.38812 27.5263C9.02242 26.8379 9.37469 25.9361 9.375 25C9.375 22.9319 7.69312 21.25 5.625 21.25C3.55687 21.25 1.875 22.9319 1.875 25C1.875 25.9738 2.25125 26.8594 2.86188 27.5263C1.26375 27.6625 0 28.9919 0 30.625V34.375C0 34.5408 0.065848 34.6998 0.183058 34.817C0.300269 34.9342 0.45924 35 0.625 35H10.625C10.7908 35 10.9497 34.9342 11.0669 34.817C11.1842 34.6998 11.25 34.5408 11.25 34.375V30.625C11.25 28.9919 9.98625 27.6625 8.38812 27.5263ZM5.625 22.5C7.00375 22.5 8.125 23.6213 8.125 25C8.125 26.3788 7.00375 27.5 5.625 27.5C4.24625 27.5 3.125 26.3788 3.125 25C3.125 23.6213 4.24625 22.5 5.625 22.5ZM10 33.75H8.75V32.1875C8.75 32.0218 8.68415 31.8628 8.56694 31.7456C8.44973 31.6284 8.29076 31.5625 8.125 31.5625C7.95924 31.5625 7.80027 31.6284 7.68306 31.7456C7.56585 31.8628 7.5 32.0218 7.5 32.1875V33.75H3.75V32.1875C3.75 32.0218 3.68415 31.8628 3.56694 31.7456C3.44973 31.6284 3.29076 31.5625 3.125 31.5625C2.95924 31.5625 2.80027 31.6284 2.68306 31.7456C2.56585 31.8628 2.5 32.0218 2.5 32.1875V33.75H1.25V30.625C1.25 29.5913 2.09125 28.75 3.125 28.75H8.125C9.15875 28.75 10 29.5913 10 30.625V33.75ZM23.125 31.25H23.0556C23.4733 30.8438 23.8052 30.3579 24.0318 29.8212C24.2584 29.2844 24.3751 28.7077 24.375 28.125C24.375 25.7125 22.4119 23.75 20 23.75C17.5881 23.75 15.625 25.7125 15.625 28.125C15.625 29.3488 16.1313 30.455 16.9438 31.25H16.875C15.1519 31.25 13.75 32.6519 13.75 34.375V39.375C13.75 39.5408 13.8158 39.6998 13.9331 39.817C14.0503 39.9342 14.2092 40 14.375 40H25.625C25.7908 40 25.9497 39.9342 26.0669 39.817C26.1842 39.6998 26.25 39.5408 26.25 39.375V34.375C26.25 32.6519 24.8481 31.25 23.125 31.25ZM16.875 28.125C16.875 26.4019 18.2769 25 20 25C21.7231 25 23.125 26.4019 23.125 28.125C23.125 29.8482 21.7231 31.25 20 31.25C18.2769 31.25 16.875 29.8482 16.875 28.125ZM25 38.75H23.125V36.875C23.125 36.7093 23.0592 36.5503 22.9419 36.4331C22.8247 36.3159 22.6658 36.25 22.5 36.25C22.3342 36.25 22.1753 36.3159 22.0581 36.4331C21.9408 36.5503 21.875 36.7093 21.875 36.875V38.75H18.125V36.875C18.125 36.7093 18.0592 36.5503 17.9419 36.4331C17.8247 36.3159 17.6658 36.25 17.5 36.25C17.3342 36.25 17.1753 36.3159 17.0581 36.4331C16.9408 36.5503 16.875 36.7093 16.875 36.875V38.75H15V34.375C15 33.3413 15.8413 32.5 16.875 32.5H23.125C24.1588 32.5 25 33.3413 25 34.375V38.75ZM20 6.36255C17.9944 6.36255 16.3631 7.99442 16.3631 10C16.3631 12.0057 17.9944 13.6375 20 13.6375C22.0056 13.6375 23.6369 12.0057 23.6369 10C23.6369 7.99442 22.0056 6.36255 20 6.36255ZM20 12.3875C18.6838 12.3875 17.6131 11.3169 17.6131 10C17.6131 8.68317 18.6838 7.61255 20 7.61255C21.3162 7.61255 22.3869 8.68317 22.3869 10C22.3869 11.3169 21.3162 12.3875 20 12.3875Z" fill="#384BFF"/>
<path d="M26.857 8.04435L25.7139 7.8331C25.6705 7.71803 25.6234 7.60443 25.5726 7.49248L26.232 6.53498C26.3764 6.32435 26.3782 6.04623 26.2364 5.8331C25.6899 5.01367 24.9869 4.31039 24.1676 3.76373C24.0637 3.69409 23.9413 3.65732 23.8162 3.65822C23.6911 3.65911 23.5692 3.69761 23.4664 3.76873L22.5089 4.42748C22.3967 4.37703 22.2832 4.32992 22.1682 4.28623L21.9564 3.14373C21.9336 3.02078 21.8746 2.90747 21.7868 2.81844C21.699 2.72942 21.5865 2.66878 21.4639 2.64435C20.4976 2.45123 19.5026 2.45123 18.5364 2.64435C18.4137 2.66878 18.3013 2.72942 18.2135 2.81844C18.1257 2.90747 18.0666 3.02078 18.0439 3.14373L17.8326 4.28623C17.7176 4.32998 17.6045 4.37748 17.492 4.42748L16.5345 3.76873C16.4315 3.69786 16.3096 3.6595 16.1846 3.65861C16.0596 3.65772 15.9372 3.69433 15.8332 3.76373C15.0135 4.31002 14.3102 5.01336 13.7639 5.8331C13.6942 5.93709 13.6574 6.05957 13.6582 6.18471C13.659 6.30985 13.6973 6.43187 13.7682 6.53498L14.4276 7.49248C14.377 7.60498 14.3301 7.7181 14.2864 7.8331L13.1432 8.04435C13.0202 8.06712 12.9068 8.12629 12.8178 8.2142C12.7288 8.30212 12.6682 8.41474 12.6439 8.53748C12.4507 9.50333 12.4507 10.4979 12.6439 11.4637C12.6932 11.7144 12.892 11.91 13.1432 11.9569L14.2864 12.1681C14.3295 12.2831 14.3764 12.3969 14.4276 12.5087L13.7682 13.4662C13.6976 13.5695 13.6595 13.6914 13.6587 13.8165C13.658 13.9416 13.6946 14.064 13.7639 14.1681C14.3103 14.9877 15.0136 15.691 15.8332 16.2375C15.9372 16.307 16.0596 16.3437 16.1846 16.3429C16.3097 16.342 16.4316 16.3035 16.5345 16.2325L17.492 15.5737C17.6045 15.6244 17.7176 15.6712 17.8326 15.715L18.0439 16.8575C18.0666 16.9804 18.1257 17.0937 18.2135 17.1828C18.3013 17.2718 18.4137 17.3324 18.5364 17.3569C19.5028 17.5486 20.4974 17.5486 21.4639 17.3569C21.5865 17.3324 21.699 17.2718 21.7868 17.1828C21.8746 17.0937 21.9336 16.9804 21.9564 16.8575L22.1676 15.715C22.2826 15.6712 22.3957 15.6237 22.5082 15.5737L23.4657 16.2325C23.5687 16.3033 23.6906 16.3417 23.8156 16.3426C23.9406 16.3435 24.063 16.3069 24.167 16.2375C24.9867 15.6913 25.6898 14.988 26.2357 14.1681C26.3054 14.0641 26.3422 13.9416 26.3414 13.8165C26.3406 13.6914 26.3023 13.5693 26.2314 13.4662L25.572 12.5087C25.6226 12.3962 25.6695 12.2831 25.7132 12.1681L26.8564 11.9569C26.9794 11.9341 27.0928 11.8749 27.1818 11.787C27.2708 11.6991 27.3314 11.5865 27.3557 11.4637C27.5489 10.4979 27.5489 9.50333 27.3557 8.53748C27.3316 8.41475 27.2712 8.30211 27.1822 8.21417C27.0933 8.12624 26.98 8.06707 26.857 8.04435ZM26.1982 10.8062L25.1282 11.0037C25.0161 11.0245 24.9118 11.0755 24.8267 11.1513C24.7415 11.2271 24.6787 11.3248 24.6451 11.4337C24.5559 11.7227 24.4397 12.0027 24.2982 12.27C24.1901 12.4756 24.2045 12.7244 24.3357 12.9162L24.9526 13.8125C24.6239 14.2407 24.2404 14.624 23.812 14.9525L22.9151 14.3362C22.8213 14.2715 22.7115 14.2337 22.5976 14.2269C22.4838 14.2202 22.3703 14.2448 22.2695 14.2981C22.0022 14.439 21.7225 14.5549 21.4339 14.6444C21.3249 14.6781 21.2272 14.741 21.1514 14.8262C21.0756 14.9115 21.0246 15.0159 21.0039 15.1281L20.807 16.1975C20.2713 16.2675 19.7289 16.2675 19.1932 16.1975L18.9964 15.1281C18.9756 15.0158 18.9245 14.9114 18.8486 14.8261C18.7727 14.7408 18.6749 14.678 18.5657 14.6444C18.2771 14.5549 17.9974 14.439 17.7301 14.2981C17.6293 14.2448 17.5158 14.2202 17.402 14.2269C17.2881 14.2337 17.1783 14.2715 17.0845 14.3362L16.1876 14.9525C15.7592 14.624 15.3757 14.2407 15.047 13.8125L15.6639 12.9162C15.7957 12.7244 15.8095 12.4756 15.702 12.27C15.5605 12.0027 15.4444 11.7227 15.3551 11.4337C15.3215 11.3248 15.2587 11.2271 15.1736 11.1513C15.0884 11.0755 14.9841 11.0245 14.872 11.0037L13.802 10.8062C13.732 10.271 13.732 9.72895 13.802 9.19373L14.872 8.99623C14.9841 8.97549 15.0884 8.92446 15.1736 8.84866C15.2587 8.77286 15.3215 8.67518 15.3551 8.56623C15.4441 8.27716 15.5602 7.99716 15.702 7.72998C15.8101 7.52435 15.7957 7.2756 15.6639 7.08373L15.047 6.18748C15.3757 5.75925 15.7592 5.37598 16.1876 5.04748L17.0845 5.66373C17.2764 5.7956 17.5245 5.80935 17.7301 5.70185C17.9974 5.56094 18.2771 5.44503 18.5657 5.3556C18.7876 5.28685 18.9539 5.1006 18.9964 4.87185L19.1932 3.80248C19.7289 3.73248 20.2713 3.73248 20.807 3.80248L21.0039 4.87185C21.0246 4.98405 21.0756 5.08845 21.1514 5.17372C21.2272 5.259 21.3249 5.3219 21.4339 5.3556C21.722 5.44498 22.0032 5.56123 22.2695 5.70185C22.3702 5.75546 22.4838 5.78026 22.5977 5.77354C22.7116 5.76681 22.8214 5.72881 22.9151 5.66373L23.8126 5.04748C24.241 5.37598 24.6245 5.75925 24.9532 6.18748L24.3364 7.08373C24.2718 7.17781 24.2342 7.28774 24.2276 7.40163C24.221 7.51552 24.2457 7.62906 24.2989 7.72998C24.4395 7.99623 24.5564 8.27748 24.6457 8.56623C24.7139 8.7881 24.9001 8.95373 25.1289 8.99623L26.1989 9.19373C26.2683 9.729 26.2681 10.271 26.1982 10.8062Z" fill="#384BFF"/>
<path d="M29.0212 22.4381C29.2369 22.3344 29.375 22.115 29.375 21.875V20H30.625C31.3137 20 31.875 19.4394 31.875 18.75V1.25C31.875 0.560625 31.3137 0 30.625 0H9.375C8.68562 0 8.125 0.560625 8.125 1.25V18.75C8.125 19.4394 8.68562 20 9.375 20H10.625V21.875C10.6253 21.9926 10.6588 22.1078 10.7216 22.2072C10.7843 22.3067 10.8739 22.3864 10.9799 22.4373C11.0859 22.4882 11.2042 22.5082 11.321 22.495C11.4379 22.4817 11.5487 22.4358 11.6406 22.3625L14.5944 20H17.8125L19.5 22.25C19.7356 22.565 20.2644 22.565 20.5 22.25L22.1875 20H25.4056L28.3594 22.3631C28.4515 22.4365 28.5625 22.4824 28.6795 22.4957C28.7966 22.509 28.915 22.489 29.0212 22.4381ZM28.125 19.375V20.5744L26.0156 18.8869C25.9047 18.7983 25.767 18.75 25.625 18.75H21.875C21.778 18.75 21.6823 18.7726 21.5955 18.816C21.5087 18.8594 21.4332 18.9224 21.375 19L20 20.8331L18.625 19C18.5668 18.9224 18.4913 18.8594 18.4045 18.816C18.3177 18.7726 18.222 18.75 18.125 18.75H14.375C14.233 18.7499 14.0953 18.7982 13.9844 18.8869L11.875 20.5744V19.375C11.875 19.2092 11.8092 19.0503 11.6919 18.9331C11.5747 18.8158 11.4158 18.75 11.25 18.75H9.375V1.25H30.625V18.75H28.75C28.5842 18.75 28.4253 18.8158 28.3081 18.9331C28.1908 19.0503 28.125 19.2092 28.125 19.375Z" fill="#384BFF"/>
</g>
<defs>
<clipPath id="clip0_2692_849">
<rect width="40" height="40" fill="white"/>
</clipPath>
</defs>
</svg>
