<svg width="40" height="40" viewBox="0 0 40 40" fill="none" xmlns="http://www.w3.org/2000/svg">
<g clip-path="url(#clip0_2692_857)">
<path d="M39.2571 21.6406L33.6782 11.9797C33.5612 11.7774 33.3687 11.6298 33.143 11.5693C32.9172 11.5088 32.6767 11.5404 32.4743 11.6571L30.5211 12.786V5.28987C30.5211 5.28127 30.5211 5.2719 30.5172 5.26252L30.5125 5.23127C30.5125 5.22034 30.5071 5.2094 30.5047 5.19846L30.4985 5.17346L30.4868 5.14065C30.4868 5.13284 30.4813 5.12502 30.4789 5.11799L30.4649 5.08596C30.461 5.07893 30.4578 5.07112 30.4539 5.06409L30.4375 5.03518C30.4328 5.02737 30.4289 5.01956 30.4235 5.01174L30.4063 4.98674L30.3891 4.96331L30.3696 4.94065L30.3586 4.92737L26.5758 0.826587L26.5672 0.817993L26.5422 0.792993L26.5219 0.775024C26.5125 0.767212 26.5032 0.759399 26.493 0.752368C26.4866 0.746985 26.4798 0.742027 26.4727 0.737524L26.4383 0.714868L26.4211 0.703149L26.3789 0.682056L26.3649 0.675024C26.3485 0.667993 26.3313 0.661743 26.3133 0.655493H26.3063C26.2875 0.649243 26.268 0.644556 26.2477 0.639868C26.2274 0.635701 26.2071 0.632576 26.1868 0.630493H10.6352C10.3293 0.630907 10.036 0.752611 9.81971 0.968921C9.6034 1.18523 9.4817 1.47849 9.48128 1.7844V14.0696L7.52816 12.9406C7.32556 12.8239 7.08494 12.7924 6.85909 12.8529C6.63324 12.9133 6.44061 13.061 6.32347 13.2633L0.743003 22.9258C0.626541 23.1283 0.595105 23.3688 0.655584 23.5944C0.716063 23.8201 0.863524 24.0126 1.06566 24.1297L5.62503 26.7641C6.34173 27.3945 6.96282 28.1258 7.46878 28.9352L5.93753 31.5946C5.68439 32.0326 5.57769 32.54 5.63297 33.0429C5.68825 33.5458 5.90262 34.0179 6.24487 34.3905C6.58712 34.7631 7.03938 35.0167 7.53578 35.1144C8.03219 35.2121 8.54681 35.1487 9.00472 34.9336C9.11441 35.2476 9.2887 35.5351 9.51635 35.7776C9.744 36.0201 10.02 36.2122 10.3264 36.3414C10.6329 36.4707 10.963 36.5343 11.2955 36.5281C11.6281 36.5219 11.9556 36.4461 12.2571 36.3055C12.4535 36.873 12.8578 37.3449 13.3885 37.626C13.9191 37.9071 14.5366 37.9766 15.1164 37.8203C15.3642 37.754 15.5997 37.6485 15.8141 37.5078C16.0027 37.9211 16.306 38.2715 16.688 38.5173C17.07 38.7632 17.5145 38.8941 17.9688 38.8946C18.3708 38.8949 18.7663 38.7933 19.1184 38.5993C19.4704 38.4053 19.7676 38.1252 19.9821 37.7852L22.118 39.018C22.5761 39.2831 23.1026 39.4062 23.6308 39.3718C24.1589 39.3373 24.665 39.1469 25.0848 38.8246C25.5046 38.5024 25.8194 38.0627 25.9891 37.5614C26.1589 37.0601 26.176 36.5197 26.0383 36.0086C26.018 35.9305 25.9938 35.8524 25.9672 35.7821C26.0448 35.768 26.123 35.7508 26.2016 35.7305C26.541 35.6402 26.8593 35.4838 27.1382 35.2702C27.417 35.0566 27.6509 34.7901 27.8265 34.4859C28.0021 34.1817 28.1159 33.8458 28.1614 33.4975C28.2068 33.1492 28.1831 32.7954 28.0914 32.4563C28.0711 32.3781 28.0477 32.3039 28.0211 32.2305C28.4067 32.1636 28.7728 32.0128 29.0936 31.7888C29.4145 31.5648 29.6822 31.2731 29.8779 30.9342C30.0736 30.5954 30.1925 30.2177 30.2261 29.8278C30.2598 29.438 30.2074 29.0455 30.0727 28.6781C30.4582 28.6111 30.8242 28.4602 31.145 28.2361C31.4657 28.012 31.7334 27.7202 31.9289 27.3813C31.9973 27.2627 32.0566 27.1392 32.1063 27.0117C32.4922 26.8242 32.8485 26.5071 33.1961 26.1969C33.4383 25.9797 33.8446 25.6172 34.0024 25.5914C34.1166 25.5946 34.2294 25.5659 34.3282 25.5086L38.9375 22.8461C39.1394 22.7283 39.2864 22.5353 39.3463 22.3094C39.4061 22.0834 39.3741 21.843 39.2571 21.6406ZM26.7414 2.85081L28.468 4.72581H26.7414V2.85081ZM10.7313 1.87502H25.4914V5.35081C25.4914 5.51657 25.5573 5.67554 25.6745 5.79275C25.7917 5.90996 25.9507 5.97581 26.1164 5.97581H29.2688V13.5078L28.0188 14.2281C25.5868 14.1281 21.9711 14.5172 19.5633 15.6258C19.423 15.6916 19.2768 15.7439 19.1266 15.7821C19.0547 15.8024 18.975 15.8258 18.875 15.8602C18.5786 15.9541 18.3004 16.0978 18.0524 16.2852C18.0271 16.273 18.001 16.2626 17.9743 16.2539C16.4391 15.7274 14.1672 15.1789 11.9414 15.493L10.7258 14.7899L10.7313 1.87502ZM5.76097 25.3977L2.01097 23.2313L7.21957 14.2071L10.9696 16.3735L5.76097 25.3977ZM9.18519 32.9688L8.96722 33.3453C8.89325 33.4736 8.79474 33.586 8.67733 33.6762C8.55991 33.7663 8.42588 33.8325 8.28289 33.8709C8.1399 33.9093 7.99076 33.9191 7.84397 33.8998C7.69718 33.8806 7.55562 33.8326 7.42738 33.7586C7.29913 33.6846 7.18672 33.5861 7.09654 33.4687C7.00637 33.3513 6.9402 33.2173 6.90182 33.0743C6.86345 32.9313 6.85361 32.7822 6.87287 32.6354C6.89214 32.4886 6.94013 32.347 7.0141 32.2188L9.27113 28.3125C9.3451 28.1843 9.44361 28.0719 9.56102 27.9817C9.67844 27.8915 9.81247 27.8253 9.95546 27.787C10.0984 27.7486 10.2476 27.7388 10.3944 27.758C10.5412 27.7773 10.6827 27.8253 10.811 27.8992C10.9392 27.9732 11.0516 28.0717 11.1418 28.1891C11.232 28.3066 11.2981 28.4406 11.3365 28.5836C11.3749 28.7266 11.3847 28.8757 11.3655 29.0225C11.3462 29.1693 11.2982 29.3108 11.2243 29.4391L9.18675 32.9688H9.18519ZM12.4383 34.3391L12.2203 34.7172C12.07 34.9749 11.8239 35.1628 11.5357 35.2401C11.2475 35.3173 10.9404 35.2777 10.6813 35.1297C10.4229 34.9799 10.2345 34.7338 10.1572 34.4454C10.0799 34.1569 10.12 33.8496 10.2688 33.5906L12.3071 30.0617C12.4565 29.8027 12.7026 29.6137 12.9914 29.5362C13.2802 29.4587 13.5879 29.4991 13.8469 29.6485C14.1059 29.7979 14.295 30.044 14.3725 30.3328C14.45 30.6216 14.4096 30.9293 14.2602 31.1883L12.4422 34.3375L12.4383 34.3391ZM15.4735 36.0938C15.3241 36.3528 15.0779 36.5418 14.7891 36.6193C14.5004 36.6968 14.1926 36.6564 13.9336 36.5071C13.6746 36.3577 13.4856 36.1115 13.4081 35.8227C13.3306 35.534 13.371 35.2262 13.5203 34.9672L15.3391 31.818C15.4881 31.559 15.7338 31.3698 16.0223 31.292C16.3108 31.2142 16.6184 31.2542 16.8774 31.4031C17.1364 31.5521 17.3256 31.7979 17.4034 32.0864C17.4812 32.3749 17.4412 32.6824 17.2922 32.9414L15.9125 35.3313L15.4735 36.0938ZM17.4063 37.5C17.1488 37.3498 16.9611 37.104 16.8838 36.8161C16.8066 36.5282 16.8461 36.2215 16.9938 35.9625L18.3735 33.5727C18.4474 33.4444 18.5459 33.332 18.6634 33.2418C18.7808 33.1517 18.9148 33.0855 19.0578 33.0471C19.2008 33.0088 19.3499 32.9989 19.4967 33.0182C19.6435 33.0374 19.7851 33.0854 19.9133 33.1594C20.0416 33.2334 20.154 33.3319 20.2442 33.4493C20.3343 33.5667 20.4005 33.7007 20.4389 33.8437C20.4772 33.9867 20.4871 34.1359 20.4678 34.2826C20.4486 34.4294 20.4006 34.571 20.3266 34.6992L19.2141 36.6266L18.9485 37.0875C18.7978 37.3458 18.5507 37.5337 18.2615 37.6099C17.9723 37.6861 17.6647 37.6443 17.4063 37.4938V37.5ZM24.6875 37.4219C24.4983 37.7492 24.1869 37.988 23.8218 38.086C23.4567 38.184 23.0676 38.1331 22.7399 37.9446L20.6071 36.7125L21.4063 35.3172C21.6272 34.9343 21.7368 34.4973 21.7227 34.0555L24.1641 35.4617C24.492 35.6515 24.7312 35.9634 24.8293 36.3293C24.9274 36.6952 24.8764 37.085 24.6875 37.4133V37.4219ZM30.8407 26.7649C30.6513 27.092 30.3399 27.3307 29.9747 27.4286C29.6096 27.5264 29.2206 27.4754 28.893 27.2867L23.711 24.2953C23.6398 24.2517 23.5607 24.2228 23.4781 24.2102C23.3956 24.1977 23.3114 24.2018 23.2305 24.2223C23.1496 24.2428 23.0737 24.2793 23.0071 24.3297C22.9406 24.3801 22.8848 24.4432 22.843 24.5155C22.8013 24.5878 22.7744 24.6677 22.7641 24.7505C22.7537 24.8333 22.76 24.9174 22.7827 24.9977C22.8053 25.078 22.8438 25.153 22.8959 25.2182C22.948 25.2834 23.0126 25.3375 23.086 25.3774L28.268 28.3594C28.5875 28.5524 28.8186 28.863 28.9117 29.2246C29.0049 29.5861 28.9526 29.9697 28.7661 30.293C28.5796 30.6164 28.2738 30.8538 27.9142 30.9543C27.5547 31.0548 27.1701 31.0103 26.843 30.8305L22.8633 28.5328C22.7922 28.4918 22.7137 28.4652 22.6323 28.4545C22.5509 28.4438 22.4682 28.4492 22.389 28.4704C22.3097 28.4917 22.2353 28.5284 22.1702 28.5783C22.1051 28.6283 22.0504 28.6906 22.0094 28.7617C21.9684 28.8328 21.9417 28.9113 21.931 28.9927C21.9203 29.0741 21.9258 29.1568 21.947 29.2361C21.9683 29.3154 22.0049 29.3897 22.0549 29.4548C22.1049 29.52 22.1672 29.5746 22.2383 29.6156L26.2125 31.9102C26.54 32.0994 26.7789 32.4109 26.8767 32.7762C26.9745 33.1415 26.9232 33.5307 26.734 33.8582C26.5448 34.1857 26.2333 34.4246 25.868 34.5224C25.5027 34.6202 25.1135 34.5689 24.786 34.3797L22.1149 32.8375C22.0008 32.7725 21.8691 32.745 21.7386 32.7591C21.608 32.7731 21.4852 32.8279 21.3875 32.9156C21.1239 32.4698 20.7213 32.1228 20.2416 31.9276C19.7618 31.7325 19.2313 31.7 18.7313 31.8352L18.6305 31.8641C18.6227 31.8305 18.6149 31.7961 18.6055 31.7625C18.5254 31.4616 18.3868 31.1794 18.1975 30.932C18.0082 30.6847 17.7721 30.4771 17.5025 30.3212C17.2329 30.1653 16.9352 30.064 16.6265 30.0232C16.3177 29.9825 16.004 30.003 15.7032 30.0836C15.6688 30.093 15.636 30.1024 15.6024 30.1133C15.5946 30.0789 15.5868 30.0453 15.5774 30.011C15.4971 29.7095 15.3582 29.4269 15.1685 29.1792C14.9788 28.9316 14.7421 28.7238 14.472 28.5679C14.2019 28.4119 13.9036 28.3108 13.5943 28.2703C13.285 28.2298 12.9707 28.2508 12.6696 28.3321L12.5696 28.361C12.4657 27.8941 12.2234 27.4694 11.8743 27.1424C11.5251 26.8155 11.0854 26.6016 10.6127 26.5287C10.14 26.4557 9.65625 26.5272 9.2248 26.7337C8.79336 26.9402 8.43429 27.2721 8.19457 27.686L8.168 27.7313C7.76002 27.1536 7.29804 26.616 6.78832 26.1258L12.2157 16.7188C14.0125 16.4844 15.8711 16.8891 17.2336 17.3242C17.1768 17.4522 17.1301 17.5843 17.0938 17.7196L16.2344 20.9399C16.2133 21.018 16.193 21.0891 16.1743 21.1586C16.0446 21.6203 15.9321 22.018 16.0344 22.6742C16.1266 23.2785 16.3448 23.8567 16.675 24.3711C16.8797 24.6735 17.2102 25.0742 17.7141 25.0797H17.7235C18.2563 25.0797 18.561 24.6492 18.8055 24.3024C18.8328 24.2633 18.861 24.2242 18.8899 24.1844C19.4084 23.4523 19.8897 22.6946 20.3321 21.9141C20.7735 21.1586 21.2305 20.3766 21.5196 20.3071L22.2313 20.1375L30.3219 24.8086C30.6485 24.9985 30.8866 25.3101 30.9838 25.6752C31.081 26.0403 31.0296 26.4291 30.8407 26.7563V26.7649ZM32.2024 25.411C32.1166 25.061 31.9609 24.7321 31.7446 24.4439C31.5283 24.1558 31.2559 23.9144 30.9438 23.7344L22.6375 18.9297C22.499 18.8498 22.3352 18.8261 22.1797 18.8633L21.2258 19.0907C20.4172 19.2836 19.9274 20.1227 19.2493 21.2828C18.8277 22.0286 18.3685 22.7525 17.8735 23.4516C17.8422 23.4946 17.8118 23.5375 17.7821 23.5797L17.7125 23.6781L17.7063 23.6688C17.4803 23.307 17.3306 22.9029 17.2664 22.4813C17.2063 22.0946 17.2664 21.8946 17.3743 21.4953C17.3946 21.4219 17.4164 21.3453 17.4383 21.261L18.2977 18.0414C18.3519 17.8377 18.4509 17.6488 18.5875 17.4883C18.6 17.4758 18.611 17.4625 18.6227 17.4492C18.7924 17.2639 19.008 17.1264 19.2477 17.0508C19.3344 17.0235 19.4039 17.0031 19.4672 16.9852C19.6782 16.9286 19.8837 16.8533 20.0813 16.7602C22.3844 15.7031 25.825 15.4156 27.8055 15.4688L33.1078 24.6524C32.8439 24.8377 32.5933 25.0413 32.3578 25.2617C32.3078 25.3125 32.2555 25.3555 32.2024 25.4024V25.411ZM34.2407 24.1141L29.0289 15.0899L32.7789 12.9235L37.9891 21.9477L34.2407 24.1141ZM16.3618 12.2391C16.5275 12.2391 16.6865 12.1732 16.8037 12.056C16.9209 11.9388 16.9868 11.7798 16.9868 11.6141V7.42659C16.9868 7.26083 16.9209 7.10186 16.8037 6.98464C16.6865 6.86743 16.5275 6.80159 16.3618 6.80159H12.1711C12.0054 6.80159 11.8464 6.86743 11.7292 6.98464C11.612 7.10186 11.5461 7.26083 11.5461 7.42659V11.6156C11.5461 11.7814 11.612 11.9404 11.7292 12.0576C11.8464 12.1748 12.0054 12.2406 12.1711 12.2406L16.3618 12.2391ZM12.7977 8.05002H15.7368V10.9891H12.7961L12.7977 8.05002ZM15.461 9.38518L14.5094 10.4766C14.453 10.5411 14.384 10.5933 14.3066 10.63C14.2292 10.6667 14.145 10.6871 14.0594 10.6899H14.0383C13.9559 10.6903 13.8742 10.6745 13.7979 10.6433C13.7216 10.612 13.6522 10.566 13.5938 10.5078L13.0993 10.0133C13.0412 9.95518 12.9951 9.8862 12.9637 9.81028C12.9323 9.73436 12.9162 9.653 12.9162 9.57084C12.9162 9.48868 12.9325 9.40734 12.9639 9.33145C12.9954 9.25556 13.0415 9.18661 13.0996 9.12854C13.1578 9.07047 13.2268 9.02442 13.3027 8.99301C13.3786 8.96161 13.4599 8.94546 13.5421 8.94549C13.6243 8.94553 13.7056 8.96175 13.7815 8.99322C13.8574 9.0247 13.9263 9.07081 13.9844 9.12893L14.0063 9.15081L14.5164 8.56565C14.5698 8.50196 14.6353 8.44955 14.7092 8.41148C14.7831 8.37342 14.8638 8.35047 14.9466 8.34397C15.0295 8.33747 15.1128 8.34756 15.1917 8.37364C15.2706 8.39973 15.3435 8.44128 15.4061 8.49587C15.4688 8.55047 15.5199 8.61701 15.5565 8.6916C15.5931 8.76619 15.6145 8.84733 15.6194 8.93029C15.6243 9.01324 15.6126 9.09633 15.585 9.17471C15.5574 9.25308 15.5144 9.32517 15.4586 9.38674L15.461 9.38518ZM18.8071 11.8602C18.8071 11.6944 18.8729 11.5354 18.9901 11.4182C19.1073 11.301 19.2663 11.2352 19.4321 11.2352H27.8305C27.9963 11.2352 28.1552 11.301 28.2724 11.4182C28.3897 11.5354 28.4555 11.6944 28.4555 11.8602C28.4555 12.0259 28.3897 12.1849 28.2724 12.3021C28.1552 12.4193 27.9963 12.4852 27.8305 12.4852H19.4305C19.265 12.4852 19.1063 12.4195 18.9891 12.3027C18.8719 12.1858 18.8059 12.0272 18.8055 11.8617L18.8071 11.8602ZM18.8071 7.42502C18.8071 7.25926 18.8729 7.10029 18.9901 6.98308C19.1073 6.86587 19.2663 6.80002 19.4321 6.80002H23.3321C23.4978 6.80002 23.6568 6.86587 23.774 6.98308C23.8912 7.10029 23.9571 7.25926 23.9571 7.42502C23.9571 7.59079 23.8912 7.74976 23.774 7.86697C23.6568 7.98418 23.4978 8.05002 23.3321 8.05002H19.4305C19.265 8.05002 19.1063 7.98439 18.9891 7.86752C18.8719 7.75065 18.8059 7.59208 18.8055 7.42659L18.8071 7.42502ZM18.8071 9.64221C18.8071 9.47645 18.8729 9.31748 18.9901 9.20027C19.1073 9.08306 19.2663 9.01721 19.4321 9.01721H24.9789C25.1447 9.01721 25.3037 9.08306 25.4209 9.20027C25.5381 9.31748 25.6039 9.47645 25.6039 9.64221C25.6039 9.80797 25.5381 9.96694 25.4209 10.0842C25.3037 10.2014 25.1447 10.2672 24.9789 10.2672H19.4321C19.35 10.2674 19.2687 10.2515 19.1928 10.2202C19.1169 10.189 19.0478 10.1432 18.9897 10.0853C18.9315 10.0274 18.8853 9.95858 18.8537 9.88283C18.8221 9.80708 18.8057 9.72585 18.8055 9.64377L18.8071 9.64221Z" fill="#384BFF"/>
</g>
<defs>
<clipPath id="clip0_2692_857">
<rect width="40" height="40" fill="white"/>
</clipPath>
</defs>
</svg>
