<svg width="40" height="40" viewBox="0 0 40 40" fill="none" xmlns="http://www.w3.org/2000/svg">
<g clip-path="url(#clip0_2813_2898)">
<path d="M1.53863 8.31055C1.45914 7.40948 1.51165 6.50163 1.69452 5.61574C1.93919 4.51233 2.41963 3.59634 3.12223 2.894C4.10673 1.90874 5.49127 1.36874 7.23203 1.28878C8.07522 1.25713 8.91939 1.31468 9.75049 1.46047L9.97181 0.201876C9.05008 0.0401511 8.11381 -0.0234234 7.17868 0.0122175C5.10427 0.107974 3.43541 0.773346 2.2191 1.99068C1.34053 2.86893 0.74386 3.99683 0.446292 5.3444C0.44578 5.34689 0.445012 5.34964 0.444501 5.35208C0.235308 6.36142 0.175202 7.39597 0.2661 8.42275L1.53863 8.31055ZM4.34065 16.6588C3.95583 15.9567 3.603 15.2511 3.29168 14.561L2.12705 15.0864C2.45187 15.8062 2.81968 16.5421 3.22048 17.273L4.34065 16.6588ZM0.637549 10.7792C0.797752 11.4638 0.992413 12.1398 1.22079 12.8047L2.42987 12.3916C2.21539 11.7677 2.0326 11.1333 1.88219 10.4909L0.637549 10.7792ZM9.32972 23.6948C9.27401 23.6311 9.21849 23.5678 9.16328 23.5042L8.19906 24.342C8.25555 24.4072 8.31228 24.4724 8.36973 24.5376C8.69845 24.9117 9.03297 25.2807 9.37315 25.6445C9.5268 25.8085 9.68156 25.9716 9.83742 26.1335L10.7582 25.2477C10.2705 24.7408 9.79423 24.223 9.32972 23.6948ZM6.65544 22.4648L7.66386 21.6806C7.5714 21.5615 7.47961 21.4419 7.38849 21.3218C7.00369 20.8159 6.63062 20.3012 6.2696 19.7781L5.21769 20.5033C5.58991 21.0426 5.97455 21.5732 6.37131 22.0947C6.46517 22.2187 6.55986 22.342 6.65538 22.4647L6.65544 22.4648ZM10.9241 27.2274C12.131 28.4052 13.4011 29.5165 14.7287 30.5564C16.5292 31.9734 18.451 33.229 20.472 34.3086C21.6524 34.9369 22.8756 35.4812 24.1325 35.9375L22.9656 36.2716L23.317 37.4999L26.5837 36.5652C26.9227 36.4682 27.1189 36.1144 27.0219 35.7751L26.1707 32.7997L24.9422 33.151L25.4833 35.0412C23.9582 34.5586 22.4812 33.9356 21.0712 33.1802C19.1171 32.1363 17.2588 30.922 15.518 29.5516C14.2263 28.5401 12.9906 27.4591 11.8162 26.3134L10.9241 27.2274ZM37.0974 27.4363C36.8364 25.8066 36.2975 24.0536 35.4952 22.2258L34.3253 22.7393C35.0839 24.4677 35.5919 26.1162 35.8355 27.6379C36.2927 30.4949 35.7905 32.7485 34.3835 34.156C33.6866 34.8528 32.7804 35.3306 31.6897 35.5765C30.8079 35.7748 29.8082 35.8221 28.7175 35.7176C28.4487 35.6918 28.1713 35.6562 27.893 35.6121L27.6936 36.874C27.997 36.922 28.3005 36.9607 28.5956 36.9891C29.0111 37.0289 29.4159 37.0489 29.8099 37.0489C30.5363 37.0532 31.2609 36.9773 31.9706 36.8225C33.3009 36.5224 34.4165 35.9292 35.2868 35.059C36.9956 33.3501 37.6216 30.7145 37.0973 27.4363H37.0974ZM34.0002 19.2674L32.8903 19.9001C33.1929 20.4305 33.4805 20.9693 33.7526 21.516L34.8969 20.948C34.6144 20.3793 34.3153 19.8188 34.0002 19.2674ZM31.0348 14.8266L30.0199 15.6026C30.4977 16.2278 30.9586 16.8658 31.4019 17.5159L32.4578 16.7965C32.0013 16.1272 31.5268 15.4703 31.0348 14.8266ZM27.8765 11.1343L26.9527 12.0163C27.496 12.5856 28.0237 13.1696 28.5352 13.7676L29.5062 12.9373C28.9793 12.3217 28.4359 11.7205 27.8765 11.1343ZM12.0455 4.49506L13.2948 4.22801L12.8823 2.29829C14.0548 2.7142 15.1954 3.21493 16.2952 3.79649C18.224 4.81474 20.0599 5.99997 21.7818 7.33859C22.5936 7.96501 23.4114 8.64484 24.2122 9.35876C24.864 9.94108 25.4994 10.5416 26.1175 11.1595L27.0207 10.2563C26.825 10.0606 26.6276 9.86656 26.4285 9.6743C25.9817 9.24247 25.5265 8.81936 25.0632 8.40522C24.2397 7.67141 23.3984 6.97201 22.5646 6.32864C21.7526 5.69717 20.9117 5.09903 20.0492 4.5328C20.5305 4.26099 21.0187 4.00171 21.5134 3.75524L20.945 2.61108C20.3718 2.89547 19.7866 3.20878 19.2059 3.54159L19.6117 4.24969C18.7268 3.68593 17.8196 3.15787 16.8924 2.66679C16.0668 2.23096 15.2192 1.83815 14.353 1.48995L15.4787 1.24957L15.2123 0L11.8899 0.710147C11.8078 0.727653 11.7301 0.761149 11.661 0.808722C11.5919 0.856295 11.5328 0.917014 11.4872 0.987409C11.4416 1.0578 11.4103 1.1365 11.3951 1.21899C11.3799 1.30149 11.3811 1.38617 11.3986 1.4682L12.0455 4.49506ZM0.199064 27.5362C0.0373123 28.458 -0.026156 29.3943 0.00972568 30.3295C0.104907 32.4036 0.770278 34.0722 1.98787 35.2894C2.86611 36.1679 3.99479 36.764 5.34159 37.0614C5.34415 37.0616 5.34683 37.0624 5.34984 37.0629C6.05432 37.2091 6.77192 37.2828 7.49141 37.2827C7.80101 37.2827 8.1106 37.2693 8.41994 37.2421L8.30774 35.9689C7.40667 36.0489 6.49874 35.9963 5.61293 35.8128C4.50927 35.5689 3.59353 35.089 2.89119 34.3861C1.90618 33.4011 1.36599 32.0163 1.28603 30.276C1.25413 29.4327 1.31166 28.5884 1.45765 27.7572L0.199064 27.5362ZM15.0836 35.3808C15.8039 35.0562 16.5396 34.6879 17.2699 34.2876L16.6563 33.1675C15.9544 33.552 15.2485 33.905 14.5582 34.2162L15.0836 35.3808ZM10.7764 36.8705C11.461 36.7104 12.137 36.5157 12.8018 36.2873L12.3888 35.078C11.7649 35.2925 11.1305 35.4754 10.4881 35.6259L10.7764 36.8705ZM23.5016 28.3443L24.3389 29.3093C24.4045 29.2526 24.4699 29.1956 24.5351 29.1384C24.909 28.8094 25.278 28.4749 25.6419 28.1349C25.8061 27.9812 25.9692 27.8264 26.1312 27.6704L25.2452 26.75C25.0877 26.9018 24.9289 27.0524 24.7689 27.2017C24.415 27.5328 24.0559 27.8583 23.6918 28.1782C23.6286 28.2338 23.5653 28.2894 23.5016 28.3443Z" fill="#384BFF"/>
<path d="M19.7755 31.2378L20.5006 32.2899C21.04 31.9179 21.5707 31.5334 22.0922 31.1366C22.216 31.0426 22.3393 30.9478 22.462 30.8524L21.678 29.8435C21.0574 30.3265 20.423 30.7915 19.7755 31.2378H19.7755ZM27.6352 1.67206C30.492 1.21534 32.7458 1.71734 34.1533 3.12459C34.8496 3.82092 35.3277 4.72744 35.5738 5.81812C35.7719 6.70021 35.8197 7.70012 35.7147 8.79054C35.6892 9.05888 35.6539 9.33598 35.6095 9.61487L36.8713 9.81444C36.9193 9.51016 36.958 9.20658 36.9865 8.91246C37.104 7.68739 37.048 6.552 36.8198 5.5375C36.52 4.20721 35.9269 3.09107 35.0566 2.22082C33.3475 0.511973 30.7111 -0.114188 27.4336 0.410523C25.8047 0.67112 24.0512 1.21035 22.2232 2.01242L22.7366 3.18254C24.465 2.42391 26.1131 1.9157 27.6352 1.67212V1.67206ZM13.7645 8.97265L12.9339 8.00197C12.3186 8.52877 11.7174 9.07193 11.1311 9.63086L12.0134 10.5551C12.5827 10.0119 13.1666 9.48421 13.7645 8.97265ZM17.5135 6.10616L16.7936 5.05028C16.1244 5.50689 15.4676 5.98139 14.8239 6.47326L15.6 7.4882C16.225 7.01014 16.8631 6.54931 17.5134 6.10622L17.5135 6.10616ZM36.5625 10.9247C36.4655 10.5853 36.1117 10.3892 35.7726 10.4861L32.797 11.3377L33.1483 12.566L35.0388 12.025C34.5559 13.5501 33.9328 15.0271 33.1773 16.4372C32.1333 18.3913 30.9191 20.2496 29.5487 21.9904C28.537 23.282 27.4559 24.5177 26.3102 25.6919L27.2245 26.5843C28.4022 25.3773 29.5135 24.1072 30.5534 22.7796C31.9705 20.9792 33.2262 19.0573 34.3057 17.0364C34.9339 15.8559 35.4782 14.6327 35.9345 13.3758L36.2686 14.5427L37.497 14.1914L36.5625 10.9247ZM1.33184 26.1237C1.37662 26.1237 1.42159 26.119 1.46579 26.1093L4.4922 25.4626L4.22508 24.213L2.29561 24.6258C2.71137 23.4532 3.2121 22.3126 3.79382 21.2129C4.81181 19.284 5.99694 17.448 7.3356 15.7261C7.96183 14.9145 8.64172 14.0967 9.35583 13.2956C9.75858 12.8446 10.1702 12.4016 10.5904 11.9668C10.7775 11.7731 10.9664 11.5809 11.1568 11.3904L10.2536 10.4872C9.61817 11.1222 9.00085 11.7752 8.40236 12.4452C7.66771 13.2684 6.96889 14.1099 6.32571 14.9435C4.94194 16.7237 3.71675 18.6217 2.66418 20.6157C2.22788 21.4411 1.83504 22.2887 1.48728 23.1551L1.24664 22.0287L-0.00292969 22.2956L0.707218 25.618C0.737818 25.761 0.816507 25.8892 0.930169 25.9812C1.04383 26.0733 1.1856 26.1235 1.33184 26.1237ZM13.2375 13.6884V23.8225C13.2375 24.3632 13.5409 25.1245 15.079 25.6809C16.075 26.0413 17.377 26.2399 18.7598 26.2399H18.8093C19.6081 26.2399 20.4052 26.167 21.1907 26.0223C23.1821 25.6403 24.3368 24.8385 24.3368 23.8225V13.6884C24.3368 13.1474 23.9987 12.3866 22.4603 11.8296C21.4641 11.4694 20.1445 11.2707 18.76 11.2707C17.375 11.2707 16.0789 11.4694 15.0827 11.8296C13.5446 12.3864 13.2375 13.1474 13.2375 13.6884ZM20.9517 24.7667C20.229 24.9006 19.4953 24.9661 18.7603 24.9624C17.5193 24.9624 16.3776 24.7907 15.5176 24.4799C14.6763 24.1753 14.5151 23.8699 14.5151 23.8225V22.0394C14.6968 22.1356 14.8853 22.2185 15.079 22.2872C16.075 22.6478 17.3771 22.8462 18.7624 22.8462C20.1479 22.8462 21.4697 22.6478 22.4656 22.2872C22.684 22.2082 22.8197 22.1251 23.0593 22.0389V23.8222C23.0593 23.9421 22.542 24.4616 20.9517 24.7666V24.7667ZM23.0593 20.4285C23.0593 20.4765 22.8671 20.7816 22.0261 21.0862C21.1658 21.3975 20.0012 21.5687 18.7601 21.5687C17.5193 21.5687 16.3776 21.3975 15.5176 21.0862C14.6763 20.7816 14.5151 20.4762 14.5151 20.4286V18.669C14.6967 18.7654 14.8852 18.8484 15.079 18.9171C16.075 19.2777 17.3771 19.4761 18.7624 19.4761C20.1479 19.4761 21.4697 19.2777 22.4656 18.9171C22.684 18.8382 22.8197 18.7549 23.0593 18.669L23.0593 20.4285ZM22.0261 17.7157C21.1658 18.0271 20.0012 18.1982 18.7601 18.1982C17.5193 18.1982 16.3776 18.0271 15.5176 17.7157C14.6763 17.4114 14.5151 17.1061 14.5151 17.0586V15.2985C14.6969 15.3947 14.8853 15.4776 15.079 15.5467C16.0753 15.9072 17.3773 16.1056 18.7624 16.1056C20.1474 16.1056 21.4694 15.907 22.4656 15.5467C22.684 15.4675 22.8197 15.3842 23.0593 15.2985V17.0586C23.0593 17.1061 22.8671 17.4114 22.0261 17.7157ZM15.4944 13.031C16.3546 12.7194 17.5118 12.5483 18.7523 12.5483C19.9926 12.5483 21.1501 12.7194 22.0104 13.031C22.8511 13.3356 23.0283 13.6407 23.0283 13.6884C23.0283 13.7356 22.8511 14.0407 22.0104 14.3453C21.15 14.6568 19.9927 14.8281 18.7523 14.8281C17.5118 14.8281 16.3546 14.6564 15.4944 14.3453C14.653 14.0407 14.4762 13.7356 14.4762 13.6884C14.4762 13.6407 14.6533 13.3356 15.4946 13.031H15.4944Z" fill="#384BFF"/>
</g>
<defs>
<clipPath id="clip0_2813_2898">
<rect width="40" height="40" fill="white"/>
</clipPath>
</defs>
</svg>
