<svg width="40" height="40" viewBox="0 0 40 40" fill="none" xmlns="http://www.w3.org/2000/svg">
<path fill-rule="evenodd" clip-rule="evenodd" d="M3.59877 25.5552C4.31288 23.7335 6.07892 21.9063 8.58048 20.3317C13.7346 17.0876 21.3159 15.3307 27.3053 15.8096C30.3415 16.0523 32.8611 16.8534 34.4362 18.1306L35.1605 18.7772L33.7455 19.0918C32.3483 17.9588 30.0417 17.2425 27.2206 17.017C21.4533 16.556 14.122 18.2501 9.15982 21.3735C6.8679 22.816 5.26868 24.4423 4.65044 26.0194L2.83789 26.8579L3.59877 25.5552Z" fill="#E3A829"/>
<path fill-rule="evenodd" clip-rule="evenodd" d="M33.0533 6.77339L28.1322 9.84907V14.7092H26.9914V9.50516H26.9936C26.9935 9.39987 27.0194 9.29639 27.0687 9.20503C27.118 9.11367 27.1889 9.03759 27.2744 8.98437L32.4785 5.7318L33.0533 6.77339ZM7.03291 5.7318L12.237 8.98437C12.3225 9.03759 12.3934 9.11367 12.4427 9.20503C12.492 9.29639 12.5179 9.39987 12.5178 9.50516H12.5199V14.7093H11.3791V9.84916L6.45801 6.77348L7.03291 5.7318ZM12.5431 3.94286L11.9682 4.98453L16.8893 8.06021V12.9203H18.0302V7.71622H18.0281C18.0281 7.61092 18.0022 7.50745 17.953 7.41608C17.9037 7.32472 17.8328 7.24865 17.7473 7.19542L12.5431 3.94286ZM27.5431 4.98453L26.9682 3.94286L21.7641 7.19542C21.6786 7.24865 21.6077 7.32472 21.5584 7.41608C21.5092 7.50745 21.4833 7.61092 21.4833 7.71622H21.4811V12.9203H22.622V8.06021L27.5431 4.98453Z" fill="#4187B5"/>
<path fill-rule="evenodd" clip-rule="evenodd" d="M31.0069 13.7019C31.2857 23.284 31.4032 33.4168 19.7562 37C8.10912 33.4168 8.22666 23.284 8.50549 13.7019C12.4574 13.1449 16.5497 11.8315 19.7561 9.98192C22.9625 11.8314 27.0549 13.1449 31.0069 13.7019Z" fill="#88C8FE"/>
<path fill-rule="evenodd" clip-rule="evenodd" d="M15.645 20.8721H25.2372C25.5458 20.8721 25.7983 21.1404 25.7983 21.4682V28.0822C25.7983 28.41 25.5458 28.6782 25.2372 28.6782H15.645C15.3365 28.6782 15.084 28.41 15.084 28.0822V21.4682C15.084 21.1403 15.3365 20.8721 15.645 20.8721Z" fill="#4187B5"/>
<path fill-rule="evenodd" clip-rule="evenodd" d="M16.3701 22.5172V18.7769C16.3701 16.3851 18.2099 14.4304 20.4609 14.4304C22.712 14.4304 24.5518 16.3851 24.5518 18.7769V22.5172H23.4109V18.7769C23.4109 17.0542 22.0823 15.6425 20.4609 15.6425C18.8396 15.6425 17.511 17.0541 17.511 18.7769V22.5172H16.3701Z" fill="#4187B5"/>
<path fill-rule="evenodd" clip-rule="evenodd" d="M20.4619 20.5658H25.2581C25.5666 20.5658 25.8191 20.834 25.8191 21.1618V27.7758C25.8191 28.1036 25.5666 28.3719 25.2581 28.3719H20.4619V20.5658Z" fill="#88C8FE"/>
<path fill-rule="evenodd" clip-rule="evenodd" d="M31.0066 13.7018C31.2855 23.284 31.403 33.4168 19.7559 37H19.7559V9.98199C22.9623 11.8314 27.0547 13.1449 31.0066 13.7018Z" fill="#60B7FE"/>
<path fill-rule="evenodd" clip-rule="evenodd" d="M19.7559 28.6782V20.8721H20.4613V20.5658H23.4112V18.7769C23.4112 16.7543 21.6084 15.2455 19.7559 15.7339V14.4955C22.2549 14.0297 24.552 16.0905 24.552 18.7769V20.5658H25.2573C25.5659 20.5658 25.8184 20.834 25.8184 21.1618V27.7758C25.8184 27.8313 25.8111 27.8851 25.7975 27.9362V28.0822C25.7975 28.41 25.545 28.6782 25.2365 28.6782H19.7559Z" fill="#4187B5"/>
<path fill-rule="evenodd" clip-rule="evenodd" d="M15.666 22.0178V18.2775C15.666 15.8857 17.5058 13.931 19.7568 13.931C22.0079 13.931 23.8477 15.8857 23.8477 18.2775V22.0178H22.7068V18.2775C22.7068 16.5548 21.3782 15.1431 19.7568 15.1431C18.1355 15.1431 16.8069 16.5547 16.8069 18.2775V22.0178H15.666Z" fill="#FFE177"/>
<path fill-rule="evenodd" clip-rule="evenodd" d="M11.4914 21.9734C11.3418 21.9706 11.1992 21.9056 11.0943 21.7922C10.9894 21.6789 10.9307 21.5263 10.9307 21.3673C10.9307 21.2084 10.9894 21.0558 11.0943 20.9424C11.1992 20.8291 11.3418 20.764 11.4914 20.7613H28.022C28.1716 20.764 28.3142 20.8291 28.4191 20.9424C28.5239 21.0558 28.5827 21.2084 28.5827 21.3673C28.5827 21.5263 28.5239 21.6789 28.4191 21.7922C28.3142 21.9056 28.1716 21.9706 28.022 21.9734H11.4914ZM11.4914 24.5754C11.3418 24.5726 11.1992 24.5076 11.0943 24.3942C10.9894 24.2809 10.9307 24.1283 10.9307 23.9693C10.9307 23.8104 10.9894 23.6578 11.0943 23.5444C11.1992 23.4311 11.3418 23.366 11.4914 23.3633H28.022C28.1716 23.366 28.3142 23.4311 28.4191 23.5444C28.5239 23.6578 28.5827 23.8104 28.5827 23.9693C28.5827 24.1283 28.5239 24.2809 28.4191 24.3942C28.3142 24.5076 28.1716 24.5726 28.022 24.5754H11.4914ZM11.4914 27.1774C11.3418 27.1746 11.1992 27.1096 11.0943 26.9962C10.9894 26.8829 10.9307 26.7303 10.9307 26.5713C10.9307 26.4124 10.9894 26.2598 11.0943 26.1464C11.1992 26.0331 11.3418 25.968 11.4914 25.9653H28.022C28.1716 25.968 28.3142 26.0331 28.4191 26.1464C28.5239 26.2598 28.5827 26.4124 28.5827 26.5713C28.5827 26.7303 28.5239 26.8829 28.4191 26.9962C28.3142 27.1096 28.1716 27.1746 28.022 27.1774H11.4914Z" fill="#4187B5"/>
<path fill-rule="evenodd" clip-rule="evenodd" d="M14.9604 20.0663H24.5527C24.8612 20.0663 25.1137 20.3346 25.1137 20.6624V27.2763C25.1137 27.6041 24.8612 27.8724 24.5527 27.8724H14.9604C14.6519 27.8724 14.3994 27.6041 14.3994 27.2763V20.6624C14.3994 20.3345 14.6519 20.0663 14.9604 20.0663Z" fill="#FFE177"/>
<path fill-rule="evenodd" clip-rule="evenodd" d="M19.7559 20.0663H24.552C24.8606 20.0663 25.113 20.3346 25.113 20.6624V27.2763C25.113 27.6041 24.8606 27.8724 24.552 27.8724H19.7559V20.0663Z" fill="#FFBF31"/>
<path fill-rule="evenodd" clip-rule="evenodd" d="M16.9531 23.9051C16.9092 23.8408 16.8777 23.7679 16.8603 23.6906C16.8429 23.6133 16.8401 23.5331 16.8518 23.4546C16.8636 23.3762 16.8899 23.3009 16.929 23.2332C16.9682 23.1655 17.0195 23.1066 17.0801 23.06C17.1407 23.0134 17.2093 22.9799 17.282 22.9614C17.3548 22.943 17.4302 22.9399 17.5041 22.9524C17.578 22.965 17.6488 22.9928 17.7125 23.0344C17.7762 23.076 17.8316 23.1306 17.8755 23.1949L18.8496 24.619L21.7271 21.975C21.8416 21.8742 21.9887 21.8251 22.1369 21.8382C22.2851 21.8513 22.4226 21.9255 22.5199 22.045C22.6172 22.1645 22.6666 22.3197 22.6575 22.4774C22.6484 22.6351 22.5816 22.7827 22.4713 22.8887L19.1496 25.9408C18.8933 26.1902 18.5013 26.1688 18.2915 25.8618L16.9531 23.9051Z" fill="#E3A829"/>
<path fill-rule="evenodd" clip-rule="evenodd" d="M35.9132 23.5209C35.1991 25.3425 33.4331 27.1698 30.9316 28.7444C25.7775 31.9885 18.1961 33.7453 12.2068 33.2665C9.17057 33.0238 6.65094 32.2227 5.07589 30.9455L4.17188 30.3066L5.76658 29.9842C7.16368 31.1172 9.47032 31.8336 12.2915 32.0591C18.0587 32.5201 25.39 30.8259 30.3522 27.7026C32.6441 26.26 34.2433 24.6338 34.8615 23.0567L36.3333 22.6627L35.9132 23.5209Z" fill="#FFBF31"/>
<path d="M37.6443 22.0439C38.3554 20.8215 37.9992 19.2181 36.8487 18.4625C35.6982 17.707 34.1891 18.0854 33.478 19.3078C32.7669 20.5302 33.1231 22.1337 34.2736 22.8892C35.4241 23.6448 36.9332 23.2663 37.6443 22.0439Z" fill="#FFBF31"/>
<path fill-rule="evenodd" clip-rule="evenodd" d="M34.868 23.1898C33.8526 22.8724 33.1113 21.875 33.1113 20.6934C33.1113 19.5118 33.8526 18.5144 34.868 18.197C35.8834 18.5144 36.6247 19.5118 36.6247 20.6934C36.6247 21.875 35.8834 22.8724 34.868 23.1898Z" fill="#FFE177"/>
<path d="M6.3299 28.99C6.64105 27.5915 5.82626 26.1898 4.51002 25.8592C3.19378 25.5286 1.87452 26.3944 1.56338 27.7929C1.25223 29.1914 2.06702 30.5931 3.38326 30.9237C4.6995 31.2543 6.01876 30.3885 6.3299 28.99Z" fill="#FFBF31"/>
<path fill-rule="evenodd" clip-rule="evenodd" d="M3.26057 30.8791C2.24521 30.5617 1.50391 29.5643 1.50391 28.3827C1.50391 27.2011 2.24521 26.2036 3.26057 25.8863C4.27594 26.2037 5.01724 27.2011 5.01724 28.3827C5.01724 29.5642 4.27594 30.5617 3.26057 30.8791Z" fill="#FFE177"/>
<path fill-rule="evenodd" clip-rule="evenodd" d="M32.7671 4.78895C32.0063 4.78895 31.3895 5.44423 31.3895 6.25257C31.3895 7.06091 32.0063 7.71619 32.7671 7.71619C33.5279 7.71619 34.1446 7.06091 34.1446 6.25257C34.1446 5.44423 33.5279 4.78895 32.7671 4.78895ZM6.74667 4.78895C7.50746 4.78895 8.12419 5.44423 8.12419 6.25257C8.12419 7.06091 7.50746 7.71619 6.74667 7.71619C5.98587 7.71619 5.36914 7.06091 5.36914 6.25257C5.36914 5.44423 5.98587 4.78895 6.74667 4.78895ZM12.2569 3C13.0176 3 13.6344 3.65528 13.6344 4.46362C13.6344 5.27196 13.0176 5.92724 12.2569 5.92724C11.4961 5.92724 10.8793 5.27196 10.8793 4.46362C10.8793 3.65528 11.4961 3 12.2569 3ZM27.2569 3C26.4961 3 25.8794 3.65528 25.8794 4.46362C25.8794 5.27196 26.4961 5.92724 27.2569 5.92724C28.0177 5.92724 28.6344 5.27196 28.6344 4.46362C28.6344 3.65528 28.0177 3 27.2569 3Z" fill="#FFBF31"/>
<path fill-rule="evenodd" clip-rule="evenodd" d="M32.3535 4.85607C31.7948 5.04265 31.3895 5.5973 31.3895 6.25258C31.3895 6.90786 31.7948 7.46252 32.3535 7.64909C32.9123 7.46252 33.3175 6.90786 33.3175 6.25258C33.3175 5.5973 32.9122 5.04265 32.3535 4.85607ZM6.33314 4.85607C6.8919 5.04265 7.29714 5.5973 7.29714 6.25258C7.29714 6.90786 6.8919 7.46252 6.33314 7.64909C5.77438 7.46252 5.36914 6.90786 5.36914 6.25258C5.36914 5.5973 5.77438 5.04265 6.33314 4.85607ZM11.8433 3.06721C12.4021 3.25379 12.8073 3.80844 12.8073 4.46372C12.8073 5.119 12.4021 5.67357 11.8433 5.86023C11.2846 5.67366 10.8793 5.119 10.8793 4.46372C10.8793 3.80844 11.2846 3.25379 11.8433 3.06721ZM26.8433 5.86014C27.402 5.67357 27.8073 5.11891 27.8073 4.46363C27.8073 3.80836 27.402 3.2537 26.8433 3.06712C26.2845 3.2537 25.8793 3.80836 25.8793 4.46363C25.8793 5.11891 26.2846 5.67357 26.8433 5.86014Z" fill="#FFE177"/>
</svg>
