<svg width="40" height="40" viewBox="0 0 40 40" fill="none" xmlns="http://www.w3.org/2000/svg">
<g clip-path="url(#clip0_2813_2882)">
<path d="M32.7908 7.69212C32.894 7.79302 32.9532 7.93064 32.9554 8.07498C32.9576 8.21932 32.9026 8.35867 32.8024 8.46264C32.7023 8.56662 32.5651 8.62677 32.4208 8.63C32.2765 8.63322 32.1367 8.57925 32.032 8.47986C29.0366 5.59431 25.0964 4.00525 20.9372 4.00525C17.5534 4.00525 14.3191 5.04947 11.5836 7.02501C11.5254 7.0674 11.4594 7.09787 11.3894 7.11468C11.3194 7.13149 11.2467 7.13432 11.1756 7.12299C11.1045 7.11166 11.0364 7.0864 10.975 7.04867C10.9137 7.01093 10.8605 6.96146 10.8183 6.90308C10.7762 6.84471 10.746 6.77859 10.7294 6.70852C10.7129 6.63844 10.7104 6.56579 10.722 6.49474C10.7336 6.42368 10.7591 6.35561 10.7971 6.29445C10.8351 6.23328 10.8847 6.18021 10.9433 6.1383C13.8663 4.02728 17.3221 2.9115 20.9372 2.9115C25.3808 2.91142 29.5905 4.60931 32.7908 7.69212ZM31.769 31.7677C28.8091 34.4936 24.9623 35.9948 20.9372 35.9948C17.3945 35.9948 14.0376 34.8595 11.2295 32.7117C10.9895 32.5281 10.6464 32.5738 10.4629 32.8138C10.2794 33.0537 10.3252 33.3969 10.5651 33.5803C13.5656 35.8754 17.1523 37.0885 20.9373 37.0885C25.2377 37.0885 29.3476 35.4846 32.51 32.5722C32.6167 32.4739 32.6799 32.3373 32.6859 32.1924C32.6919 32.0475 32.64 31.9061 32.5418 31.7994C32.4435 31.6928 32.3069 31.6296 32.162 31.6236C32.0171 31.6177 31.8757 31.6695 31.769 31.7677ZM15.8738 20C15.8738 17.2081 18.1452 14.9367 20.9372 14.9367C23.7291 14.9367 26.0005 17.2081 26.0005 20C26.0005 22.792 23.7291 25.0634 20.9372 25.0634C18.1452 25.0634 15.8738 22.792 15.8738 20ZM16.9676 20C16.9676 22.1888 18.7483 23.9696 20.9372 23.9696C23.1261 23.9696 24.9068 22.1888 24.9068 20C24.9068 17.8112 23.1261 16.0304 20.9372 16.0304C18.7483 16.0304 16.9676 17.8113 16.9676 20ZM13.5698 16.9485C13.7595 16.4906 13.7723 15.8112 13.239 15.2778C13.1305 15.17 13.0445 15.0417 12.986 14.9004C12.9274 14.759 12.8975 14.6075 12.898 14.4545C12.898 14.1436 13.0191 13.8511 13.239 13.6313L14.5684 12.3018C15.0223 11.8478 15.7611 11.8478 16.215 12.3018C16.7483 12.8351 17.4276 12.8224 17.8855 12.6327C18.3435 12.4431 18.8328 11.9717 18.8328 11.2175C18.8328 10.5755 19.3552 10.0532 19.9972 10.0532H21.877C22.5191 10.0532 23.0414 10.5756 23.0414 11.2175C23.0414 11.9717 23.5308 12.4431 23.9887 12.6327C24.4466 12.8225 25.126 12.8352 25.6593 12.3019C26.1133 11.8478 26.852 11.8478 27.3059 12.3018L28.6353 13.6312C29.0893 14.0852 29.0892 14.824 28.6353 15.2779C28.102 15.8112 28.1147 16.4906 28.3045 16.9485C28.4941 17.4065 28.9655 17.8958 29.7197 17.8958C30.3617 17.8958 30.8841 18.4181 30.8841 19.0601V20.9399C30.8841 21.582 30.3617 22.1043 29.7197 22.1043C28.9655 22.1043 28.4941 22.5937 28.3045 23.0516C28.1148 23.5095 28.1021 24.1889 28.6353 24.7221C29.0893 25.1762 29.0893 25.9149 28.6353 26.3688L27.3059 27.6982C27.0861 27.9181 26.7937 28.0392 26.4826 28.0392C26.1715 28.0392 25.8791 27.9181 25.6591 27.6981C25.1259 27.1649 24.4465 27.1775 23.9886 27.3674C23.5306 27.557 23.0413 28.0285 23.0413 28.7825C23.0413 29.4245 22.519 29.9468 21.877 29.9468H19.9971C19.3551 29.9468 18.8327 29.4245 18.8327 28.7825C18.8327 28.0271 18.3438 27.5554 17.8861 27.3658C17.4284 27.1762 16.749 27.1641 16.2149 27.6982C15.9951 27.9181 15.7027 28.0392 15.3916 28.0392C15.0805 28.0392 14.788 27.9181 14.5681 27.6981L13.2388 26.3688C13.0189 26.149 12.8978 25.8565 12.8978 25.5455C12.8978 25.2345 13.0189 24.942 13.2389 24.7221C13.7721 24.1889 13.7595 23.5095 13.5698 23.0516C13.3801 22.5937 12.9087 22.1043 12.1545 22.1043C11.5125 22.1043 10.9902 21.5819 10.9902 20.9399V19.0601C10.9902 18.4181 11.5125 17.8958 12.1545 17.8958C12.9088 17.8958 13.3802 17.4064 13.5698 16.9485ZM14.5804 17.367C14.1659 18.3679 13.2363 18.9895 12.1547 18.9895C12.136 18.9895 12.118 18.997 12.1048 19.0102C12.0915 19.0234 12.0841 19.0414 12.0841 19.0601V20.9399C12.0841 20.9789 12.1157 21.0106 12.1547 21.0106C13.2364 21.0106 14.1659 21.6323 14.5804 22.6331C14.9949 23.6339 14.7773 24.7307 14.0123 25.4956C13.9986 25.5093 13.9916 25.5261 13.9916 25.5456C13.9916 25.565 13.9986 25.5818 14.0123 25.5955L15.3416 26.9249C15.3482 26.9314 15.356 26.9366 15.3645 26.9402C15.3731 26.9437 15.3822 26.9456 15.3915 26.9456C15.4008 26.9456 15.41 26.9438 15.4185 26.9402C15.4271 26.9367 15.4349 26.9315 15.4414 26.9249C15.9505 26.4158 16.6062 26.1487 17.2825 26.1487C17.6234 26.1487 17.9694 26.2165 18.3046 26.3554C19.305 26.7699 19.9265 27.6999 19.9265 28.7826C19.9265 28.8215 19.9581 28.8531 19.9971 28.8531H21.877C21.8957 28.8531 21.9136 28.8457 21.9269 28.8325C21.9401 28.8193 21.9476 28.8013 21.9476 28.7826C21.9476 27.7009 22.5693 26.7714 23.57 26.3569C24.5708 25.9424 25.6677 26.1599 26.4326 26.9249C26.4391 26.9314 26.4469 26.9366 26.4554 26.9402C26.464 26.9437 26.4732 26.9456 26.4824 26.9456C26.4917 26.9456 26.5009 26.9438 26.5095 26.9402C26.518 26.9367 26.5258 26.9315 26.5323 26.9249L27.8618 25.5955C27.8755 25.5818 27.8824 25.565 27.8824 25.5456C27.8824 25.5261 27.8755 25.5093 27.8618 25.4956C27.0969 24.7307 26.8793 23.6338 27.2938 22.6331C27.7084 21.6323 28.6378 21.0106 29.7195 21.0106C29.7383 21.0106 29.7562 21.0031 29.7695 20.9899C29.7827 20.9766 29.7902 20.9587 29.7902 20.9399V19.0601C29.7901 19.0414 29.7827 19.0234 29.7694 19.0102C29.7562 18.997 29.7382 18.9895 29.7195 18.9895C28.6378 18.9895 27.7084 18.3679 27.2938 17.3671C26.8793 16.3663 27.0969 15.2694 27.8618 14.5045C27.875 14.4912 27.8824 14.4732 27.8824 14.4545C27.8824 14.4358 27.875 14.4178 27.8617 14.4045L26.5324 13.0752C26.5192 13.062 26.5012 13.0546 26.4825 13.0546C26.4638 13.0546 26.4458 13.062 26.4326 13.0752C25.6677 13.84 24.5709 14.0579 23.57 13.6433C22.5692 13.2288 21.9475 12.2993 21.9475 11.2175C21.9475 11.1988 21.94 11.1809 21.9268 11.1676C21.9135 11.1544 21.8956 11.147 21.8769 11.147H19.997C19.9783 11.147 19.9604 11.1544 19.9471 11.1676C19.9339 11.1809 19.9264 11.1988 19.9264 11.2175C19.9264 12.2993 19.3047 13.2288 18.3039 13.6433C17.303 14.0578 16.2062 13.8402 15.4414 13.0752C15.4282 13.062 15.4102 13.0546 15.3915 13.0546C15.3727 13.0546 15.3548 13.0621 15.3416 13.0753L14.0122 14.4047C14.0055 14.4112 14.0003 14.419 13.9967 14.4275C13.9931 14.4361 13.9914 14.4453 13.9915 14.4546C13.9915 14.4741 13.9984 14.4909 14.0121 14.5045C14.7773 15.2694 14.9949 16.3663 14.5804 17.367ZM39.2969 19.7095V31.4043C39.2969 32.9002 38.0798 34.1173 36.5838 34.1173C35.0879 34.1173 33.8708 32.9002 33.8708 31.4043V19.7095C33.8708 19.5645 33.9284 19.4254 34.031 19.3228C34.1335 19.2203 34.2726 19.1627 34.4177 19.1627H35.2336V10.0613L34.2846 8.89541C34.2342 8.83345 34.1979 8.76119 34.1784 8.68371C34.1589 8.60623 34.1566 8.52542 34.1717 8.44697L34.8879 4.71978C34.9119 4.59494 34.9786 4.48235 35.0766 4.40138C35.1746 4.32041 35.2978 4.27611 35.4249 4.27611H37.7426C37.8697 4.27611 37.9929 4.32041 38.0909 4.40138C38.1889 4.48235 38.2556 4.59494 38.2796 4.71978L38.9958 8.44697C39.0109 8.52542 39.0086 8.60623 38.9891 8.6837C38.9695 8.76118 38.9333 8.83344 38.8829 8.89541L37.9339 10.0613V19.1627H38.75C38.895 19.1627 39.0341 19.2203 39.1367 19.3228C39.2393 19.4254 39.2969 19.5645 39.2969 19.7095ZM36.3274 9.86689V19.1627H36.8402V9.86689C36.8402 9.74111 36.8836 9.61923 36.963 9.52166L37.8737 8.40283L37.2909 5.36986H35.8767L35.2939 8.40283L36.2046 9.52166C36.284 9.61918 36.3274 9.74111 36.3274 9.86689ZM38.2031 20.2564H34.9646V31.4043C34.9646 32.2972 35.691 33.0235 36.5839 33.0235C37.4768 33.0235 38.2031 32.2973 38.2031 31.4044V20.2564ZM10.0268 29.8625C10.0268 32.3346 8.01562 34.3458 5.54359 34.3458C3.07156 34.3458 1.06039 32.3346 1.06039 29.8625C1.06039 28.1421 2.06531 26.5645 3.5968 25.8236V14.3823C1.85094 13.616 0.703125 11.8814 0.703125 9.94947C0.703125 8.19939 1.65273 6.58033 3.18125 5.72408C3.26448 5.67746 3.35845 5.65342 3.45384 5.65435C3.54923 5.65527 3.64272 5.68114 3.72502 5.72937C3.80732 5.7776 3.87558 5.84652 3.92301 5.92929C3.97043 6.01206 3.99539 6.10579 3.99539 6.20119V9.24572L5.54359 10.5674L7.0918 9.24572V6.20119C7.0918 6.10579 7.11675 6.01206 7.16418 5.92929C7.21161 5.84652 7.27987 5.7776 7.36217 5.72937C7.44447 5.68114 7.53796 5.65527 7.63335 5.65435C7.72874 5.65342 7.82271 5.67746 7.90594 5.72408C9.43453 6.58033 10.3841 8.19947 10.3841 9.94947C10.3841 11.7952 9.35086 13.4542 7.72227 14.2729V25.9435C9.13313 26.7295 10.0268 28.2308 10.0268 29.8625ZM8.93305 29.8625C8.93305 28.537 8.1532 27.3254 6.94625 26.7759C6.8459 26.7302 6.7617 26.6552 6.70472 26.5608C6.64774 26.4664 6.62063 26.357 6.62695 26.2469C6.62797 26.2287 6.62859 26.2102 6.62859 26.1918V13.9217C6.62858 13.8133 6.6608 13.7074 6.72114 13.6173C6.78149 13.5273 6.86724 13.4572 6.9675 13.416C8.37859 12.8356 9.29039 11.4749 9.29039 9.94939C9.29039 8.94056 8.88266 7.98791 8.18563 7.2933V9.49775C8.18563 9.57682 8.16848 9.65496 8.13537 9.72676C8.10226 9.79857 8.05397 9.86234 7.99383 9.91369L5.89867 11.7024C5.79969 11.7869 5.67378 11.8334 5.54359 11.8334C5.41341 11.8334 5.2875 11.7869 5.18852 11.7024L3.09344 9.91376C3.03329 9.86243 2.985 9.79865 2.95189 9.72685C2.91878 9.65504 2.90163 9.5769 2.90164 9.49783V7.29345C2.20461 7.98791 1.79688 8.94064 1.79688 9.94947C1.79688 11.5479 2.81164 12.9717 4.32195 13.4924C4.42956 13.5295 4.52291 13.5993 4.589 13.6919C4.65508 13.7846 4.69061 13.8956 4.69063 14.0094V26.1827C4.69063 26.2935 4.65694 26.4018 4.59401 26.4931C4.53109 26.5843 4.4419 26.6543 4.33828 26.6938C3.03187 27.191 2.15414 28.4645 2.15414 29.8625C2.15414 31.7315 3.67461 33.252 5.54359 33.252C7.41258 33.252 8.93305 31.7315 8.93305 29.8625ZM7.72641 29.8625C7.72641 31.0661 6.74719 32.0452 5.54359 32.0452C4.34 32.0452 3.36078 31.0661 3.36078 29.8625C3.36078 28.6589 4.34 27.6797 5.54359 27.6797C6.74719 27.6797 7.72641 28.6589 7.72641 29.8625ZM6.63266 29.8625C6.63266 29.262 6.14414 28.7735 5.54359 28.7735C4.94305 28.7735 4.45453 29.262 4.45453 29.8625C4.45453 30.463 4.94305 30.9515 5.54359 30.9515C6.14414 30.9516 6.63266 30.4631 6.63266 29.8625Z" fill="#384BFF"/>
</g>
<defs>
<clipPath id="clip0_2813_2882">
<rect width="40" height="40" fill="white"/>
</clipPath>
</defs>
</svg>
