<svg width="40" height="40" viewBox="0 0 40 40" fill="none" xmlns="http://www.w3.org/2000/svg">
<g clip-path="url(#clip0_2729_2655)">
<path d="M25.9739 20.2403C25.9739 20.2403 27.955 21.7986 26.5201 24.1824C26.5201 24.1824 23.7316 22.8999 25.9739 20.2403Z" fill="#457AEF"/>
<path d="M30.6262 24.6546C30.5851 24.7269 30.5192 24.7818 30.4406 24.8091C30.3621 24.8364 30.2763 24.8343 30.1993 24.8032C29.5986 24.5596 28.7903 24.3833 28.3588 24.097C27.8235 23.7436 27.1999 23.5471 26.5587 23.5297C25.9175 23.5123 25.2842 23.6748 24.7305 23.9987L24.6502 24.0455L24.0566 21.722C24.0566 21.722 27.3919 20.19 27.6568 20.1452C27.9205 20.1009 28.5676 19.7049 28.9799 19.3123C29.2781 19.0344 29.5814 18.7623 29.8899 18.4961C29.9218 18.4685 29.959 18.4479 29.9993 18.4356C30.0396 18.4234 30.082 18.4197 30.1239 18.4248C30.1657 18.4299 30.2059 18.4437 30.2421 18.4654C30.2782 18.487 30.3094 18.516 30.3336 18.5505C31.208 19.7911 28.7514 20.7928 28.7514 20.7928L32.5249 21.5487C32.6333 21.5745 32.7271 21.6424 32.7855 21.7373C32.844 21.8323 32.8623 21.9465 32.8365 22.055C32.8107 22.1635 32.7429 22.2572 32.6479 22.3157C32.553 22.3741 32.4387 22.3924 32.3302 22.3666L30.4316 21.9673L32.7312 22.9279C32.7862 22.9507 32.8354 22.9855 32.8751 23.0298C32.9148 23.0741 32.9441 23.1268 32.9608 23.1839C32.9774 23.241 32.9811 23.3012 32.9714 23.3599C32.9617 23.4186 32.939 23.4744 32.9049 23.5232C32.8028 23.6726 32.6061 23.7253 32.4345 23.668L30.031 22.8652L31.6174 23.7245C31.6963 23.7671 31.7554 23.8387 31.7824 23.9242C31.8093 24.0097 31.8018 24.1023 31.7616 24.1824C31.7213 24.2625 31.6514 24.3237 31.5668 24.3531C31.4821 24.3825 31.3893 24.3777 31.3081 24.3398L28.9088 23.2222L30.5061 24.1904C30.6651 24.2866 30.7183 24.4926 30.6275 24.6537L30.6262 24.6546Z" fill="#FDC8B8"/>
<path d="M25.974 20.2403L19.0336 22.4127C18.0265 19.5061 15.8466 14.0047 13.1999 12.0621C12.5582 11.5912 10.8391 10.9152 10.0819 12.7172C9.32596 14.52 11.8667 18.869 11.8667 18.869C11.8667 18.869 15.4355 25.4968 17.6602 26.6751C19.5217 27.6612 26.5203 24.1824 26.5203 24.1824C26.5203 24.1824 24.0109 22.699 25.974 20.2403Z" fill="#4F91FF"/>
<path d="M14.3829 35.7054C12.6039 37.4312 9.5701 37.1771 5.20225 34.8176C4.52934 34.4566 3.96145 33.9273 3.55395 33.2815C3.14645 32.6357 2.91324 31.8953 2.87706 31.1325C2.75023 28.4075 2.31198 25.4314 1.70671 22.3214C-0.552765 17.8791 0.409962 17.0582 0.683712 16.7301C0.886303 16.4894 2.31407 15.2203 3.687 14.3446C4.72089 13.6883 5.35587 13.2396 5.95778 12.9658C10.8216 10.7775 12.534 11.6749 12.534 11.6749C15.4118 12.3367 16.1229 19.3893 15.5269 23.7165C15.0664 27.0392 15.3134 30.3552 15.5311 32.2086C15.6813 33.4878 15.3071 34.8088 14.3829 35.7054Z" fill="#457AEF"/>
<path d="M4.7373 8.90686C4.7373 8.90686 5.8457 10.7046 5.78793 12.9629C5.75863 14.0993 6.51835 15.4049 8.98335 15.3885C9.22138 15.3839 9.45706 15.3405 9.68112 15.26C10.1564 15.0955 10.5656 14.7816 10.8479 14.3654C11.1301 13.9491 11.2701 13.4527 11.247 12.9503C11.2257 12.4882 11.2052 12.0387 11.3282 11.6958C11.6505 10.8118 4.7373 8.90686 4.7373 8.90686Z" fill="#F3B2A1"/>
<path d="M3.32762 7.01364C3.32762 7.01364 4.35564 10.5778 6.94789 12.0491C9.25927 13.3492 11.8846 14.1345 12.1855 11.4732C12.4166 9.35642 13.0826 3.9597 11.1638 3.01874C8.68666 1.79566 7.70551 0.15735 5.01867 1.35574C5.01867 1.35574 1.97059 3.01204 3.32762 7.01364Z" fill="#FDC8B8"/>
<path d="M11.5674 2.08363C11.2493 1.79398 9.47622 0.323515 8.04636 0.0786475C4.82373 -0.460898 3.85975 1.93713 3.73585 2.31678C1.11556 4.30544 4.15317 9.12284 4.24233 9.08015C3.96063 8.54228 3.77771 7.99729 4.03555 7.69131C4.44576 7.19781 5.16152 8.06049 5.64791 8.78379C5.72744 8.57032 5.84548 8.37275 6.01082 8.21704C5.72074 7.50253 5.71865 6.64612 6.20043 6.14676C6.63994 5.69721 7.92497 5.81859 8.70101 5.85083C10.6198 5.86255 14.0986 4.38915 11.5674 2.08363Z" fill="#3D4449"/>
<path d="M15.9318 25.6633C15.9318 25.6633 17.8447 27.3042 16.3102 29.6243C16.3102 29.6243 13.5785 28.225 15.9314 25.6629L15.9318 25.6633Z" fill="#457AEF"/>
<path d="M20.3079 29.8173C20.2751 29.8939 20.2156 29.956 20.1404 29.992C20.0653 30.0279 19.9796 30.0353 19.8994 30.0128C19.2761 29.8378 18.4532 29.7528 17.9927 29.5163C17.4213 29.2246 16.7796 29.0988 16.1403 29.1532C15.501 29.2076 14.8898 29.44 14.3758 29.824L14.3009 29.8797L13.4541 27.634C13.4541 27.634 16.6001 25.7379 16.8584 25.6633C17.1154 25.5897 17.7148 25.1234 18.0815 24.6864C18.347 24.3768 18.6185 24.0723 18.8956 23.7731C18.9241 23.7421 18.9588 23.7175 18.9975 23.7009C19.0361 23.6842 19.0778 23.6758 19.1198 23.6761C19.1619 23.6765 19.2034 23.6857 19.2417 23.7031C19.28 23.7206 19.3143 23.7458 19.3422 23.7772C20.3485 24.9141 18.0178 26.1849 18.0178 26.1849L21.8516 26.5156C21.9624 26.5292 22.0632 26.5863 22.1319 26.6743C22.2006 26.7623 22.2315 26.874 22.2178 26.9848C22.2042 27.0956 22.1471 27.1964 22.0591 27.2651C21.9711 27.3338 21.8594 27.3647 21.7486 27.351L19.8177 27.166L22.2091 27.8642C22.2663 27.8808 22.319 27.9099 22.3634 27.9496C22.4079 27.9892 22.4428 28.0383 22.4657 28.0933C22.4886 28.1483 22.4989 28.2077 22.4958 28.2671C22.4926 28.3266 22.4762 28.3846 22.4476 28.4368C22.3627 28.5972 22.1726 28.6717 21.9956 28.6336L19.5184 28.1041L21.1898 28.7813C21.2756 28.813 21.3452 28.8775 21.3835 28.9605C21.4217 29.0436 21.4254 29.1384 21.3937 29.2242C21.362 29.3099 21.2975 29.3796 21.2145 29.4178C21.1314 29.456 21.0366 29.4597 20.9508 29.428L18.4427 28.5846L20.1371 29.369C20.2181 29.4068 20.2813 29.4746 20.3133 29.5581C20.3453 29.6415 20.3437 29.7342 20.3087 29.8165L20.3079 29.8173Z" fill="#FDC8B8"/>
<path d="M0.372425 17.4718C1.20497 15.7037 2.89393 16.4521 3.5151 16.9498C6.07679 19.0034 8.0215 24.5918 8.90428 27.539L15.9305 25.6629C13.8648 28.0363 16.3093 29.6243 16.3093 29.6243C16.3093 29.6243 9.16924 32.803 7.35178 31.739C5.17895 30.4674 1.89437 23.6939 1.89437 23.6939C1.89437 23.6939 -0.459707 19.2415 0.372425 17.4718Z" fill="#4F91FF"/>
<path d="M2.67601 4.8634C2.67266 4.90233 2.93887 5.46364 3.06026 5.69512C3.30722 6.14718 3.73417 6.49795 4.1854 6.75956C4.97065 7.21288 5.98695 7.48788 7.08697 7.55109L7.19664 7.94622C5.77264 7.8646 3.93383 7.36356 3.09542 6.22378C3.04756 6.1608 3.0038 6.09481 2.96441 6.02621C2.76935 5.69302 2.65173 5.21208 2.67601 4.8634Z" fill="#95E2FE"/>
<path d="M2.92758 5.89397C3.13017 6.24264 3.45415 6.57206 3.89868 6.86088C5.69688 8.05969 9.02625 8.16852 11.0923 6.97599C11.6553 6.65076 12.0563 6.26734 12.2911 5.85881C12.8742 6.85377 12.4732 8.00276 11.0923 8.79931C9.15684 9.91649 6.0284 9.92235 4.10462 8.81103C3.04143 8.19698 2.67308 7.50382 2.6869 6.5662V5.16983C2.72038 5.39461 2.80075 5.67798 2.92758 5.89397Z" fill="#71D8F8"/>
<path d="M7.7492 0.0363823C6.55124 -0.103841 5.68855 0.177024 5.07617 0.586392C5.72915 0.499328 6.37627 0.720337 6.95349 1.05436C8.8915 2.16778 10.5587 4.94964 10.5131 7.29116C10.58 7.24009 10.5767 7.22754 10.8663 7.07224C10.9291 7.03876 10.994 6.98978 11.0602 6.96551L11.0761 6.95588C11.21 6.81942 11.3594 6.71018 11.5541 6.6386C11.6336 6.53395 11.7261 6.4381 11.8308 6.35899C11.7901 3.89148 9.89441 0.916231 7.7492 0.0363823Z" fill="#95E2FE"/>
<path d="M5.07634 0.586376C4.98344 0.648474 4.89375 0.715253 4.80762 0.786456C6.91599 0.134731 10.458 3.97559 10.3286 7.43555C10.3889 7.38574 10.4513 7.33844 10.5132 7.29114C10.5756 4.08694 7.48274 0.26449 5.07634 0.586376Z" fill="#71D8F8"/>
<path d="M7.66514 6.5821C7.77648 6.46992 7.92173 6.39918 8.07828 6.37909C9.14816 6.24138 10.1657 5.93456 10.9991 5.45278C11.7232 5.03587 12.2226 4.53777 12.4968 4.00952C12.6772 3.66085 13.1121 3.49844 13.4804 3.72447L14.9513 4.57544L14.9542 4.62441L14.9743 4.63697C14.9743 4.63697 17.2359 7.58919 9.61487 11.4192C9.60734 11.4234 9.26913 11.7473 9.26076 11.7482C8.40351 11.852 6.80664 11.1839 6.80664 9.48953V8.65322C6.80664 7.9161 7.16704 7.08523 7.66514 6.5821Z" fill="#EBF2FF"/>
<path d="M8.34083 9.4983L8.3446 10.731C8.34711 11.6414 8.9913 12.0089 9.78366 11.5514L13.8974 9.17642C14.6898 8.71891 15.3298 7.60968 15.3277 6.69928L15.3244 5.46657C15.3214 4.55658 14.6768 4.18907 13.8845 4.64657L9.77111 7.02158C8.97832 7.4795 8.33832 8.5879 8.34083 9.4983Z" fill="#DBE6FA"/>
<path d="M8.7793 9.24551L8.78265 10.4778C8.78475 11.1094 9.23304 11.3652 9.78263 11.0479L13.896 8.67289C14.4456 8.35561 14.8909 7.58376 14.8897 6.95254L14.8855 5.71983C14.8843 5.0882 14.4355 4.83287 13.8864 5.15015L9.77259 7.52516C9.223 7.84244 8.77721 8.61429 8.7793 9.24551Z" fill="#3D4449"/>
<path d="M9.485 10.8382L13.5988 8.46317C14.1484 8.14589 14.5937 7.37403 14.5925 6.7424L14.5883 5.51011C14.5883 5.30961 14.5422 5.14762 14.4631 5.02875C14.7176 5.09028 14.8851 5.33515 14.8859 5.7194L14.8897 6.95211C14.8909 7.58374 14.446 8.3556 13.896 8.67246L9.78261 11.0479C9.40715 11.2643 9.0794 11.2136 8.9082 10.9587C9.07145 10.9981 9.27069 10.9621 9.48542 10.8382H9.485Z" fill="#4F575F"/>
<path d="M10.8072 8.28109C10.6239 8.38657 10.4766 8.64274 10.4766 8.85287C10.4774 9.06299 10.626 9.14754 10.8093 9.04206L12.9901 7.78298C13.173 7.6775 13.3208 7.42133 13.32 7.21163C13.3195 7.00108 13.1705 6.91653 12.988 7.02201L10.8072 8.28109Z" fill="#95E2FE"/>
<path d="M3.7627 7.36359C3.85897 7.3075 3.91673 7.43475 4.06281 7.51972C4.35498 7.68799 4.59106 8.09736 4.59106 8.4318C4.58939 8.59881 4.60738 8.59714 4.51237 8.65155L4.72249 8.52891C4.81709 8.47449 4.87653 8.35729 4.87653 8.18986C4.87904 7.65701 4.30517 7.04421 3.97408 7.24095L3.7627 7.36359Z" fill="#646F80"/>
<path d="M4.13832 7.40041C3.84615 7.23173 3.60924 7.36776 3.6084 7.70221C3.60756 8.03791 3.8428 8.44644 4.13497 8.6147C4.42714 8.78381 4.66447 8.64819 4.66573 8.31249C4.66656 7.97763 4.43049 7.56952 4.13832 7.40041Z" fill="#3D4449"/>
<path d="M33.3917 2.98067C32.1799 2.29755 30.8593 1.812 29.4629 1.32436V17.0344C30.8408 17.5187 32.1451 18.0972 33.3427 18.7723C37.6084 21.177 39.7385 24.3407 39.7297 27.4997L39.7787 11.7076C39.7879 8.549 37.6574 5.38539 33.3917 2.98025V2.98067Z" fill="#95E2FE" fill-opacity="0.188235"/>
<path d="M32.4683 4.61937C31.539 4.09615 30.5319 3.63111 29.4629 3.22551V15.0457C32.4658 16.0289 35.544 17.5597 37.8771 19.7283L37.8981 11.7021C37.9052 9.11321 35.9768 6.59757 32.4683 4.61979V4.61937Z" fill="#B785FF" fill-opacity="0.188235"/>
<path d="M35.9916 9.29071C34.3797 7.86755 32.3362 6.79599 30.3262 6.03293V7.15304C32.3324 7.91443 34.378 8.98515 35.9916 10.4121V9.29071ZM35.9916 11.5326C34.3788 10.1053 32.3341 9.03496 30.3262 8.27273V9.39243C32.3286 10.1526 34.3755 11.2224 35.9916 12.6531V11.5326ZM35.9916 13.7733C34.3885 12.3539 32.3521 11.2815 30.3262 10.5125V11.6322C32.3521 12.4012 34.3885 13.4736 35.9916 14.8934V13.7733Z" fill="#B785FF" fill-opacity="0.188235"/>
<path d="M33.5099 20.5337C26.0747 24.8542 14.4981 25.3636 6.04492 22.0665V37.8774C14.4935 41.1536 26.0412 40.6379 33.4617 36.3253C37.6504 33.8909 39.7475 30.6984 39.7563 27.5009L39.8044 11.7092C39.7952 14.9067 37.6986 18.0992 33.5099 20.5337Z" fill="#95E2FE" fill-opacity="0.188235"/>
<path d="M39.7563 27.0756C39.7475 30.2735 37.6508 33.466 33.4617 35.9001C26.0412 40.2127 14.4935 40.7288 6.04492 37.4526V37.8774C14.4935 41.1536 26.0412 40.6379 33.4617 36.3253C37.6504 33.8909 39.7475 30.6984 39.7563 27.5009L39.8044 11.7092C39.7893 15.8456 39.7713 22.267 39.7563 27.0756Z" fill="#95E2FE"/>
<path d="M33.5093 20.5337C26.0754 24.8555 14.4971 25.3649 6.04395 22.0648V21.6869C14.3125 25.0338 25.7874 24.5776 33.1284 20.3118C42.6937 14.7548 40.7896 5.4917 29.4625 1.32435L29.694 1.03972C41.4777 5.36781 43.2333 14.8825 33.5093 20.5337Z" fill="#71D8F8"/>
<path d="M20.9542 25.9911C16.7727 26.2829 12.8025 25.9086 9.2998 25.0556V36.9767C13.044 38.0076 17.1084 38.309 20.9542 38.0085V25.9911Z" fill="#49E4A3" fill-opacity="0.188235"/>
<path d="M22.3965 25.8643V37.8649C26.2281 37.4032 29.7266 36.3199 32.5164 34.6988C35.9642 32.695 37.8675 30.1367 37.875 27.4942L37.8943 19.6375C33.9191 23.3637 27.8844 25.2733 22.3965 25.8643Z" fill="#FF6161" fill-opacity="0.313726"/>
<path d="M31.2306 26.632C31.7337 26.596 32.5583 26.6002 33.3607 26.8844C33.7061 27.007 33.8647 27.4093 33.7061 27.7395C33.3109 28.5608 32.5114 30.0601 31.5872 30.8968C31.2193 31.23 30.622 31.0233 30.5492 30.5323C30.4039 29.5595 30.4391 28.431 30.6618 27.1414C30.6861 27.0051 30.7553 26.8808 30.8585 26.7885C30.9617 26.6961 31.0924 26.641 31.2306 26.632Z" fill="#FF6161"/>
<path d="M24.6031 35.9411L24.5771 35.6925C27.1665 35.4233 31.2555 34.2027 36.0303 29.9161L36.1977 30.1015C31.3719 34.4334 27.2288 35.6682 24.6031 35.9411Z" fill="#FF6161" fill-opacity="0.313726"/>
<path d="M28.9192 35.5695C29.2147 35.5325 29.406 35.1172 29.3465 34.642C29.2871 34.1667 28.9994 33.8113 28.7039 33.8483C28.4085 33.8852 28.2171 34.3005 28.2766 34.7758C28.336 35.2511 28.6238 35.6064 28.9192 35.5695Z" fill="#FF6161"/>
<path d="M24.5785 35.6933L24.6032 35.9403C25.63 35.8339 26.8845 35.5811 28.3261 35.0546C28.2988 34.9748 28.2792 34.8927 28.2675 34.8093C26.8363 35.3342 25.594 35.587 24.5785 35.6933Z" fill="#4F575F" fill-opacity="0.313726"/>
<path d="M37.8953 19.6375L37.8961 19.6367L37.6588 19.4596C33.6865 23.1866 27.6494 25.0949 22.1631 25.688V37.689L22.3975 37.8636V25.8638C27.857 25.2761 33.9544 23.3323 37.8953 19.6375Z" fill="#FF6161" fill-opacity="0.439216"/>
<g opacity="0.6">
<path d="M14.4955 27.3557C13.1061 27.1746 11.7298 26.9047 10.375 26.5474V27.6072C11.7298 27.9646 13.1061 28.2348 14.4955 28.4159V27.3557ZM14.4955 29.3531C13.1061 29.172 11.7298 28.9018 10.375 28.5444V29.6043C11.7298 29.9617 13.1061 30.2318 14.4955 30.413V29.3531ZM10.375 30.5419V31.6017C12.5108 32.1689 14.6994 32.5148 16.9061 32.6339V31.5737C14.6994 31.4547 12.5109 31.1089 10.375 30.5419ZM10.375 32.5389V33.5987C12.5108 34.166 14.6994 34.5119 16.9061 34.631V33.5711C14.6994 33.452 12.5108 33.1061 10.375 32.5389ZM10.375 34.5359V35.5962C12.5109 36.1633 14.6994 36.509 16.9061 36.628V35.5681C14.6994 35.449 12.5108 35.1032 10.375 34.5359Z" fill="#49E4A3"/>
</g>
</g>
<defs>
<clipPath id="clip0_2729_2655">
<rect width="40" height="40" fill="white"/>
</clipPath>
</defs>
</svg>
