<svg width="40" height="40" viewBox="0 0 40 40" fill="none" xmlns="http://www.w3.org/2000/svg">
<g clip-path="url(#clip0_2431_52)">
<path d="M16.6667 26.6667H23.3334C23.8638 26.6667 24.3726 26.456 24.7476 26.0809C25.1227 25.7058 25.3334 25.1971 25.3334 24.6667V18.6667C25.3334 18.1362 25.1227 17.6275 24.7476 17.2525C24.3726 16.8774 23.8638 16.6667 23.3334 16.6667V15.3333C23.3334 14.4493 22.9822 13.6014 22.3571 12.9763C21.732 12.3512 20.8841 12 20.0001 12C19.116 12 18.2682 12.3512 17.6431 12.9763C17.0179 13.6014 16.6667 14.4493 16.6667 15.3333V16.6667C16.1363 16.6667 15.6276 16.8774 15.2525 17.2525C14.8775 17.6275 14.6667 18.1362 14.6667 18.6667V24.6667C14.6667 25.1971 14.8775 25.7058 15.2525 26.0809C15.6276 26.456 16.1363 26.6667 16.6667 26.6667ZM18.0001 15.3333C18.0001 14.8029 18.2108 14.2942 18.5859 13.9191C18.9609 13.544 19.4696 13.3333 20.0001 13.3333C20.5305 13.3333 21.0392 13.544 21.4143 13.9191C21.7894 14.2942 22.0001 14.8029 22.0001 15.3333V16.6667H18.0001V15.3333ZM16.0001 18.6667C16.0001 18.4899 16.0703 18.3203 16.1953 18.1953C16.3204 18.0702 16.4899 18 16.6667 18H23.3334C23.5102 18 23.6798 18.0702 23.8048 18.1953C23.9298 18.3203 24.0001 18.4899 24.0001 18.6667V24.6667C24.0001 24.8435 23.9298 25.013 23.8048 25.1381C23.6798 25.2631 23.5102 25.3333 23.3334 25.3333H16.6667C16.4899 25.3333 16.3204 25.2631 16.1953 25.1381C16.0703 25.013 16.0001 24.8435 16.0001 24.6667V18.6667Z" fill="#384BFF"/>
<path d="M19.3333 23.2107V23.3334C19.3333 23.5102 19.4036 23.6797 19.5286 23.8048C19.6536 23.9298 19.8232 24 20 24C20.1768 24 20.3464 23.9298 20.4714 23.8048C20.5964 23.6797 20.6667 23.5102 20.6667 23.3334V23.2107C21.1115 23.0534 21.4864 22.744 21.7251 22.337C21.9638 21.9301 22.051 21.4519 21.9712 20.9869C21.8914 20.5219 21.6498 20.1 21.2891 19.796C20.9284 19.4919 20.4718 19.3251 20 19.3251C19.5282 19.3251 19.0716 19.4919 18.7109 19.796C18.3502 20.1 18.1086 20.5219 18.0288 20.9869C17.949 21.4519 18.0362 21.9301 18.2749 22.337C18.5136 22.744 18.8885 23.0534 19.3333 23.2107ZM20 20.6667C20.1768 20.6667 20.3464 20.7369 20.4714 20.862C20.5964 20.987 20.6667 21.1565 20.6667 21.3334C20.6667 21.5102 20.5964 21.6797 20.4714 21.8048C20.3464 21.9298 20.1768 22 20 22C19.8232 22 19.6536 21.9298 19.5286 21.8048C19.4036 21.6797 19.3333 21.5102 19.3333 21.3334C19.3333 21.1565 19.4036 20.987 19.5286 20.862C19.6536 20.7369 19.8232 20.6667 20 20.6667Z" fill="#384BFF"/>
<path d="M8.66665 20C8.66665 26.2594 13.7406 31.3334 20 31.3334C26.2593 31.3334 31.3333 26.2594 31.3333 20C31.3333 13.7407 26.2593 8.66669 20 8.66669C13.7433 8.67335 8.67331 13.7434 8.66665 20ZM20 10C25.5226 10 30 14.4774 30 20C30 25.5227 25.5226 30 20 30C14.4773 30 9.99998 25.5227 9.99998 20C10.0066 14.48 14.48 10.0067 20 10ZM33.3333 34.6667C32.7438 34.6689 32.1717 34.8664 31.7064 35.2282C31.241 35.5901 30.9087 36.0959 30.7613 36.6667H26V32.6367C27.4905 31.935 28.8448 30.9746 30 29.8C30.0627 29.7378 30.1125 29.6638 30.1464 29.5822C30.1802 29.5006 30.1976 29.4131 30.1973 29.3247C30.1971 29.2364 30.1793 29.1489 30.1449 29.0675C30.1106 28.9861 30.0604 28.9124 29.9974 28.8505C29.9343 28.7887 29.8595 28.74 29.7774 28.7073C29.6954 28.6745 29.6076 28.6585 29.5193 28.66C29.4309 28.6615 29.3438 28.6805 29.2629 28.716C29.182 28.7515 29.1089 28.8027 29.048 28.8667C27.916 30.0239 26.5724 30.953 25.09 31.6034C25.0005 31.6389 24.9199 31.6938 24.854 31.764C24.8466 31.772 24.8426 31.7827 24.8353 31.792C24.7866 31.8463 24.7471 31.9082 24.7186 31.9754C24.7056 32.0172 24.6969 32.0604 24.6926 32.104C24.6803 32.1418 24.6716 32.1806 24.6666 32.22V36.6667C24.6666 37.0203 24.8071 37.3594 25.0572 37.6095C25.3072 37.8595 25.6464 38 26 38H30.7613C30.8869 38.4817 31.1449 38.9186 31.5063 39.261C31.8676 39.6034 32.3177 39.8376 32.8055 39.937C33.2933 40.0365 33.7991 39.9972 34.2657 39.8235C34.7322 39.6499 35.1407 39.349 35.4448 38.9549C35.7489 38.5608 35.9364 38.0893 35.986 37.594C36.0356 37.0986 35.9454 36.5993 35.7254 36.1527C35.5055 35.7062 35.1648 35.3302 34.742 35.0675C34.3191 34.8048 33.8311 34.6659 33.3333 34.6667ZM33.3333 38.6667C32.9797 38.6667 32.6406 38.5262 32.3905 38.2762C32.1405 38.0261 32 37.687 32 37.3334C32 36.9797 32.1405 36.6406 32.3905 36.3905C32.6406 36.1405 32.9797 36 33.3333 36C33.6869 36 34.0261 36.1405 34.2761 36.3905C34.5262 36.6406 34.6666 36.9797 34.6666 37.3334C34.6666 37.687 34.5262 38.0261 34.2761 38.2762C34.0261 38.5262 33.6869 38.6667 33.3333 38.6667ZM5.23865 27.3334H8.45998C8.46531 27.3334 8.46998 27.33 8.47598 27.33C8.54229 27.327 8.60774 27.3138 8.66998 27.2907C8.70108 27.2805 8.73138 27.268 8.76065 27.2534C8.76798 27.2494 8.77665 27.248 8.78398 27.2434C8.79131 27.2387 8.80265 27.2247 8.81331 27.2174C8.87379 27.1801 8.92745 27.1327 8.97198 27.0774C8.97985 27.0671 8.98719 27.0564 8.99398 27.0454C9.03714 26.9846 9.0696 26.917 9.08998 26.8454C9.08998 26.8354 9.09398 26.8254 9.09598 26.8154C9.11211 26.7672 9.1224 26.7173 9.12665 26.6667C9.1232 26.6415 9.11808 26.6165 9.11131 26.592C9.11131 26.5834 9.11131 26.5754 9.10665 26.566C9.09533 26.4878 9.0698 26.4124 9.03131 26.3434L9.02798 26.3327C8.34438 25.1527 7.85757 23.8692 7.58665 22.5327C7.56914 22.4469 7.5349 22.3654 7.48589 22.2928C7.43688 22.2203 7.37406 22.1581 7.30101 22.1098C7.22796 22.0615 7.14612 22.0281 7.06015 22.0114C6.97418 21.9947 6.88578 21.9952 6.79998 22.0127C6.71418 22.0302 6.63267 22.0644 6.56011 22.1134C6.48754 22.1625 6.42534 22.2253 6.37706 22.2983C6.32877 22.3714 6.29534 22.4532 6.27869 22.5392C6.26203 22.6252 6.26247 22.7136 6.27998 22.7994C6.50398 23.9054 6.86265 24.9794 7.34665 25.9994H5.23865C5.07638 25.3709 4.69049 24.8232 4.15331 24.459C3.61612 24.0947 2.96452 23.9388 2.32065 24.0206C1.67677 24.1024 1.08482 24.4162 0.655764 24.9032C0.226705 25.3902 -0.0100098 26.017 -0.0100098 26.666C-0.0100098 27.3151 0.226705 27.9418 0.655764 28.4288C1.08482 28.9158 1.67677 29.2296 2.32065 29.3114C2.96452 29.3932 3.61612 29.2374 4.15331 28.8731C4.69049 28.5088 5.07638 27.9618 5.23865 27.3334ZM2.66665 28C2.31302 28 1.97389 27.8595 1.72384 27.6095C1.47379 27.3594 1.33331 27.0203 1.33331 26.6667C1.33331 26.3131 1.47379 25.9739 1.72384 25.7239C1.97389 25.4738 2.31302 25.3334 2.66665 25.3334C3.02027 25.3334 3.35941 25.4738 3.60945 25.7239C3.8595 25.9739 3.99998 26.3131 3.99998 26.6667C3.99998 27.0203 3.8595 27.3594 3.60945 27.6095C3.35941 27.8595 3.02027 28 2.66665 28Z" fill="#384BFF"/>
<path d="M2.06493e-06 13.3333C-0.000805004 13.9816 0.234993 14.6078 0.663138 15.0945C1.09128 15.5812 1.68234 15.8949 2.32536 15.9767C2.96839 16.0585 3.61918 15.9029 4.15557 15.5389C4.69197 15.175 5.0771 14.6278 5.23867 14H8.478C8.544 13.996 8.60867 13.9827 8.67067 13.9607C8.69996 13.9513 8.72849 13.9397 8.756 13.926C8.79154 13.9073 8.82505 13.8849 8.856 13.8593C8.91223 13.8169 8.96092 13.7653 9 13.7067C9.00867 13.694 9.02 13.6847 9.028 13.6713C9.88283 12.1879 11.03 10.8935 12.4 9.86667C12.47 9.81415 12.529 9.74834 12.5737 9.673C12.6183 9.59767 12.6476 9.51429 12.66 9.42762C12.6724 9.34095 12.6675 9.2527 12.6458 9.16789C12.6241 9.08308 12.5859 9.00338 12.5333 8.93334C12.4808 8.8633 12.415 8.8043 12.3397 8.75969C12.2643 8.71509 12.181 8.68576 12.0943 8.67337C12.0076 8.66099 11.9194 8.6658 11.8345 8.68753C11.7497 8.70926 11.67 8.74748 11.6 8.80001C10.197 9.85684 9.00578 11.1686 8.08867 12.6667H5.23867C5.0771 12.0389 4.69197 11.4917 4.15557 11.1278C3.61918 10.7638 2.96839 10.6082 2.32536 10.69C1.68234 10.7718 1.09128 11.0855 0.663138 11.5722C0.234993 12.0589 -0.000805004 12.6851 2.06493e-06 13.3333ZM4 13.3333C4 13.687 3.85953 14.0261 3.60948 14.2761C3.35943 14.5262 3.02029 14.6667 2.66667 14.6667C2.31305 14.6667 1.97391 14.5262 1.72386 14.2761C1.47381 14.0261 1.33334 13.687 1.33334 13.3333C1.33334 12.9797 1.47381 12.6406 1.72386 12.3905C1.97391 12.1405 2.31305 12 2.66667 12C3.02029 12 3.35943 12.1405 3.60948 12.3905C3.85953 12.6406 4 12.9797 4 13.3333ZM37.3333 24C36.7439 24.0022 36.1717 24.1997 35.7064 24.5615C35.241 24.9234 34.9087 25.4292 34.7613 26H32.6527C33.1373 24.9808 33.4955 23.9062 33.7193 22.8C33.7547 22.6266 33.7197 22.4463 33.6222 22.2987C33.5246 22.1512 33.3724 22.0484 33.199 22.013C33.0256 21.9776 32.8453 22.0126 32.6977 22.1102C32.5501 22.2078 32.4474 22.36 32.412 22.5333C32.1416 23.8698 31.6552 25.1533 30.972 26.3333V26.342C30.9322 26.4125 30.9059 26.4898 30.8947 26.57C30.8947 26.5773 30.8947 26.584 30.89 26.5913C30.8833 26.616 30.8773 26.6413 30.8733 26.6667C30.8774 26.7191 30.8877 26.7708 30.904 26.8207C30.9233 26.9021 30.9584 26.9788 31.0073 27.0467C31.014 27.0567 31.0193 27.0667 31.0267 27.076C31.0718 27.1316 31.1259 27.1794 31.1867 27.2173C31.1973 27.2247 31.204 27.236 31.2153 27.2427C31.2267 27.2493 31.2313 27.2487 31.2387 27.2527C31.268 27.268 31.2987 27.2807 31.3307 27.2907C31.3926 27.313 31.4576 27.326 31.5233 27.3293C31.5293 27.3293 31.534 27.3327 31.54 27.3327H34.7613C34.8868 27.8145 35.1448 28.2514 35.5061 28.5939C35.8674 28.9364 36.3174 29.1707 36.8052 29.2703C37.293 29.3698 37.7989 29.3306 38.2655 29.157C38.7321 28.9834 39.1407 28.6825 39.4449 28.2884C39.749 27.8943 39.9366 27.4228 39.9862 26.9274C40.0358 26.4321 39.9456 25.9327 39.7257 25.4861C39.5058 25.0395 39.165 24.6635 38.7421 24.4008C38.3192 24.1381 37.8312 23.9992 37.3333 24ZM37.3333 28C36.9797 28 36.6406 27.8595 36.3905 27.6095C36.1405 27.3594 36 27.0203 36 26.6667C36 26.3131 36.1405 25.9739 36.3905 25.7239C36.6406 25.4738 36.9797 25.3333 37.3333 25.3333C37.687 25.3333 38.0261 25.4738 38.2761 25.7239C38.5262 25.9739 38.6667 26.3131 38.6667 26.6667C38.6667 27.0203 38.5262 27.3594 38.2761 27.6095C38.0261 27.8595 37.687 28 37.3333 28ZM15.3333 32.2313V32.22C15.3291 32.1826 15.3217 32.1456 15.3113 32.1093C15.3066 32.0641 15.2975 32.0195 15.284 31.976C15.2559 31.9099 15.2172 31.8489 15.1693 31.7953C15.1607 31.7853 15.1567 31.7733 15.148 31.764C15.0819 31.6937 15.0011 31.6389 14.9113 31.6033C13.1663 30.8331 11.6159 29.6819 10.374 28.234C10.3179 28.1649 10.2485 28.1078 10.17 28.066C10.0915 28.0241 10.0053 27.9984 9.9167 27.9904C9.82808 27.9824 9.73874 27.9922 9.65396 28.0192C9.56918 28.0462 9.49067 28.09 9.42306 28.1478C9.35545 28.2057 9.30011 28.2765 9.2603 28.3561C9.22049 28.4357 9.19701 28.5224 9.19126 28.6112C9.18551 28.7 9.19759 28.7891 9.2268 28.8732C9.25601 28.9572 9.30176 29.0346 9.36134 29.1007C10.6434 30.593 12.2235 31.8006 14 32.646V36.6667H9.23867C9.07641 36.0382 8.69052 35.4906 8.15333 35.1263C7.61614 34.762 6.96454 34.6061 6.32067 34.6879C5.67679 34.7697 5.08485 35.0835 4.65579 35.5705C4.22673 36.0575 3.99001 36.6843 3.99001 37.3333C3.99001 37.9824 4.22673 38.6092 4.65579 39.0962C5.08485 39.5832 5.67679 39.897 6.32067 39.9788C6.96454 40.0605 7.61614 39.9047 8.15333 39.5404C8.69052 39.1761 9.07641 38.6285 9.23867 38H14C14.3536 38 14.6928 37.8595 14.9428 37.6095C15.1929 37.3594 15.3333 37.0203 15.3333 36.6667V32.2313ZM6.66667 38.6667C6.31305 38.6667 5.97391 38.5262 5.72386 38.2762C5.47381 38.0261 5.33334 37.687 5.33334 37.3333C5.33334 36.9797 5.47381 36.6406 5.72386 36.3905C5.97391 36.1405 6.31305 36 6.66667 36C7.02029 36 7.35943 36.1405 7.60948 36.3905C7.85953 36.6406 8 36.9797 8 37.3333C8 37.687 7.85953 38.0261 7.60948 38.2762C7.35943 38.5262 7.02029 38.6667 6.66667 38.6667ZM22.5333 32.4133C20.8611 32.7492 19.1389 32.7492 17.4667 32.4133C17.38 32.3935 17.2903 32.3911 17.2027 32.4064C17.1151 32.4218 17.0315 32.4544 16.9568 32.5026C16.882 32.5507 16.8176 32.6133 16.7674 32.6866C16.7172 32.76 16.6822 32.8427 16.6644 32.9298C16.6466 33.0169 16.6465 33.1066 16.6639 33.1938C16.6813 33.281 16.716 33.3638 16.7659 33.4374C16.8158 33.5109 16.8799 33.5738 16.9545 33.6222C17.029 33.6706 17.1125 33.7037 17.2 33.7193C17.904 33.856 18.6167 33.9393 19.3333 33.9667V39.3333C19.3333 39.5102 19.4036 39.6797 19.5286 39.8048C19.6536 39.9298 19.8232 40 20 40C20.1768 40 20.3464 39.9298 20.4714 39.8048C20.5964 39.6797 20.6667 39.5102 20.6667 39.3333V33.9667C21.3831 33.9388 22.0962 33.8561 22.8 33.7193C22.9696 33.6804 23.1173 33.5767 23.2115 33.4304C23.3057 33.2841 23.3389 33.1067 23.3041 32.9362C23.2693 32.7657 23.1692 32.6155 23.0252 32.5178C22.8812 32.4201 22.7046 32.3826 22.5333 32.4133ZM14 2.00001H9.23867C9.07641 1.37157 8.69052 0.82388 8.15333 0.459605C7.61614 0.0953304 6.96454 -0.0605223 6.32067 0.0212606C5.67679 0.103044 5.08485 0.416848 4.65579 0.903852C4.22673 1.39086 3.99001 2.01762 3.99001 2.66667C3.99001 3.31572 4.22673 3.94249 4.65579 4.4295C5.08485 4.9165 5.67679 5.2303 6.32067 5.31209C6.96454 5.39387 7.61614 5.23802 8.15333 4.87374C8.69052 4.50947 9.07641 3.96178 9.23867 3.33334H14V7.78134C14 7.80801 14.0127 7.83401 14.016 7.86067C14.0227 7.93001 14.0407 7.99734 14.0687 8.06067C14.1104 8.15024 14.1727 8.22862 14.2507 8.28934C14.3106 8.33864 14.3784 8.37741 14.4513 8.40401C14.4987 8.41934 14.548 8.42867 14.598 8.43334C14.6199 8.43933 14.6422 8.44401 14.6647 8.44734C14.7602 8.44533 14.8541 8.42258 14.94 8.38067C15.7521 8.02853 16.599 7.76263 17.4667 7.58734C17.64 7.55198 17.7922 7.4492 17.8898 7.3016C17.9874 7.15401 18.0224 6.9737 17.987 6.80034C17.9516 6.62698 17.8489 6.47476 17.7013 6.37718C17.5537 6.2796 17.3734 6.24465 17.2 6.28001C16.5667 6.40934 15.9427 6.58334 15.3333 6.80001V3.33334C15.3333 2.97972 15.1929 2.64058 14.9428 2.39053C14.6928 2.14048 14.3536 2.00001 14 2.00001ZM6.66667 4.00001C6.31305 4.00001 5.97391 3.85953 5.72386 3.60948C5.47381 3.35943 5.33334 3.0203 5.33334 2.66667C5.33334 2.31305 5.47381 1.97391 5.72386 1.72386C5.97391 1.47382 6.31305 1.33334 6.66667 1.33334C7.02029 1.33334 7.35943 1.47382 7.60948 1.72386C7.85953 1.97391 8 2.31305 8 2.66667C8 3.0203 7.85953 3.35943 7.60948 3.60948C7.35943 3.85953 7.02029 4.00001 6.66667 4.00001ZM30.7613 3.33334C30.9236 3.96178 31.3095 4.50947 31.8467 4.87374C32.3839 5.23802 33.0355 5.39387 33.6793 5.31209C34.3232 5.2303 34.9152 4.9165 35.3442 4.4295C35.7733 3.94249 36.01 3.31572 36.01 2.66667C36.01 2.01762 35.7733 1.39086 35.3442 0.903852C34.9152 0.416848 34.3232 0.103044 33.6793 0.0212606C33.0355 -0.0605223 32.3839 0.0953304 31.8467 0.459605C31.3095 0.82388 30.9236 1.37157 30.7613 2.00001H26C25.6464 2.00001 25.3072 2.14048 25.0572 2.39053C24.8071 2.64058 24.6667 2.97972 24.6667 3.33334V7.77934C24.6707 7.81867 24.6785 7.85751 24.69 7.89534C24.694 7.93934 24.7033 7.98201 24.716 8.02401C24.7447 8.09067 24.784 8.15334 24.8327 8.20734C24.84 8.21601 24.844 8.22734 24.8513 8.23534C24.9173 8.30534 24.998 8.36067 25.0873 8.39601C26.5695 9.04539 27.9131 9.9733 29.0453 11.1293C29.1054 11.1961 29.1783 11.25 29.2596 11.2878C29.341 11.3257 29.4292 11.3467 29.5189 11.3497C29.6086 11.3527 29.6979 11.3375 29.7816 11.3051C29.8653 11.2727 29.9416 11.2237 30.0059 11.1611C30.0702 11.0985 30.1212 11.0235 30.1559 10.9408C30.1905 10.858 30.2081 10.769 30.2075 10.6793C30.207 10.5895 30.1883 10.5008 30.1527 10.4185C30.117 10.3361 30.0651 10.2618 30 10.2C28.8449 9.02541 27.4906 8.06499 26 7.36334V3.33334H30.7613ZM33.3333 1.33334C33.687 1.33334 34.0261 1.47382 34.2761 1.72386C34.5262 1.97391 34.6667 2.31305 34.6667 2.66667C34.6667 3.0203 34.5262 3.35943 34.2761 3.60948C34.0261 3.85953 33.687 4.00001 33.3333 4.00001C32.9797 4.00001 32.6406 3.85953 32.3905 3.60948C32.1405 3.35943 32 3.0203 32 2.66667C32 2.31305 32.1405 1.97391 32.3905 1.72386C32.6406 1.47382 32.9797 1.33334 33.3333 1.33334ZM20 6.4927e-06C19.8232 6.4927e-06 19.6536 0.0702444 19.5286 0.195269C19.4036 0.320293 19.3333 0.489862 19.3333 0.666673V6.66667C19.3333 6.84348 19.4036 7.01305 19.5286 7.13808C19.6536 7.2631 19.8232 7.33334 20 7.33334C20.8507 7.33334 21.7 7.41801 22.5333 7.58667C22.7046 7.61737 22.8812 7.57987 23.0252 7.48218C23.1692 7.38449 23.2693 7.23435 23.3041 7.06383C23.3389 6.89332 23.3057 6.71595 23.2115 6.56962C23.1173 6.42328 22.9696 6.31959 22.8 6.28067C22.0962 6.14389 21.3831 6.0612 20.6667 6.03334V0.666673C20.6667 0.489862 20.5964 0.320293 20.4714 0.195269C20.3464 0.0702444 20.1768 6.4927e-06 20 6.4927e-06ZM34.7613 14C34.9236 14.6284 35.3095 15.1761 35.8467 15.5404C36.3839 15.9047 37.0355 16.0605 37.6793 15.9788C38.3232 15.897 38.9152 15.5832 39.3442 15.0962C39.7733 14.6092 40.01 13.9824 40.01 13.3333C40.01 12.6843 39.7733 12.0575 39.3442 11.5705C38.9152 11.0835 38.3232 10.7697 37.6793 10.6879C37.0355 10.6061 36.3839 10.762 35.8467 11.1263C35.3095 11.4905 34.9236 12.0382 34.7613 12.6667H31.54C31.5273 12.6667 31.5173 12.6733 31.5053 12.6733C31.4667 12.6775 31.4285 12.6853 31.3913 12.6967C31.3366 12.7075 31.2835 12.7254 31.2333 12.75C31.228 12.75 31.2213 12.75 31.2153 12.7567C31.2093 12.7633 31.198 12.7747 31.1867 12.782C31.1259 12.82 31.0718 12.8677 31.0267 12.9233C31.0193 12.9327 31.014 12.9427 31.0073 12.9527C30.9632 13.0131 30.93 13.0808 30.9093 13.1527C30.9093 13.1613 30.9093 13.17 30.904 13.1787C30.8876 13.2288 30.8773 13.2807 30.8733 13.3333C30.8767 13.3587 30.882 13.384 30.888 13.4093C30.888 13.4167 30.8913 13.4233 30.8927 13.4307C30.904 13.5107 30.93 13.588 30.97 13.6587V13.6673C32.0819 15.5926 32.667 17.7768 32.6667 20C32.6667 20.1768 32.7369 20.3464 32.8619 20.4714C32.987 20.5964 33.1565 20.6667 33.3333 20.6667H39.3333C39.5101 20.6667 39.6797 20.5964 39.8047 20.4714C39.9298 20.3464 40 20.1768 40 20C40 19.8232 39.9298 19.6536 39.8047 19.5286C39.6797 19.4036 39.5101 19.3333 39.3333 19.3333H33.978C33.8906 17.4849 33.4374 15.6721 32.6447 14H34.7613ZM37.3333 12C37.687 12 38.0261 12.1405 38.2761 12.3905C38.5262 12.6406 38.6667 12.9797 38.6667 13.3333C38.6667 13.687 38.5262 14.0261 38.2761 14.2761C38.0261 14.5262 37.687 14.6667 37.3333 14.6667C36.9797 14.6667 36.6406 14.5262 36.3905 14.2761C36.1405 14.0261 36 13.687 36 13.3333C36 12.9797 36.1405 12.6406 36.3905 12.3905C36.6406 12.1405 36.9797 12 37.3333 12ZM0.666669 20.6667H6.66667C6.84348 20.6667 7.01305 20.5964 7.13807 20.4714C7.2631 20.3464 7.33334 20.1768 7.33334 20C7.33193 18.653 7.5455 17.3144 7.966 16.0347C7.99336 15.9515 8.00407 15.8638 7.99752 15.7765C7.99097 15.6891 7.96728 15.604 7.92782 15.5258C7.88835 15.4477 7.83388 15.378 7.76751 15.3209C7.70114 15.2638 7.62417 15.2204 7.541 15.193C7.45783 15.1656 7.37009 15.1549 7.28278 15.1615C7.19547 15.168 7.1103 15.1917 7.03215 15.2312C6.95399 15.2707 6.88438 15.3251 6.82727 15.3915C6.77017 15.4579 6.72669 15.5348 6.69934 15.618C6.30769 16.8202 6.08118 18.0701 6.026 19.3333H0.666669C0.489858 19.3333 0.320288 19.4036 0.195264 19.5286C0.07024 19.6536 2.06493e-06 19.8232 2.06493e-06 20C2.06493e-06 20.1768 0.07024 20.3464 0.195264 20.4714C0.320288 20.5964 0.489858 20.6667 0.666669 20.6667Z" fill="#384BFF"/>
</g>
<defs>
<clipPath id="clip0_2431_52">
<rect width="40" height="40" fill="white"/>
</clipPath>
</defs>
</svg>
