<svg width="40" height="40" viewBox="0 0 40 40" fill="none" xmlns="http://www.w3.org/2000/svg">
<g clip-path="url(#clip0_2730_2773)">
<path fill-rule="evenodd" clip-rule="evenodd" d="M1.5011 21.2963C4.03969 14.8145 7.55907 11.2391 13.6611 11.168C19.7631 11.2391 23.2824 14.8145 25.8211 21.2963C26.9902 24.2813 26.6706 25.7656 24.1915 26.2995C21.7138 26.8333 17.6874 27.0556 13.6611 27.0556C9.63477 27.0556 5.60852 26.8333 3.13071 26.2995C0.651725 25.7656 0.332038 24.2813 1.5011 21.2963Z" fill="#5D689E"/>
<path fill-rule="evenodd" clip-rule="evenodd" d="M1.50118 21.2963C3.88915 15.1991 7.14532 11.674 12.6023 11.2179C18.0727 11.6823 21.3345 15.3348 23.7258 21.6591C24.7067 24.2535 24.6392 25.7533 23.1277 26.4956C20.6459 26.8882 17.1536 27.0556 13.6611 27.0556C9.63477 27.0556 5.60852 26.8332 3.13071 26.2995C0.651725 25.7656 0.332116 24.2813 1.50118 21.2963Z" fill="#7986BF"/>
<path fill-rule="evenodd" clip-rule="evenodd" d="M13.9934 25.977C12.3798 22.1197 9.24898 12.9297 5.66406 10.7615C10.853 1.59969 18.8687 5.31329 21.6581 10.7615C18.0732 12.9297 15.6071 22.1197 13.9934 25.977Z" fill="#323E66"/>
<path fill-rule="evenodd" clip-rule="evenodd" d="M13.6609 15.039C8.3353 14.6936 6.92889 4.12836 13.6609 4.12836C20.393 4.12836 18.9865 14.6936 13.6609 15.039Z" fill="#FDB0A0"/>
<path fill-rule="evenodd" clip-rule="evenodd" d="M13.1203 14.9655C8.38814 13.999 7.2297 4.68828 13.1203 4.15359C19.011 4.68836 17.8525 13.999 13.1203 14.9655Z" fill="#FFCEC0"/>
<path fill-rule="evenodd" clip-rule="evenodd" d="M9.32227 7.40187C9.80172 5.56828 11.1766 4.12836 13.6615 4.12836C16.1463 4.12836 17.5213 5.56828 18.0007 7.40187C16.7833 7.98203 15.2838 8.32461 13.6615 8.32461C12.0392 8.32461 10.5397 7.98195 9.32227 7.40187Z" fill="#FF6161"/>
<path fill-rule="evenodd" clip-rule="evenodd" d="M5.66406 10.7615C10.5422 5.15774 16.7802 5.15774 21.6582 10.7615C19.4653 -2.46218 7.85687 -2.46218 5.66406 10.7615Z" fill="#909CD1"/>
<path fill-rule="evenodd" clip-rule="evenodd" d="M13.6611 6.55867C16.4401 6.55867 19.2192 7.95961 21.6582 10.7615C20.5618 4.14969 17.1114 0.84375 13.6611 0.84375V6.55867Z" fill="#7986BF"/>
<path d="M20.9927 17.8317H6.32906C6.10957 17.8317 5.93164 18.0097 5.93164 18.2291V28.1438C5.93164 28.3632 6.10957 28.5412 6.32906 28.5412H20.9927C21.2122 28.5412 21.3902 28.3632 21.3902 28.1438V18.2291C21.3902 18.0097 21.2122 17.8317 20.9927 17.8317Z" fill="#00ABDA"/>
<path d="M19.8161 17.8317H6.32906C6.10957 17.8317 5.93164 18.0097 5.93164 18.2291V28.1438C5.93164 28.3632 6.10957 28.5412 6.32906 28.5412H19.8161C20.0356 28.5412 20.2135 28.3632 20.2135 28.1438V18.2291C20.2135 18.0097 20.0356 17.8317 19.8161 17.8317Z" fill="#04B6E7"/>
<path d="M18.2275 32.5231L22.1473 28.6034L23.8379 30.294L19.9181 34.2137L18.2275 32.5231Z" fill="#909CD1"/>
<path d="M19.3398 33.6356L23.2596 29.7159L23.8376 30.2938L19.9178 34.2135L19.3398 33.6356Z" fill="#7986BF"/>
<path d="M36.1777 30.5922C40.1341 26.6358 40.1341 20.2212 36.1777 16.2648C32.2212 12.3084 25.8066 12.3084 21.8502 16.2648C17.8938 20.2212 17.8938 26.6358 21.8502 30.5922C25.8066 34.5486 32.2212 34.5486 36.1777 30.5922Z" fill="#2A92FA"/>
<path fill-rule="evenodd" clip-rule="evenodd" d="M28.7707 13.3001C23.2905 13.4322 18.8887 17.9159 18.8887 23.4279C18.8887 28.9398 23.2905 33.4236 28.7707 33.5557C34.2509 33.4236 38.6527 28.9398 38.6527 23.4279C38.6527 17.9159 34.2508 13.4323 28.7707 13.3001ZM28.5218 15.6881C28.6051 15.6881 28.688 15.6899 28.7707 15.6925C28.8534 15.6899 28.9362 15.6881 29.0196 15.6881C33.2941 15.6881 36.7594 19.1534 36.7594 23.4279C36.7594 27.7024 33.2941 31.1677 29.0196 31.1677C28.9366 31.1676 28.8536 31.1661 28.7707 31.1633C28.688 31.1659 28.6051 31.1677 28.5218 31.1677C24.2473 31.1677 20.782 27.7025 20.782 23.4279C20.782 19.1533 24.2473 15.6881 28.5218 15.6881Z" fill="#4EB1FC"/>
<path fill-rule="evenodd" clip-rule="evenodd" d="M13.7913 36.2309L18.4122 31.61C18.7344 31.2878 19.26 31.2878 19.5822 31.61L20.8373 32.8652C21.1595 33.1873 21.1595 33.713 20.8373 34.0352L16.2164 38.6561C15.5494 39.3231 14.4582 39.3231 13.7912 38.6561C13.1243 37.9891 13.1244 36.8979 13.7913 36.2309Z" fill="#495586"/>
<path fill-rule="evenodd" clip-rule="evenodd" d="M20.4774 32.505L20.8375 32.8652C21.1597 33.1874 21.1597 33.7131 20.8375 34.0352L16.2166 38.6562C15.6415 39.2313 14.7508 39.3104 14.0889 38.8936L20.4774 32.5051V32.505Z" fill="#323E66"/>
<path d="M34.487 28.9014C37.5096 25.8788 37.5096 20.9782 34.487 17.9556C31.4645 14.933 26.5639 14.933 23.5413 17.9556C20.5187 20.9782 20.5187 25.8788 23.5413 28.9014C26.5639 31.924 31.4644 31.924 34.487 28.9014Z" fill="#F3F3FF"/>
<path fill-rule="evenodd" clip-rule="evenodd" d="M29.7122 1.26359L34.0611 8.79601C34.2087 9.0518 34.2087 9.34461 34.0611 9.60047C33.9134 9.85633 33.6597 10.0027 33.3644 10.0027H24.6668C24.3714 10.0027 24.1178 9.85633 23.9701 9.60047C23.8225 9.34469 23.8225 9.05187 23.9701 8.79601L28.3189 1.26359C28.4666 1.00781 28.7202 0.861404 29.0156 0.861404C29.311 0.861404 29.5645 1.00781 29.7122 1.26359Z" fill="#E8333C"/>
<path fill-rule="evenodd" clip-rule="evenodd" d="M32.0818 10.0026H24.6668C24.3714 10.0026 24.1178 9.85617 23.9701 9.60038C23.8225 9.3446 23.8225 9.05179 23.9701 8.79593L28.3189 1.26351C28.336 1.23398 28.3545 1.20585 28.3743 1.17929C28.3941 1.20585 28.4126 1.23398 28.4297 1.26351L32.7786 8.79593C32.9262 9.05171 32.9262 9.34453 32.7786 9.60038C32.6309 9.85617 32.3772 10.0026 32.0819 10.0026H32.0818Z" fill="#FF6161"/>
<path fill-rule="evenodd" clip-rule="evenodd" d="M28.4717 3.72085C28.4717 3.57656 28.529 3.43817 28.631 3.33614C28.7331 3.23411 28.8714 3.17679 29.0157 3.17679C29.16 3.17679 29.2984 3.23411 29.4005 3.33614C29.5025 3.43817 29.5598 3.57656 29.5598 3.72085V6.64655C29.5598 6.79085 29.5025 6.92923 29.4005 7.03126C29.2984 7.1333 29.16 7.19062 29.0157 7.19062C28.8714 7.19062 28.7331 7.1333 28.631 7.03126C28.529 6.92923 28.4717 6.79085 28.4717 6.64655V3.72085ZM28.4717 8.13359C28.4717 7.98929 28.529 7.85091 28.631 7.74888C28.7331 7.64684 28.8714 7.58952 29.0157 7.58952C29.16 7.58952 29.2984 7.64684 29.4005 7.74888C29.5025 7.85091 29.5598 7.98929 29.5598 8.13359V8.19749C29.5598 8.34179 29.5025 8.48017 29.4005 8.5822C29.2984 8.68423 29.16 8.74155 29.0157 8.74155C28.8714 8.74155 28.7331 8.68423 28.631 8.5822C28.529 8.48017 28.4717 8.34179 28.4717 8.19749V8.13359Z" fill="#F3F3FF"/>
<path fill-rule="evenodd" clip-rule="evenodd" d="M29.0156 21.2142C31.2335 21.2142 33.2252 22.1816 34.5927 23.717C33.2252 25.2524 31.2335 26.2198 29.0156 26.2198C26.7977 26.2198 24.806 25.2524 23.4385 23.717C24.806 22.1816 26.7977 21.2142 29.0156 21.2142Z" fill="#495586"/>
<path fill-rule="evenodd" clip-rule="evenodd" d="M29.0154 21.2142C30.8661 21.2142 32.559 21.8878 33.8635 23.0028C32.435 24.524 30.3334 25.4652 28.2389 25.4652C26.4107 25.4652 24.7364 24.8078 23.4385 23.7169C24.806 22.1815 26.7976 21.2142 29.0155 21.2142H29.0154Z" fill="#5D689E"/>
<path d="M29.0155 24.8801C30.0165 24.8801 30.828 24.0686 30.828 23.0677C30.828 22.0667 30.0165 21.2552 29.0155 21.2552C28.0146 21.2552 27.2031 22.0667 27.2031 23.0677C27.2031 24.0686 28.0146 24.8801 29.0155 24.8801Z" fill="#B6DBFF"/>
<path fill-rule="evenodd" clip-rule="evenodd" d="M29.5623 19.7669C29.5623 19.9119 29.5047 20.051 29.4022 20.1536C29.2996 20.2561 29.1605 20.3137 29.0155 20.3137C28.8704 20.3137 28.7313 20.2561 28.6288 20.1536C28.5262 20.051 28.4686 19.9119 28.4686 19.7669V18.7903C28.4686 18.6453 28.5262 18.5062 28.6288 18.4036C28.7313 18.3011 28.8704 18.2434 29.0155 18.2434C29.1605 18.2434 29.2996 18.3011 29.4022 18.4036C29.5047 18.5062 29.5623 18.6453 29.5623 18.7903V19.7669ZM26.7079 19.8519C26.7782 19.977 26.7963 20.1247 26.7585 20.2631C26.7206 20.4015 26.6298 20.5194 26.5057 20.5913C26.3815 20.6632 26.234 20.6833 26.0952 20.6473C25.9563 20.6112 25.8372 20.5219 25.7637 20.3988L25.357 19.6945C25.2868 19.5694 25.2686 19.4217 25.3064 19.2833C25.3443 19.145 25.4351 19.027 25.5593 18.9551C25.6834 18.8832 25.8309 18.8631 25.9698 18.8992C26.1086 18.9352 26.2277 19.0245 26.3013 19.1477L26.7079 19.8519ZM32.2673 20.3966C32.1949 20.5211 32.0762 20.6118 31.9372 20.6489C31.7981 20.6861 31.65 20.6667 31.5252 20.595C31.4005 20.5233 31.3091 20.405 31.2713 20.2662C31.2334 20.1273 31.252 19.9791 31.3231 19.854L31.7296 19.1498C31.802 19.0254 31.9207 18.9347 32.0597 18.8975C32.1987 18.8603 32.3469 18.8797 32.4716 18.9514C32.5964 19.0232 32.6877 19.1414 32.7256 19.2802C32.7635 19.4191 32.7449 19.5673 32.6738 19.6924L32.2673 20.3966Z" fill="#5D689E"/>
<path fill-rule="evenodd" clip-rule="evenodd" d="M28.5067 23.0275C28.8859 23.0275 29.1951 22.7183 29.1951 22.3391C29.1951 21.96 28.8859 21.6508 28.5067 21.6508C28.1276 21.6508 27.8184 21.96 27.8184 22.3391C27.8184 22.7183 28.1276 23.0275 28.5067 23.0275Z" fill="#F3F3FF"/>
</g>
<defs>
<clipPath id="clip0_2730_2773">
<rect width="40" height="40" fill="white"/>
</clipPath>
</defs>
</svg>
