<svg width="40" height="40" viewBox="0 0 40 40" fill="none" xmlns="http://www.w3.org/2000/svg">
<g clip-path="url(#clip0_2415_1883)">
<path fill-rule="evenodd" clip-rule="evenodd" d="M2.5 34.9999H1.875C1.37772 34.9999 0.900805 35.1974 0.549175 35.5491C0.197544 35.9007 0 36.3776 0 36.8749C0 37.7037 0.32924 38.4985 0.915291 39.0846C1.50134 39.6706 2.2962 39.9999 3.125 39.9999H15.625C16.4538 39.9999 17.2487 39.6706 17.8347 39.0846C18.4208 38.4985 18.75 37.7037 18.75 36.8749C18.75 36.3776 18.5525 35.9007 18.2008 35.5491C17.8492 35.1974 17.3723 34.9999 16.875 34.9999H16.25V29.3749C16.25 28.5461 15.9208 27.7512 15.3347 27.1652C14.7487 26.5791 13.9538 26.2499 13.125 26.2499H5.625C4.7962 26.2499 4.00134 26.5791 3.41529 27.1652C2.82924 27.7512 2.5 28.5461 2.5 29.3749V34.9999ZM23.75 34.9999H23.125C22.0888 34.9999 21.25 35.8386 21.25 36.8749C21.25 37.7037 21.5792 38.4985 22.1653 39.0846C22.7513 39.6706 23.5462 39.9999 24.375 39.9999H36.875C37.7038 39.9999 38.4987 39.6706 39.0847 39.0846C39.6708 38.4985 40 37.7037 40 36.8749C40 36.3776 39.8025 35.9007 39.4508 35.5491C39.0992 35.1974 38.6223 34.9999 38.125 34.9999H37.5V29.3749C37.5 28.5461 37.1708 27.7512 36.5847 27.1652C35.9987 26.5791 35.2038 26.2499 34.375 26.2499H26.875C26.0462 26.2499 25.2513 26.5791 24.6653 27.1652C24.0792 27.7512 23.75 28.5461 23.75 29.3749V34.9999ZM15.6231 36.2499H16.875C17.0408 36.2499 17.1997 36.3157 17.3169 36.4329C17.4342 36.5501 17.5 36.7091 17.5 36.8749C17.5 37.3722 17.3025 37.8491 16.9508 38.2007C16.5992 38.5523 16.1223 38.7499 15.625 38.7499H3.125C2.62772 38.7499 2.15081 38.5523 1.79917 38.2007C1.44754 37.8491 1.25 37.3722 1.25 36.8749C1.25 36.7091 1.31585 36.5501 1.43306 36.4329C1.55027 36.3157 1.70924 36.2499 1.875 36.2499H7.0125C7.10813 36.4593 7.2525 36.6536 7.44125 36.8255C7.87875 37.2236 8.57812 37.4999 9.375 37.4999C10.1719 37.4999 10.8713 37.2236 11.3088 36.8255C11.4975 36.6536 11.6419 36.4593 11.7375 36.2499H15.6231ZM36.8731 36.2499H38.125C38.2908 36.2499 38.4497 36.3157 38.5669 36.4329C38.6842 36.5501 38.75 36.7091 38.75 36.8749C38.75 37.3722 38.5525 37.8491 38.2008 38.2007C37.8492 38.5523 37.3723 38.7499 36.875 38.7499H24.375C23.8777 38.7499 23.4008 38.5523 23.0492 38.2007C22.6975 37.8491 22.5 37.3722 22.5 36.8749C22.5 36.7091 22.5658 36.5501 22.6831 36.4329C22.8003 36.3157 22.9592 36.2499 23.125 36.2499H28.2625C28.3581 36.4593 28.5025 36.6536 28.6912 36.8255C29.1287 37.2236 29.8281 37.4999 30.625 37.4999C31.4219 37.4999 32.1213 37.2236 32.5588 36.8255C32.7475 36.6536 32.8919 36.4593 32.9875 36.2499H36.8731ZM36.25 34.9999V29.3749C36.25 28.8776 36.0525 28.4007 35.7008 28.0491C35.3492 27.6974 34.8723 27.4999 34.375 27.4999H26.875C26.3777 27.4999 25.9008 27.6974 25.5492 28.0491C25.1975 28.4007 25 28.8776 25 29.3749V34.9999H28.75C28.9158 34.9999 29.0747 35.0657 29.1919 35.1829C29.3092 35.3001 29.375 35.4591 29.375 35.6249C29.375 35.7755 29.4981 35.8905 29.6456 35.9886C29.8956 36.1555 30.2437 36.2499 30.625 36.2499C31.0063 36.2499 31.3544 36.1555 31.6044 35.9886C31.7519 35.8905 31.875 35.7755 31.875 35.6249C31.875 35.4591 31.9408 35.3001 32.0581 35.1829C32.1753 35.0657 32.3342 34.9999 32.5 34.9999H36.25ZM15 34.9999V29.3749C15 28.8776 14.8025 28.4007 14.4508 28.0491C14.0992 27.6974 13.6223 27.4999 13.125 27.4999H5.625C5.12772 27.4999 4.65081 27.6974 4.29917 28.0491C3.94754 28.4007 3.75 28.8776 3.75 29.3749V34.9999H7.5C7.66576 34.9999 7.82473 35.0657 7.94194 35.1829C8.05915 35.3001 8.125 35.4591 8.125 35.6249C8.125 35.7755 8.24813 35.8905 8.39563 35.9886C8.64563 36.1555 8.99375 36.2499 9.375 36.2499C9.75625 36.2499 10.1044 36.1555 10.3544 35.9886C10.5019 35.8905 10.625 35.7755 10.625 35.6249C10.625 35.4591 10.6908 35.3001 10.8081 35.1829C10.9253 35.0657 11.0842 34.9999 11.25 34.9999H15ZM5.625 33.1249H6.875C7.04076 33.1249 7.19973 33.059 7.31694 32.9418C7.43415 32.8246 7.5 32.6656 7.5 32.4999C7.5 32.3341 7.43415 32.1751 7.31694 32.0579C7.19973 31.9407 7.04076 31.8749 6.875 31.8749H5.625C5.45924 31.8749 5.30027 31.9407 5.18306 32.0579C5.06585 32.1751 5 32.3341 5 32.4999C5 32.6656 5.06585 32.8246 5.18306 32.9418C5.30027 33.059 5.45924 33.1249 5.625 33.1249ZM28.75 31.8749H26.875C26.7092 31.8749 26.5503 31.9407 26.4331 32.0579C26.3158 32.1751 26.25 32.3341 26.25 32.4999C26.25 32.6656 26.3158 32.8246 26.4331 32.9418C26.5503 33.059 26.7092 33.1249 26.875 33.1249H28.75C28.9158 33.1249 29.0747 33.059 29.1919 32.9418C29.3092 32.8246 29.375 32.6656 29.375 32.4999C29.375 32.3341 29.3092 32.1751 29.1919 32.0579C29.0747 31.9407 28.9158 31.8749 28.75 31.8749ZM34.375 31.8749H31.25C31.0842 31.8749 30.9253 31.9407 30.8081 32.0579C30.6908 32.1751 30.625 32.3341 30.625 32.4999C30.625 32.6656 30.6908 32.8246 30.8081 32.9418C30.9253 33.059 31.0842 33.1249 31.25 33.1249H34.375C34.5408 33.1249 34.6997 33.059 34.8169 32.9418C34.9342 32.8246 35 32.6656 35 32.4999C35 32.3341 34.9342 32.1751 34.8169 32.0579C34.6997 31.9407 34.5408 31.8749 34.375 31.8749ZM9.375 33.1249H13.125C13.2908 33.1249 13.4497 33.059 13.5669 32.9418C13.6842 32.8246 13.75 32.6656 13.75 32.4999C13.75 32.3341 13.6842 32.1751 13.5669 32.0579C13.4497 31.9407 13.2908 31.8749 13.125 31.8749H9.375C9.20924 31.8749 9.05027 31.9407 8.93306 32.0579C8.81585 32.1751 8.75 32.3341 8.75 32.4999C8.75 32.6656 8.81585 32.8246 8.93306 32.9418C9.05027 33.059 9.20924 33.1249 9.375 33.1249ZM34.375 29.3749H33.125C32.9592 29.3749 32.8003 29.4407 32.6831 29.5579C32.5658 29.6751 32.5 29.8341 32.5 29.9999C32.5 30.1656 32.5658 30.3246 32.6831 30.4418C32.8003 30.559 32.9592 30.6249 33.125 30.6249H34.375C34.5408 30.6249 34.6997 30.559 34.8169 30.4418C34.9342 30.3246 35 30.1656 35 29.9999C35 29.8341 34.9342 29.6751 34.8169 29.5579C34.6997 29.4407 34.5408 29.3749 34.375 29.3749ZM11.25 30.6249H13.125C13.2908 30.6249 13.4497 30.559 13.5669 30.4418C13.6842 30.3246 13.75 30.1656 13.75 29.9999C13.75 29.8341 13.6842 29.6751 13.5669 29.5579C13.4497 29.4407 13.2908 29.3749 13.125 29.3749H11.25C11.0842 29.3749 10.9253 29.4407 10.8081 29.5579C10.6908 29.6751 10.625 29.8341 10.625 29.9999C10.625 30.1656 10.6908 30.3246 10.8081 30.4418C10.9253 30.559 11.0842 30.6249 11.25 30.6249ZM5.625 30.6249H8.75C8.91576 30.6249 9.07473 30.559 9.19194 30.4418C9.30915 30.3246 9.375 30.1656 9.375 29.9999C9.375 29.8341 9.30915 29.6751 9.19194 29.5579C9.07473 29.4407 8.91576 29.3749 8.75 29.3749H5.625C5.45924 29.3749 5.30027 29.4407 5.18306 29.5579C5.06585 29.6751 5 29.8341 5 29.9999C5 30.1656 5.06585 30.3246 5.18306 30.4418C5.30027 30.559 5.45924 30.6249 5.625 30.6249ZM30.625 29.3749H26.875C26.7092 29.3749 26.5503 29.4407 26.4331 29.5579C26.3158 29.6751 26.25 29.8341 26.25 29.9999C26.25 30.1656 26.3158 30.3246 26.4331 30.4418C26.5503 30.559 26.7092 30.6249 26.875 30.6249H30.625C30.7908 30.6249 30.9497 30.559 31.0669 30.4418C31.1842 30.3246 31.25 30.1656 31.25 29.9999C31.25 29.8341 31.1842 29.6751 31.0669 29.5579C30.9497 29.4407 30.7908 29.3749 30.625 29.3749ZM30 20.7318C29.6757 20.8462 29.3891 21.0477 29.1716 21.3141C28.9541 21.5805 28.814 21.9015 28.7666 22.2422C28.7193 22.5828 28.7665 22.93 28.9031 23.2456C29.0398 23.5612 29.2605 23.8332 29.5413 24.0317C29.8221 24.2303 30.1521 24.3479 30.4952 24.3716C30.8383 24.3953 31.1813 24.3241 31.4868 24.166C31.7922 24.0079 32.0482 23.7688 32.2269 23.475C32.4056 23.1811 32.5001 22.8438 32.5 22.4999C32.4999 22.1121 32.3796 21.7339 32.1558 21.4173C31.932 21.1007 31.6155 20.8612 31.25 20.7318V16.8749C31.25 15.8386 30.4112 14.9999 29.375 14.9999H25C24.8342 14.9999 24.6753 15.0657 24.5581 15.1829C24.4408 15.3001 24.375 15.4591 24.375 15.6249C24.375 15.7906 24.4408 15.9496 24.5581 16.0668C24.6753 16.184 24.8342 16.2499 25 16.2499H29.375C29.5408 16.2499 29.6997 16.3157 29.8169 16.4329C29.9342 16.5501 30 16.7091 30 16.8749V20.7318ZM8.75 20.7318C8.42569 20.8462 8.13911 21.0477 7.92158 21.3141C7.70405 21.5805 7.56395 21.9015 7.51661 22.2422C7.46926 22.5828 7.51649 22.93 7.65312 23.2456C7.78976 23.5612 8.01054 23.8332 8.29134 24.0317C8.57213 24.2303 8.90212 24.3479 9.24522 24.3716C9.58833 24.3953 9.93134 24.3241 10.2368 24.166C10.5422 24.0079 10.7982 23.7688 10.9769 23.475C11.1556 23.1811 11.2501 22.8438 11.25 22.4999C11.2499 22.1121 11.1296 21.7339 10.9058 21.4173C10.682 21.1007 10.3655 20.8612 10 20.7318V16.8749C10 16.7091 10.0658 16.5501 10.1831 16.4329C10.3003 16.3157 10.4592 16.2499 10.625 16.2499H15C15.1658 16.2499 15.3247 16.184 15.4419 16.0668C15.5592 15.9496 15.625 15.7906 15.625 15.6249C15.625 15.4591 15.5592 15.3001 15.4419 15.1829C15.3247 15.0657 15.1658 14.9999 15 14.9999H10.625C9.58875 14.9999 8.75 15.8386 8.75 16.8749V20.7318ZM30.625 21.8749C30.7908 21.8749 30.9497 21.9407 31.0669 22.0579C31.1842 22.1751 31.25 22.3341 31.25 22.4999C31.25 22.6656 31.1842 22.8246 31.0669 22.9418C30.9497 23.059 30.7908 23.1249 30.625 23.1249C30.4592 23.1249 30.3003 23.059 30.1831 22.9418C30.0658 22.8246 30 22.6656 30 22.4999C30 22.3341 30.0658 22.1751 30.1831 22.0579C30.3003 21.9407 30.4592 21.8749 30.625 21.8749ZM9.375 21.8749C9.54076 21.8749 9.69973 21.9407 9.81694 22.0579C9.93415 22.1751 10 22.3341 10 22.4999C10 22.6656 9.93415 22.8246 9.81694 22.9418C9.69973 23.059 9.54076 23.1249 9.375 23.1249C9.20924 23.1249 9.05027 23.059 8.93306 22.9418C8.81585 22.8246 8.75 22.6656 8.75 22.4999C8.75 22.3341 8.81585 22.1751 8.93306 22.0579C9.05027 21.9407 9.20924 21.8749 9.375 21.8749ZM22.7719 16.8449C22.1833 17.3306 21.5543 17.7653 20.8919 18.1443L20 18.6549L19.1081 18.1443C18.4497 17.7675 17.8244 17.3358 17.2388 16.8536C17.1108 16.7482 16.9462 16.6979 16.7811 16.7139C16.6161 16.7298 16.4642 16.8107 16.3587 16.9386C16.2533 17.0666 16.2031 17.2312 16.219 17.3962C16.2349 17.5613 16.3158 17.7132 16.4438 17.8186C17.0841 18.3455 17.7678 18.8174 18.4875 19.2293L19.69 19.9174C19.7845 19.9714 19.8915 19.9999 20.0003 19.9999C20.1092 19.9999 20.2161 19.9714 20.3106 19.9174L21.5125 19.2293C22.2365 18.815 22.924 18.3399 23.5675 17.8093C23.6308 17.757 23.6832 17.6928 23.7217 17.6203C23.7603 17.5478 23.7841 17.4684 23.7919 17.3867C23.7998 17.305 23.7914 17.2226 23.7674 17.1441C23.7434 17.0656 23.7041 16.9926 23.6519 16.9293C23.5996 16.8659 23.5354 16.8135 23.4629 16.775C23.3904 16.7365 23.3111 16.7126 23.2293 16.7048C23.1476 16.697 23.0652 16.7053 22.9867 16.7293C22.9082 16.7534 22.8352 16.7926 22.7719 16.8449ZM19.6875 17.0355C19.7825 17.0905 19.8903 17.1194 20 17.1194C20.1097 17.1194 20.2175 17.0905 20.3125 17.0355C24.0544 14.8743 26.29 10.9536 26.2494 6.79738C26.2482 6.68929 26.219 6.58336 26.1647 6.48992C26.1104 6.39648 26.0327 6.31872 25.9394 6.26425L20.315 2.9805C20.2194 2.92465 20.1107 2.89522 20 2.89522C19.8893 2.89522 19.7806 2.92465 19.685 2.9805L14.0606 6.26425C13.9673 6.31872 13.8896 6.39648 13.8353 6.48992C13.781 6.58336 13.7518 6.68929 13.7506 6.79738C13.71 10.9536 15.9456 14.8743 19.6875 17.0355ZM20 15.7655C16.9475 13.8649 15.0894 10.6261 15.0031 7.16113L20 4.24363L24.9969 7.16113C24.9106 10.6261 23.0525 13.8649 20 15.7655ZM14.1244 13.1268C12.8577 10.8663 12.3115 8.27296 12.5588 5.69363L20 1.34863L27.4412 5.693C27.6905 8.29298 27.1337 10.9067 25.8463 13.1793C25.7681 13.3234 25.7498 13.4925 25.7952 13.65C25.8405 13.8076 25.946 13.941 26.0888 14.0215C26.2316 14.102 26.4004 14.1232 26.5587 14.0804C26.717 14.0377 26.8521 13.9345 26.935 13.793C28.4054 11.1974 29.0059 8.19909 28.6488 5.23738C28.6373 5.14157 28.6038 5.04973 28.5509 4.96905C28.498 4.88837 28.4271 4.82105 28.3438 4.77238L20.3156 0.0848764C20.2198 0.0292816 20.1111 0 20.0003 0C19.8896 0 19.7808 0.0292816 19.685 0.0848764L11.6562 4.77238C11.5729 4.82105 11.502 4.88837 11.4491 4.96905C11.3962 5.04973 11.3627 5.14157 11.3513 5.23738C10.9967 8.17689 11.5854 11.153 13.0325 13.7361C13.1133 13.8809 13.2483 13.9877 13.4078 14.0329C13.5674 14.0782 13.7383 14.0582 13.8831 13.9774C14.0279 13.8966 14.1347 13.7616 14.1799 13.602C14.2252 13.4425 14.2052 13.2715 14.1244 13.1268ZM19.375 10.518V11.8474C19.3749 12.0131 19.4407 12.1721 19.5578 12.2894C19.675 12.4067 19.8339 12.4726 19.9997 12.4727C20.1654 12.4728 20.3245 12.407 20.4417 12.2899C20.559 12.1727 20.6249 12.0138 20.625 11.848V10.518C20.9493 10.4035 21.2359 10.2021 21.4534 9.93567C21.6709 9.66928 21.811 9.34821 21.8584 9.00756C21.9057 8.66691 21.8585 8.31981 21.7219 8.00419C21.5852 7.68858 21.3645 7.4166 21.0837 7.21801C20.8029 7.01942 20.4729 6.90186 20.1298 6.87818C19.7867 6.8545 19.4437 6.92561 19.1382 7.08374C18.8328 7.24187 18.5768 7.48093 18.3981 7.77478C18.2194 8.06863 18.1249 8.40596 18.125 8.74988C18.125 9.5655 18.6469 10.2605 19.375 10.518ZM20.0138 9.37488C20.1747 9.36612 20.3261 9.29555 20.4364 9.17788C20.5466 9.0602 20.6071 8.90452 20.6054 8.74329C20.6036 8.58207 20.5396 8.42775 20.4269 8.31254C20.3141 8.19732 20.1611 8.13009 20 8.12488C19.8342 8.12305 19.6745 8.18715 19.556 8.30307C19.4375 8.41899 19.3699 8.57724 19.3681 8.743C19.3663 8.90876 19.4304 9.06846 19.5463 9.18696C19.6622 9.30546 19.8205 9.37305 19.9862 9.37488L20 9.37425L20.0138 9.37488Z" fill="#384BFF"/>
</g>
<defs>
<clipPath id="clip0_2415_1883">
<rect width="40" height="40" fill="white"/>
</clipPath>
</defs>
</svg>
