<svg width="40" height="40" viewBox="0 0 40 40" fill="none" xmlns="http://www.w3.org/2000/svg">
<path d="M13.8812 19.9414L16.0164 10.6289C16.0536 10.4675 16.1533 10.3275 16.2936 10.2395C16.4339 10.1515 16.6034 10.1227 16.7648 10.1593C17.1008 10.2367 17.3109 10.5711 17.2344 10.9078L15.0992 20.2203C15.0676 20.3579 14.9904 20.4808 14.88 20.5689C14.7696 20.657 14.6326 20.7052 14.4914 20.7054C14.4453 20.7054 14.3984 20.7 14.3516 20.6898C14.2715 20.6716 14.1959 20.6377 14.1289 20.5902C14.062 20.5427 14.0051 20.4825 13.9614 20.413C13.9177 20.3435 13.8882 20.2661 13.8744 20.1852C13.8607 20.1042 13.863 20.0214 13.8812 19.9414ZM6.90859 15.9687L12.0219 18.8258C12.118 18.8797 12.2227 18.9054 12.3258 18.9054C12.5445 18.9054 12.757 18.7898 12.8719 18.5851C13.0398 18.2844 12.932 17.9039 12.6312 17.7351L8.49375 15.4234L12.6312 13.1117C12.932 12.9437 13.0398 12.5633 12.8719 12.2617C12.7039 11.9609 12.3234 11.8531 12.0219 12.0211L6.90859 14.8781C6.81157 14.9323 6.73078 15.0114 6.6746 15.1073C6.61842 15.2031 6.58889 15.3123 6.58906 15.4234C6.58873 15.5346 6.61819 15.6438 6.67439 15.7397C6.73058 15.8356 6.81146 15.9147 6.90859 15.9687ZM18.2453 18.5851C18.2853 18.6568 18.339 18.7199 18.4033 18.7708C18.4677 18.8216 18.5415 18.8593 18.6204 18.8817C18.6994 18.904 18.7819 18.9106 18.8634 18.901C18.9449 18.8914 19.0237 18.8658 19.0953 18.8258L24.2086 15.9687C24.4062 15.8586 24.5281 15.65 24.5281 15.4234C24.5281 15.1969 24.4055 14.9883 24.2086 14.8781L19.0953 12.0211C18.9506 11.9404 18.7799 11.9205 18.6206 11.9656C18.4612 12.0107 18.3262 12.1172 18.2453 12.2617C18.0773 12.5625 18.1852 12.9429 18.4859 13.1117L22.6234 15.4234L18.4859 17.7351C18.1852 17.9031 18.0773 18.2836 18.2453 18.5851ZM40 23.4648V25.6554C40 25.9258 39.8258 26.1656 39.5688 26.2492L38.2062 26.6922C38.0305 27.3265 37.7781 27.9351 37.4531 28.507L38.1047 29.7851C38.2281 30.0265 38.1813 30.3195 37.9891 30.5109L36.4422 32.0578C36.349 32.1513 36.2285 32.2129 36.0981 32.2337C35.9677 32.2544 35.8341 32.2333 35.7164 32.1734L34.4391 31.5219C33.867 31.8478 33.2566 32.101 32.6219 32.2758L32.5164 32.5976L32.1805 33.6359C32.1398 33.7615 32.0603 33.871 31.9535 33.9486C31.8467 34.0263 31.718 34.068 31.5859 34.0679H29.3961C29.125 34.0679 28.8852 33.8937 28.8016 33.6359L28.3602 32.2758C27.725 32.1008 27.1156 31.8484 26.543 31.5219L25.2656 32.1734C25.148 32.2335 25.0143 32.2547 24.8839 32.2339C24.7534 32.2132 24.633 32.1515 24.5398 32.0578L22.993 30.5109C22.9111 30.4291 22.8536 30.3262 22.8267 30.2137C22.7998 30.1012 22.8046 29.9834 22.8406 29.8734H18.9742L20.0289 32.8187H22.0961C22.4414 32.8187 22.7203 33.0984 22.7203 33.4429C22.7203 33.7875 22.4406 34.0672 22.0961 34.0672H9.02031C8.675 34.0672 8.39609 33.7875 8.39609 33.4429C8.39609 33.0984 8.67578 32.8187 9.02031 32.8187H11.0875L12.1422 29.8734H2.58281C1.15859 29.8734 0 28.7156 0 27.2914V8.51169C0 7.08904 1.15859 5.93201 2.58203 5.93201H28.5344C29.9586 5.93201 31.1164 7.08904 31.1164 8.51169V15.0515H31.5859C31.857 15.0515 32.0969 15.2258 32.1805 15.4836L32.6219 16.8445C33.257 17.0203 33.8656 17.2726 34.4383 17.5976L35.7172 16.9476C35.8346 16.8879 35.9679 16.8669 36.0979 16.8875C36.228 16.9081 36.3482 16.9694 36.4414 17.0625L37.9891 18.6078C38.0826 18.701 38.1442 18.8215 38.1649 18.9519C38.1857 19.0823 38.1646 19.2159 38.1047 19.3336L37.4531 20.6109C37.7805 21.1867 38.0328 21.7953 38.207 22.4273L38.5289 22.5328L39.5672 22.8687C39.825 22.9539 40 23.1937 40 23.4648ZM1.24922 8.51169V23.6679H20.9836V23.464C20.9836 23.1929 21.1578 22.9531 21.4156 22.8695L22.7766 22.4281C22.9523 21.7929 23.2047 21.1844 23.5305 20.6117L22.8789 19.3336C22.8188 19.2159 22.7976 19.0823 22.8184 18.9518C22.8392 18.8214 22.9008 18.7009 22.9945 18.6078L24.5422 17.0625C24.6353 16.9693 24.7555 16.908 24.8855 16.8872C25.0156 16.8665 25.1489 16.8873 25.2664 16.9468L26.5453 17.5969C27.118 17.2719 27.7266 17.0195 28.3617 16.8437L28.4672 16.5211L28.8031 15.4828C28.8438 15.3572 28.9233 15.2477 29.0301 15.1701C29.1369 15.0924 29.2656 15.0507 29.3977 15.0508H29.8695V8.51091C29.8695 7.77732 29.2711 7.17966 28.5367 7.17966H2.58281C1.84766 7.18123 1.24922 7.7781 1.24922 8.51169ZM2.58281 28.625H23.4703L23.5305 28.507C23.2058 27.9353 22.9529 27.3258 22.7773 26.6922L21.4148 26.2492C21.2895 26.2084 21.1803 26.129 21.1028 26.0223C21.0254 25.9157 20.9836 25.7873 20.9836 25.6554V24.9179H1.24922V27.2922C1.24922 28.0265 1.84766 28.625 2.58281 28.625ZM17.6492 29.8734H13.4688L12.4141 32.8187H18.7039L17.6492 29.8734ZM38.7508 23.9187L37.4914 23.5086C37.3889 23.4748 37.2969 23.4151 37.2242 23.3353C37.1515 23.2555 37.1007 23.1583 37.0766 23.0531C36.9094 22.3179 36.6188 21.6164 36.2109 20.9679C36.1534 20.8765 36.1206 20.7717 36.1158 20.6637C36.111 20.5558 36.1344 20.4485 36.1836 20.3523L36.7852 19.1711L35.8789 18.2664L34.6977 18.8672C34.6014 18.9162 34.4941 18.9394 34.3862 18.9347C34.2783 18.9299 34.1735 18.8972 34.082 18.8398C33.44 18.4361 32.7346 18.1434 31.9953 17.9742C31.8905 17.95 31.7936 17.8991 31.7141 17.8266C31.6346 17.7541 31.5751 17.6623 31.5414 17.5601L31.1313 16.3008H29.85L29.4398 17.5601C29.4062 17.6624 29.3468 17.7542 29.2673 17.8268C29.1877 17.8993 29.0908 17.9501 28.9859 17.9742C28.2468 18.1439 27.5414 18.4365 26.8992 18.8398C26.8078 18.8974 26.703 18.9301 26.595 18.9349C26.4871 18.9397 26.3798 18.9164 26.2836 18.8672L25.1023 18.2664L24.1961 19.1711L24.7977 20.3523C24.8467 20.4486 24.8699 20.5558 24.8651 20.6637C24.8604 20.7716 24.8277 20.8764 24.7703 20.9679C24.3669 21.6101 24.0743 22.3155 23.9047 23.0547C23.8805 23.1595 23.8296 23.2563 23.7571 23.3358C23.6846 23.4153 23.5928 23.4748 23.4906 23.5086L22.2313 23.9187V25.2015L23.4891 25.6101C23.6977 25.6781 23.8562 25.85 23.9055 26.064C24.0752 26.8032 24.3678 27.5085 24.7711 28.1508C24.8883 28.3367 24.8984 28.5703 24.7984 28.7664L24.4117 29.525C24.407 29.5344 24.4023 29.5445 24.3969 29.5539L24.1961 29.9484L25.1023 30.8547L26.2836 30.2531C26.38 30.204 26.4875 30.1808 26.5955 30.1857C26.7036 30.1906 26.8085 30.2236 26.9 30.2812C27.543 30.6867 28.2437 30.9781 28.9836 31.1461C29.1977 31.1945 29.3703 31.3523 29.4391 31.5609L29.8492 32.8203H31.1305L31.5406 31.5609C31.5743 31.4584 31.634 31.3663 31.7138 31.2936C31.7936 31.2209 31.8908 31.1701 31.9961 31.1461C32.7348 30.9787 33.4395 30.6862 34.0797 30.2812C34.1712 30.2236 34.2761 30.1906 34.3842 30.1857C34.4922 30.1808 34.5997 30.204 34.6961 30.2531L35.8773 30.8547L36.7836 29.9484L36.182 28.7672C36.133 28.6709 36.1098 28.5636 36.1145 28.4557C36.1193 28.3479 36.152 28.243 36.2094 28.1515C36.6133 27.5078 36.9047 26.8062 37.075 26.0648C37.0991 25.9596 37.1501 25.8624 37.2232 25.7828C37.2962 25.7032 37.3886 25.644 37.4914 25.6109L38.7492 25.2023V23.9187H38.7508ZM34.3523 24.5609C34.3523 26.689 32.6211 28.4211 30.4922 28.4211C28.3625 28.4211 26.6297 26.6898 26.6297 24.5609C26.6297 22.4312 28.3625 20.6984 30.4922 20.6984C32.6211 20.6984 34.3523 22.4312 34.3523 24.5609ZM33.1039 24.5609C33.1039 23.1203 31.9328 21.9476 30.493 21.9476C29.0523 21.9476 27.8797 23.1203 27.8797 24.5609C27.8797 26.0008 29.0523 27.1719 30.493 27.1719C31.932 27.1719 33.1039 26.0008 33.1039 24.5609Z" fill="white"/>
</svg>
