<svg width="40" height="40" viewBox="0 0 40 40" fill="none" xmlns="http://www.w3.org/2000/svg">
<path d="M29.2547 24.2C34.5466 24.2 38.8365 19.9101 38.8365 14.6182C38.8365 9.3263 34.5466 5.03638 29.2547 5.03638C23.9628 5.03638 19.6729 9.3263 19.6729 14.6182C19.6729 19.9101 23.9628 24.2 29.2547 24.2Z" fill="url(#paint0_linear_2728_2443)"/>
<path d="M20.5281 3.32728C20.4426 3.24275 20.3272 3.19534 20.2069 3.19534C20.0867 3.19534 19.9713 3.24275 19.8857 3.32728L15.0009 8.21213C14.8251 8.38789 14.8251 8.6788 15.0009 8.85456C15.0918 8.94547 15.2069 8.98789 15.3221 8.98789C15.4372 8.98789 15.5524 8.94547 15.6433 8.85456L20.5281 3.96971C20.7039 3.79395 20.7039 3.5091 20.5281 3.32728ZM11.3039 5.36365C11.1281 5.18789 10.8372 5.18789 10.6615 5.36365C10.4857 5.5394 10.4857 5.83031 10.6615 6.00607L13.516 8.86062C13.6069 8.95153 13.7221 8.99395 13.8372 8.99395C13.9524 8.99395 14.0675 8.95153 14.1584 8.86062C14.3342 8.68486 14.3342 8.39395 14.1584 8.21819L11.3039 5.36365ZM9.18269 5.36365L4.09178 10.4546C3.91602 10.6303 3.91602 10.9212 4.09178 11.097C4.18269 11.1879 4.29784 11.2303 4.41299 11.2303C4.52814 11.2303 4.64329 11.1879 4.7342 11.097L9.82511 6.00607C10.0009 5.83031 10.0009 5.5394 9.82511 5.36365C9.64935 5.18789 9.36451 5.18789 9.18269 5.36365Z" fill="#DEDFFF"/>
<path d="M2.82422 30.4606H6.23634V38.5576H2.82422V30.4606Z" fill="url(#paint1_linear_2728_2443)"/>
<path d="M8.64844 22.0303H12.0606V38.5636H8.64844V22.0303Z" fill="url(#paint2_linear_2728_2443)"/>
<path d="M14.4668 28.0546H17.8789V38.5636H14.4668V28.0546Z" fill="url(#paint3_linear_2728_2443)"/>
<path d="M20.2852 25.6424H23.6973V38.5576H20.2852V25.6424Z" fill="url(#paint4_linear_2728_2443)"/>
<path d="M29.2547 7.44849C25.291 7.44849 22.085 10.6606 22.085 14.6182C22.085 16.6 22.885 18.3939 24.188 19.6909L29.2607 14.6182V7.44849H29.2547Z" fill="url(#paint5_linear_2728_2443)"/>
<path d="M29.2549 7.44849V14.6182L34.3276 19.6909C35.6246 18.3939 36.4306 16.6 36.4306 14.6182C36.4246 10.6606 33.2185 7.44849 29.2549 7.44849Z" fill="url(#paint6_linear_2728_2443)"/>
<path d="M24.1826 19.6909C25.4796 20.9879 27.2735 21.794 29.2553 21.794C31.2372 21.794 33.0311 20.994 34.3281 19.6909L29.2553 14.6182L24.1826 19.6909Z" fill="#8E76FF"/>
<path d="M27.4121 26.1879V36.4C27.4121 37.4182 28.2364 38.2424 29.2545 38.2424C30.2727 38.2424 31.097 37.4182 31.097 36.4V26.1879H27.4121Z" fill="#653DC5"/>
<path d="M29.2548 24.2C28.0972 24.2 26.9881 23.9818 25.9639 23.6061V25.5879C25.9639 25.9212 26.2305 26.1879 26.5639 26.1879H31.9457C32.279 26.1879 32.5457 25.9212 32.5457 25.5879V23.6061C31.5214 23.9818 30.4124 24.2 29.2548 24.2Z" fill="#8E76FF"/>
<path d="M3.60604 13.5697C4.70392 13.5697 5.59392 12.6797 5.59392 11.5818C5.59392 10.484 4.70392 9.59395 3.60604 9.59395C2.50817 9.59395 1.61816 10.484 1.61816 11.5818C1.61816 12.6797 2.50817 13.5697 3.60604 13.5697Z" fill="#8E76FF"/>
<path d="M10.3092 6.86667C11.407 6.86667 12.297 5.97667 12.297 4.87879C12.297 3.78092 11.407 2.89091 10.3092 2.89091C9.21129 2.89091 8.32129 3.78092 8.32129 4.87879C8.32129 5.97667 9.21129 6.86667 10.3092 6.86667Z" fill="#8E76FF"/>
<path d="M14.6422 11.2C15.7401 11.2 16.6301 10.31 16.6301 9.21212C16.6301 8.11425 15.7401 7.22424 14.6422 7.22424C13.5443 7.22424 12.6543 8.11425 12.6543 9.21212C12.6543 10.31 13.5443 11.2 14.6422 11.2Z" fill="#8E76FF"/>
<path d="M20.8844 4.96364C21.9822 4.96364 22.8722 4.07364 22.8722 2.97576C22.8722 1.87789 21.9822 0.987885 20.8844 0.987885C19.7865 0.987885 18.8965 1.87789 18.8965 2.97576C18.8965 4.07364 19.7865 4.96364 20.8844 4.96364Z" fill="#8E76FF"/>
<path d="M24.9035 39.0182H1.61861C1.37012 39.0182 1.16406 38.8121 1.16406 38.5636C1.16406 38.3152 1.37012 38.1091 1.61861 38.1091H24.9035C25.1519 38.1091 25.358 38.3152 25.358 38.5636C25.358 38.8121 25.1519 39.0182 24.9035 39.0182Z" fill="#FFCD0A"/>
<defs>
<linearGradient id="paint0_linear_2728_2443" x1="29.2553" y1="4.90607" x2="29.2553" y2="23.5752" gradientUnits="userSpaceOnUse">
<stop stop-color="#8E76FF"/>
<stop offset="1" stop-color="#653DC5"/>
</linearGradient>
<linearGradient id="paint1_linear_2728_2443" x1="2.82422" y1="30.4606" x2="6.23634" y2="30.4606" gradientUnits="userSpaceOnUse">
<stop stop-color="#FF8D61"/>
<stop offset="1" stop-color="#FFCD0A"/>
</linearGradient>
<linearGradient id="paint2_linear_2728_2443" x1="8.64844" y1="22.0303" x2="12.0606" y2="22.0303" gradientUnits="userSpaceOnUse">
<stop stop-color="#FF8D61"/>
<stop offset="1" stop-color="#FFCD0A"/>
</linearGradient>
<linearGradient id="paint3_linear_2728_2443" x1="14.4668" y1="28.0546" x2="17.8789" y2="28.0546" gradientUnits="userSpaceOnUse">
<stop stop-color="#FF8D61"/>
<stop offset="1" stop-color="#FFCD0A"/>
</linearGradient>
<linearGradient id="paint4_linear_2728_2443" x1="20.2852" y1="25.6424" x2="23.6973" y2="25.6424" gradientUnits="userSpaceOnUse">
<stop stop-color="#FF8D61"/>
<stop offset="1" stop-color="#FFCD0A"/>
</linearGradient>
<linearGradient id="paint5_linear_2728_2443" x1="25.6692" y1="7.4994" x2="25.6692" y2="19.7594" gradientUnits="userSpaceOnUse">
<stop stop-color="#FEFDFF"/>
<stop offset="1" stop-color="#DEDFFF"/>
</linearGradient>
<linearGradient id="paint6_linear_2728_2443" x1="29.2549" y1="7.44849" x2="36.4306" y2="7.44849" gradientUnits="userSpaceOnUse">
<stop stop-color="#FF8D61"/>
<stop offset="1" stop-color="#FFCD0A"/>
</linearGradient>
</defs>
</svg>
