<svg width="40" height="40" viewBox="0 0 40 40" fill="none" xmlns="http://www.w3.org/2000/svg">
<g clip-path="url(#clip0_2813_2890)">
<path d="M7.52531 27.0605C7.52531 26.9154 7.58293 26.7763 7.68549 26.6738C7.78805 26.5712 7.92715 26.5136 8.07219 26.5136H21.2936C21.4386 26.5136 21.5777 26.5712 21.6803 26.6738C21.7829 26.7763 21.8405 26.9154 21.8405 27.0605C21.8405 27.2055 21.7829 27.3446 21.6803 27.4472C21.5777 27.5497 21.4386 27.6074 21.2936 27.6074H8.07219C7.92715 27.6074 7.78805 27.5497 7.68549 27.4472C7.58293 27.3446 7.52531 27.2055 7.52531 27.0605ZM8.07219 23.553H17.7308C17.8758 23.553 18.0149 23.4954 18.1175 23.3928C18.22 23.2902 18.2777 23.1511 18.2777 23.0061C18.2777 22.8611 18.22 22.722 18.1175 22.6194C18.0149 22.5168 17.8758 22.4592 17.7308 22.4592H8.07219C7.92715 22.4592 7.78805 22.5168 7.68549 22.6194C7.58293 22.722 7.52531 22.8611 7.52531 23.0061C7.52531 23.1511 7.58293 23.2902 7.68549 23.3928C7.78805 23.4954 7.92715 23.553 8.07219 23.553ZM30.4566 31.541V38.0301C30.4566 38.7287 29.8884 39.297 29.1898 39.297H20.4735C19.7749 39.297 19.2066 38.7287 19.2066 38.0301V34.0676C17.7555 34.4047 16.2373 34.5758 14.6829 34.5758C14.0385 34.5758 13.3909 34.5456 12.7546 34.4861L6.00008 39.1987C5.90941 39.262 5.80166 39.2963 5.69107 39.2971C5.58048 39.2979 5.47226 39.2651 5.3807 39.2031C5.28913 39.1411 5.21849 39.0528 5.1781 38.9499C5.13771 38.847 5.12947 38.7342 5.15445 38.6265L6.51047 32.7849C2.86484 30.9965 0.703125 28.1238 0.703125 25.0333C0.703125 22.9138 1.69063 20.9103 3.55883 19.2396C5.34617 17.6413 7.77836 16.4878 10.5925 15.9041C10.7343 15.8752 10.8818 15.9036 11.0026 15.9833C11.1234 16.0629 11.2078 16.1871 11.2372 16.3288C11.2666 16.4705 11.2386 16.6181 11.1594 16.7392C11.0802 16.8603 10.9563 16.9451 10.8147 16.975C8.22641 17.5119 5.90844 18.6057 4.28797 20.0549C2.65828 21.5123 1.79688 23.2338 1.79688 25.0333C1.79688 27.796 3.88008 30.3934 7.36945 31.9811C7.4844 32.0334 7.57771 32.1238 7.63352 32.2371C7.68933 32.3504 7.70421 32.4795 7.67562 32.6025L6.5418 37.487L12.2945 33.4734C12.4022 33.3983 12.5333 33.3644 12.6639 33.3779C13.3347 33.4472 14.0086 33.4819 14.6829 33.4819C16.2429 33.4819 17.7623 33.3002 19.2066 32.9425V31.5409C19.2066 30.8424 19.7749 30.2741 20.4735 30.2741H24.7723C26.5772 28.7831 27.5689 26.9283 27.5689 25.0332C27.5689 23.0084 26.447 21.0454 24.4097 19.5059C24.3516 19.463 24.3026 19.4089 24.2655 19.3468C24.2284 19.2848 24.204 19.216 24.1937 19.1444C24.1834 19.0729 24.1874 19 24.2054 18.93C24.2234 18.86 24.2551 18.7943 24.2987 18.7366C24.3423 18.679 24.3968 18.6305 24.4592 18.5941C24.5217 18.5576 24.5907 18.5339 24.6623 18.5243C24.734 18.5147 24.8068 18.5194 24.8766 18.5381C24.9464 18.5568 25.0118 18.5892 25.0691 18.6334C27.3864 20.3845 28.6627 22.6573 28.6627 25.0332C28.6627 26.9077 27.8607 28.7293 26.379 30.2741H29.1897C29.8883 30.2741 30.4566 30.8424 30.4566 31.541ZM29.3629 31.541C29.3629 31.4472 29.2836 31.3679 29.1898 31.3679H20.4735C20.3797 31.3679 20.3004 31.4472 20.3004 31.541V38.0301C20.3004 38.1239 20.3797 38.2032 20.4735 38.2032H29.1898C29.2836 38.2032 29.3629 38.1239 29.3629 38.0301V31.541ZM26.9388 34.7855C26.9388 34.8815 26.9136 34.9758 26.8656 35.0589C26.8176 35.142 26.7485 35.2111 26.6654 35.2591L23.5448 37.0607C23.4616 37.1087 23.3673 37.134 23.2713 37.134C23.1753 37.134 23.081 37.1087 22.9979 37.0607C22.9148 37.0127 22.8457 36.9437 22.7977 36.8605C22.7497 36.7774 22.7245 36.6831 22.7245 36.5871V32.9838C22.7244 32.8878 22.7497 32.7934 22.7977 32.7103C22.8457 32.6271 22.9147 32.5581 22.9979 32.5101C23.081 32.4621 23.1753 32.4368 23.2713 32.4368C23.3673 32.4369 23.4616 32.4621 23.5448 32.5102L26.6654 34.3119C26.7485 34.3599 26.8176 34.4289 26.8656 34.512C26.9136 34.5952 26.9388 34.6895 26.9388 34.7855ZM25.2982 34.7855L23.8182 33.931V35.6399L25.2982 34.7855ZM35.7277 6.419C35.8236 6.41901 35.9178 6.39371 36.0007 6.34564L38.1128 5.12626C38.1755 5.09061 38.2305 5.04292 38.2747 4.98592C38.3189 4.92892 38.3514 4.86374 38.3703 4.79414C38.3892 4.72454 38.3941 4.65188 38.3848 4.58036C38.3755 4.50884 38.3522 4.43987 38.3161 4.37741C38.2801 4.31495 38.232 4.26024 38.1747 4.21643C38.1174 4.17262 38.052 4.14058 37.9823 4.12214C37.9126 4.10371 37.8399 4.09925 37.7684 4.10902C37.697 4.11879 37.6282 4.1426 37.5659 4.17907L35.4538 5.39845C35.3495 5.45865 35.268 5.5516 35.2219 5.66289C35.1758 5.77417 35.1678 5.89755 35.199 6.01388C35.2302 6.13021 35.2989 6.23298 35.3946 6.30623C35.4902 6.37948 35.6073 6.41912 35.7277 6.419ZM32.2073 3.95165C32.2695 3.98761 32.3382 4.01096 32.4094 4.02036C32.4806 4.02976 32.553 4.02503 32.6224 4.00644C32.6917 3.98785 32.7568 3.95577 32.8137 3.91202C32.8707 3.86827 32.9185 3.81373 32.9544 3.7515L34.2407 1.52353C34.2772 1.46131 34.301 1.39249 34.3108 1.32103C34.3205 1.24958 34.3161 1.17689 34.2976 1.10717C34.2792 1.03744 34.2472 0.972049 34.2033 0.914757C34.1595 0.857466 34.1048 0.809406 34.0424 0.773344C33.9799 0.737282 33.9109 0.713931 33.8394 0.704635C33.7679 0.695339 33.6952 0.700281 33.6256 0.719178C33.556 0.738075 33.4909 0.770552 33.4339 0.81474C33.3769 0.858929 33.3292 0.913956 33.2935 0.976652L32.0072 3.20462C31.9347 3.33023 31.915 3.47949 31.9526 3.61959C31.9901 3.75968 32.0817 3.87913 32.2073 3.95165ZM35.6305 9.88056C35.6305 10.0256 35.6881 10.1647 35.7906 10.2673C35.8932 10.3698 36.0323 10.4274 36.1773 10.4274H38.75C38.895 10.4274 39.0341 10.3698 39.1367 10.2673C39.2393 10.1647 39.2969 10.0256 39.2969 9.88056C39.2969 9.73552 39.2393 9.59642 39.1367 9.49386C39.0341 9.3913 38.895 9.33368 38.75 9.33368H36.1773C36.0323 9.33368 35.8932 9.3913 35.7906 9.49386C35.6881 9.59642 35.6305 9.73552 35.6305 9.88056ZM12.4613 15.8823C12.7521 14.7969 13.4448 13.8917 14.412 13.3334L17.2725 11.6819C17.3347 11.6459 17.4033 11.6226 17.4746 11.6132C17.5458 11.6038 17.6181 11.6086 17.6875 11.6272C17.7422 11.642 17.7943 11.6652 17.842 11.6959C20.7816 9.49587 23.0996 6.94884 24.4275 4.45587L24.3772 4.36876C23.7575 3.29548 24.1266 1.91814 25.1998 1.29837C26.2733 0.678762 27.6505 1.04782 28.2702 2.12103L30.5018 5.98618C31.6871 5.37298 33.162 5.79618 33.8361 6.96384C34.5102 8.13142 34.1392 9.62009 33.0156 10.3402L35.2472 14.2054C35.5465 14.7238 35.6255 15.3292 35.4698 15.9105C35.314 16.4917 34.9428 16.9766 34.4245 17.2759C34.0852 17.4727 33.7 17.5764 33.3078 17.5765C33.1117 17.5765 32.9142 17.5506 32.7195 17.4984C32.1383 17.3427 31.6534 16.9715 31.3541 16.4532L31.3038 16.3661C28.5057 16.2703 25.1745 16.9907 21.8287 18.4117L25.7773 23.7267C26.1714 24.2572 26.1023 24.9896 25.6165 25.4304L24.7478 26.2187C24.6162 26.3378 24.4613 26.4283 24.2928 26.4842C24.1244 26.5401 23.9461 26.5603 23.7694 26.5435C23.5951 26.5267 23.4263 26.4737 23.2737 26.3879C23.1211 26.3021 22.9881 26.1854 22.8831 26.0453L18.7522 20.5177L18.608 20.6009C17.9652 20.972 17.2503 21.1616 16.5245 21.1616C16.1532 21.1612 15.7837 21.1122 15.4252 21.0158C14.3398 20.725 13.4347 20.0322 12.8763 19.0651C12.3179 18.0979 12.1705 16.9676 12.4613 15.8823ZM24.8993 24.3789L21.0466 19.1929L19.706 19.9669L23.7593 25.3906C23.7728 25.4089 23.7901 25.4241 23.8099 25.4352C23.8298 25.4463 23.8518 25.453 23.8745 25.4549C23.9041 25.4577 23.9612 25.4555 24.0128 25.4086L24.8814 24.6204C24.9497 24.5584 24.9573 24.4569 24.8993 24.3789ZM31.0502 6.93603L32.4673 9.39048C33.0688 8.97353 33.2613 8.15579 32.8889 7.51071C32.5165 6.86571 31.712 6.62353 31.0502 6.93603ZM25.3244 3.82189L32.3013 15.9063C32.4545 16.1716 32.7034 16.3618 33.0025 16.4419C33.3015 16.5219 33.6122 16.4818 33.8776 16.3286C34.1429 16.1755 34.3331 15.9264 34.4133 15.6274C34.4934 15.3284 34.4531 15.0177 34.3 14.7524L27.323 2.66798C27.1096 2.29821 26.7209 2.09126 26.3218 2.09126C26.1262 2.09126 25.928 2.14095 25.7468 2.24564C25.4815 2.39876 25.2913 2.64782 25.2112 2.94681C25.1311 3.24579 25.1713 3.55657 25.3244 3.82189ZM18.4417 12.6132L21.2464 17.4712C24.5266 16.0581 27.817 15.2897 30.6681 15.2651L25.0631 5.55673C23.6163 8.01353 21.3056 10.4791 18.4417 12.6132ZM13.8234 18.5181C14.2357 19.2323 14.9051 19.7441 15.7082 19.9592C16.5113 20.1745 17.3469 20.0659 18.061 19.6536L20.4479 18.2756L17.3457 12.9024L14.9588 14.2805C14.2447 14.6927 13.733 15.3621 13.5177 16.1652C13.3025 16.9684 13.4112 17.8041 13.8234 18.5181ZM3.70336 7.02517C3.70336 5.1936 5.19344 3.70345 7.02508 3.70345C8.85672 3.70345 10.3468 5.19353 10.3468 7.02517C10.3468 8.85673 8.85672 10.3468 7.02508 10.3468C5.19344 10.3468 3.70336 8.85673 3.70336 7.02517ZM4.79711 7.02517C4.79711 8.25368 5.79656 9.25306 7.02508 9.25306C8.25359 9.25306 9.25305 8.25368 9.25305 7.02517C9.25305 5.79665 8.25359 4.7972 7.02508 4.7972C5.79656 4.7972 4.79711 5.79665 4.79711 7.02517ZM0.703125 7.60267V6.44767C0.703125 5.93689 1.11859 5.52142 1.6293 5.52142C2.08164 5.52142 2.26008 5.17564 2.30391 5.06962C2.34781 4.9636 2.46625 4.5929 2.14633 4.27306C2.06003 4.18726 1.99162 4.0852 1.94504 3.97278C1.89847 3.86036 1.87466 3.73982 1.875 3.61814C1.875 3.37071 1.97133 3.13806 2.14633 2.96314L2.96297 2.14642C3.32406 1.78525 3.91172 1.78525 4.27289 2.14642C4.59281 2.46634 4.96352 2.3479 5.06945 2.304C5.17547 2.26009 5.52125 2.08173 5.52125 1.62939C5.52125 1.11861 5.93672 0.703137 6.44742 0.703137H7.60242C8.11312 0.703137 8.52859 1.11861 8.52859 1.62939C8.52859 2.08173 8.87437 2.26009 8.98039 2.304C9.08633 2.3479 9.45719 2.46618 9.77695 2.14642C10.1381 1.78525 10.7257 1.78525 11.0869 2.14642L11.9036 2.96314C12.0785 3.13806 12.1748 3.37064 12.1748 3.61806C12.1748 3.86548 12.0785 4.09814 11.9035 4.27306C11.5837 4.5929 11.7021 4.9636 11.746 5.06962C11.7899 5.17556 11.9683 5.52142 12.4206 5.52142C12.9313 5.52142 13.3468 5.93689 13.3468 6.44767V7.60267C13.3468 8.11337 12.9313 8.52884 12.4206 8.52884C11.9683 8.52884 11.7898 8.87462 11.746 8.98064C11.7021 9.08657 11.5837 9.45736 11.9036 9.7772C12.2648 10.1384 12.2648 10.726 11.9036 11.0871L11.0869 11.9038C10.912 12.0788 10.6794 12.1752 10.432 12.1752C10.1845 12.1752 9.95187 12.0788 9.77695 11.9038C9.45711 11.5841 9.08648 11.7024 8.98039 11.7463C8.87445 11.7902 8.52859 11.9686 8.52859 12.421C8.52859 12.9317 8.11312 13.3472 7.60242 13.3472H6.44758C5.93687 13.3472 5.52141 12.9317 5.52141 12.421C5.52141 11.9677 5.17586 11.7893 5.07 11.7455C4.96398 11.7016 4.59359 11.5833 4.27305 11.9039C4.0982 12.0788 3.86555 12.1752 3.61812 12.1752C3.3707 12.1752 3.13797 12.0789 2.96313 11.9039L2.14648 11.0873C2.06019 11.0015 1.99177 10.8994 1.9452 10.787C1.89862 10.6745 1.87482 10.554 1.87516 10.4323C1.87516 10.1849 1.97148 9.9522 2.14648 9.77728C2.46633 9.45743 2.34789 9.08673 2.30398 8.98079C2.26008 8.87478 2.08172 8.529 1.62938 8.529C1.11859 8.52884 0.703125 8.11337 0.703125 7.60267ZM1.79688 7.44236C2.47586 7.5015 3.0482 7.91915 3.31445 8.56212C3.58078 9.20509 3.47141 9.90517 3.03305 10.4271L3.62313 11.0172C4.14547 10.5784 4.8457 10.4688 5.48844 10.7349C6.13125 11.0012 6.54875 11.5738 6.60781 12.2535H7.44219C7.50133 11.5745 7.91898 11.0022 8.56195 10.7359C9.20484 10.4697 9.90492 10.5789 10.427 11.0172L11.017 10.4271C10.5787 9.90517 10.4694 9.20509 10.7356 8.56212C11.002 7.91923 11.5742 7.5015 12.2532 7.44236V6.60798C11.5742 6.54884 11.0019 6.13118 10.7356 5.48821C10.4694 4.84525 10.5787 4.14525 11.017 3.62321L10.4269 3.03314C9.90477 3.47142 9.20477 3.58071 8.56188 3.31446C7.91898 3.04814 7.50133 2.47587 7.44219 1.79689H6.60781C6.54867 2.47587 6.13102 3.04821 5.48812 3.31446C4.84516 3.58079 4.14508 3.47142 3.62313 3.03306L3.03305 3.62314C3.47133 4.14525 3.5807 4.84525 3.31437 5.48814C3.0482 6.13118 2.47586 6.54884 1.79688 6.60798V7.44236ZM39.2539 21.9822C39.0609 23.6016 38.2822 25.1421 37.8352 25.9163C37.3881 26.6904 36.4434 28.135 35.1376 29.1119C34.2909 29.7452 33.4384 30.0638 32.6123 30.0638C32.0354 30.0638 31.4713 29.9085 30.9311 29.5966L30.7347 29.4831C30.4111 29.2963 30.1796 28.9942 30.0826 28.6323C29.9856 28.2704 30.0351 27.893 30.2219 27.5695L31.0071 26.2094C31.3933 25.5404 32.2518 25.3104 32.9208 25.6966L33.3814 25.9625C33.512 26.038 33.6665 26.0124 33.766 25.8991C34.1955 25.4094 34.591 24.8531 34.9417 24.2457C35.2924 23.6383 35.5764 23.0175 35.7857 22.4009C35.8341 22.2581 35.779 22.1114 35.6484 22.036L35.1878 21.7702C34.8642 21.5834 34.6327 21.2812 34.5357 20.9193C34.4388 20.5574 34.4882 20.1799 34.675 19.8564L35.4602 18.4963C35.8463 17.8274 36.7048 17.5974 37.3739 17.9835L37.5704 18.097C38.8844 18.8556 39.4665 20.199 39.2539 21.9822ZM37.0235 19.0442L36.8271 18.9307C36.7565 18.8901 36.6727 18.8791 36.5941 18.9002C36.5154 18.9213 36.4483 18.9727 36.4075 19.0431L35.6223 20.4032C35.6021 20.4381 35.5891 20.4767 35.5839 20.5167C35.5788 20.5566 35.5816 20.5972 35.5923 20.6361C35.6025 20.6751 35.6203 20.7117 35.6448 20.7437C35.6693 20.7758 35.6998 20.8027 35.7348 20.8228L36.1954 21.0887C36.7816 21.4272 37.0391 22.1113 36.8215 22.7523C36.5892 23.4367 36.2755 24.1231 35.889 24.7925C35.5026 25.4618 35.0649 26.0767 34.5884 26.6202C34.142 27.1293 33.4209 27.2482 32.8346 26.9098L32.374 26.6439C32.3034 26.6033 32.2196 26.5923 32.1409 26.6133C32.0622 26.6344 31.9951 26.6858 31.9543 26.7563L31.1691 28.1164C31.1489 28.1513 31.1359 28.1899 31.1307 28.2299C31.1256 28.2698 31.1284 28.3104 31.1391 28.3493C31.1493 28.3883 31.1671 28.4249 31.1916 28.4569C31.2161 28.489 31.2466 28.5159 31.2816 28.536L31.478 28.6495C32.4093 29.1871 33.392 29.0519 34.4824 28.2361C35.6748 27.3442 36.5619 25.9342 36.888 25.3694C37.2141 24.8046 37.9916 23.3313 38.1679 21.8527C38.3291 20.5005 37.9548 19.5818 37.0235 19.0442Z" fill="#384BFF"/>
</g>
<defs>
<clipPath id="clip0_2813_2890">
<rect width="40" height="40" fill="white"/>
</clipPath>
</defs>
</svg>
