<svg width="40" height="40" viewBox="0 0 40 40" fill="none" xmlns="http://www.w3.org/2000/svg">
<path d="M35.2 6.0909C35.994 6.0909 36.6364 5.44847 36.6364 4.65453C36.6364 3.86059 35.994 3.21817 35.2 3.21817C34.4061 3.21817 33.7637 3.86059 33.7637 4.65453C33.7637 5.44847 34.4122 6.0909 35.2 6.0909ZM35.2 4.24241C35.4303 4.24241 35.6182 4.43029 35.6182 4.66059C35.6182 4.8909 35.4303 5.07878 35.2 5.07878C34.9637 5.07878 34.7819 4.89696 34.7819 4.66059C34.7819 4.42423 34.9697 4.24241 35.2 4.24241Z" fill="#384BFF"/>
<path d="M36.7942 0.896973H7.26689C6.14568 0.896973 5.23053 1.81212 5.23053 2.93334V6.04243H3.20629C2.08507 6.04243 1.16992 6.95758 1.16992 8.07879V33.6121C1.16992 34.7333 2.08507 35.6485 3.20629 35.6485H16.7396V38.5939C16.7396 38.8727 16.9699 39.103 17.2487 39.103H26.8123C27.0911 39.103 27.3214 38.8727 27.3214 38.5939V35.6485H32.7336C33.8548 35.6485 34.7699 34.7333 34.7699 33.6121V30.503H36.7942C37.9154 30.503 38.8305 29.5879 38.8305 28.4667V2.93334C38.8305 1.81212 37.9154 0.896973 36.7942 0.896973ZM6.24871 2.93334C6.24871 2.3697 6.70932 1.91515 7.26689 1.91515H36.7942C37.3578 1.91515 37.8123 2.37576 37.8123 2.93334V7.4H18.4911L16.2184 5.04243C16.0426 4.86061 15.8002 4.75758 15.5517 4.75758H10.5457C10.0366 4.75758 9.61841 5.17576 9.61841 5.68485V7.4H6.24871V2.93334ZM3.20629 34.6364C2.64265 34.6364 2.1881 34.1758 2.1881 33.6182V8.07879C2.1881 7.51515 2.64871 7.06061 3.20629 7.06061H5.23053V28.4727C5.23053 29.5939 6.14568 30.5091 7.26689 30.5091H18.3214C18.5214 30.897 18.6123 31.3333 18.576 31.7818H17.7881C17.2063 31.7818 16.7396 32.2545 16.7396 32.8303V34.6364H3.20629ZM21.5275 23.9758C21.6305 23.7939 21.8184 23.6788 22.0305 23.6788C22.3457 23.6788 22.6002 23.9333 22.6002 24.2485C22.6002 24.4545 22.4911 24.6424 22.3154 24.7455C22.1214 24.8606 21.8911 24.8485 21.6548 24.7152C21.6235 24.6991 21.5981 24.6737 21.582 24.6424C21.3881 24.3333 21.4669 24.0909 21.5275 23.9758ZM21.5214 22.7576C21.148 22.8818 20.8345 23.1412 20.6427 23.4849C20.3517 24.0061 20.3881 24.6424 20.7275 25.1879C20.8366 25.3576 20.982 25.497 21.1578 25.6C21.4366 25.7576 21.7396 25.8424 22.0366 25.8424C22.3154 25.8424 22.5881 25.7697 22.8305 25.6303C23.3154 25.3455 23.6184 24.8182 23.6184 24.2545C23.6184 23.5576 23.1639 22.9697 22.5396 22.7576V20.1394L27.0426 28.2667C27.0366 28.2727 27.0305 28.2849 27.0123 28.2909C25.4184 28.703 24.376 30.1939 24.4608 31.7818H19.6063C19.6972 30.1879 18.6487 28.697 17.0245 28.2424L21.5214 20.1394V22.7576ZM26.3033 38.0849H17.7578L17.7881 32.7939H26.273C26.2911 32.7939 26.3033 32.8061 26.3033 32.8242V38.0849ZM33.7517 33.6121C33.7517 34.1758 33.2911 34.6303 32.7336 34.6303H27.3214V32.8242C27.3214 32.2424 26.8487 31.7758 26.273 31.7758H25.4851C25.4487 31.3273 25.5457 30.8909 25.7396 30.503H33.7517V33.6121ZM36.7942 29.4909H26.7275C26.8911 29.4 27.0669 29.3212 27.2608 29.2727C27.582 29.1879 27.8426 28.9636 27.976 28.6606C28.1033 28.3636 28.0851 28.0303 27.9275 27.7455L22.7154 18.3576C22.582 18.1091 22.3214 17.9515 22.0366 17.9515C21.7457 17.9576 21.4851 18.103 21.3457 18.3515L16.1275 27.7455C15.9699 28.0303 15.9578 28.3697 16.0851 28.6667C16.2123 28.9697 16.473 29.1879 16.7942 29.2727C16.9881 29.3212 17.1578 29.4 17.3275 29.4909H7.26689C6.70326 29.4909 6.24871 29.0303 6.24871 28.4727V8.41818H9.70326C10.2123 8.41818 10.6305 8 10.6305 7.49091V5.77576H15.5093L17.782 8.13334C17.9578 8.31516 18.2002 8.41818 18.4487 8.41818H37.8123V28.4667C37.8123 29.0303 37.3578 29.4909 36.7942 29.4909Z" fill="#384BFF"/>
<path d="M31.7333 6.0909C32.5273 6.0909 33.1697 5.44847 33.1697 4.65453C33.1697 3.86059 32.5273 3.21817 31.7333 3.21817C30.9394 3.21817 30.297 3.86059 30.297 4.65453C30.297 5.44847 30.9394 6.0909 31.7333 6.0909ZM31.7333 4.24241C31.9636 4.24241 32.1515 4.43029 32.1515 4.66059C32.1515 4.8909 31.9636 5.07878 31.7333 5.07878C31.497 5.07878 31.3152 4.89696 31.3152 4.66059C31.3152 4.42423 31.503 4.24241 31.7333 4.24241ZM28.2606 6.0909C29.0546 6.0909 29.697 5.44847 29.697 4.65453C29.697 3.86059 29.0546 3.21817 28.2606 3.21817C27.4667 3.21817 26.8242 3.86059 26.8242 4.65453C26.8242 5.44847 27.4667 6.0909 28.2606 6.0909ZM28.2606 4.24241C28.4909 4.24241 28.6788 4.43029 28.6788 4.66059C28.6788 4.8909 28.4909 5.07878 28.2606 5.07878C28.0242 5.07878 27.8424 4.89696 27.8424 4.66059C27.8424 4.42423 28.0303 4.24241 28.2606 4.24241ZM31.8424 12.8545C31.5455 13.1515 31.3576 13.5273 31.2849 13.9273H24.1636V13.1273C24.1636 12.5818 23.7212 12.1394 23.1758 12.1394H20.8788C20.3333 12.1394 19.8909 12.5818 19.8909 13.1273V13.9273H12.7758C12.7091 13.5333 12.5212 13.1576 12.2182 12.8485C11.4485 12.0909 10.1333 12.103 9.38182 12.8545C9.00001 13.2364 8.79395 13.7394 8.79395 14.2727C8.79395 14.8121 9.00607 15.3212 9.38182 15.6909C9.76364 16.0848 10.2727 16.2848 10.8 16.2848C11.1333 16.2848 11.4727 16.206 11.7939 16.0424C12.144 15.8631 12.4252 15.5734 12.5939 15.2182C12.6364 15.1273 12.6727 15.0364 12.703 14.9454H17.6424C14.9576 16.2545 12.9333 18.7151 12.2303 21.6848H11.4424C10.897 21.6848 10.4546 22.1273 10.4546 22.6727V24.9697C10.4546 25.5151 10.897 25.9576 11.4424 25.9576H13.7394C14.2849 25.9576 14.7273 25.5151 14.7273 24.9697V22.6727C14.7273 22.1273 14.2849 21.6848 13.7394 21.6848H13.2788C14.1273 18.4848 16.6909 15.9757 19.9091 15.2V15.4182C19.9091 15.9636 20.3515 16.406 20.897 16.406H23.1939C23.7394 16.406 24.1818 15.9636 24.1818 15.4182V15.2C27.3939 15.9757 29.9576 18.4848 30.8121 21.6848H30.3939C29.8485 21.6848 29.4061 22.1273 29.4061 22.6727V24.9697C29.4061 25.5151 29.8485 25.9576 30.3939 25.9576H32.6909C33.2364 25.9576 33.6788 25.5151 33.6788 24.9697V22.6727C33.6788 22.1273 33.2364 21.6848 32.6909 21.6848H31.8606C31.1515 18.7151 29.1273 16.2485 26.4485 14.9454H31.4C31.497 15.2242 31.6546 15.4788 31.8667 15.6909C32.2485 16.0848 32.7576 16.2848 33.2849 16.2848C33.6182 16.2848 33.9576 16.206 34.2788 16.0424C34.6289 15.8631 34.91 15.5734 35.0788 15.2182C35.4727 14.3879 35.3333 13.4848 34.7091 12.8485C33.9152 12.097 32.6 12.103 31.8424 12.8545ZM11.6667 14.7879C11.5939 14.9333 11.4727 15.0606 11.3273 15.1333C10.8 15.4 10.3455 15.2303 10.097 14.9697C9.9091 14.7879 9.80607 14.5394 9.80607 14.2727C9.80607 14.0121 9.9091 13.7636 10.097 13.5697C10.2849 13.3818 10.5333 13.2788 10.8 13.2788C11.0606 13.2788 11.3152 13.3818 11.497 13.5636C11.8121 13.8909 11.8727 14.3454 11.6667 14.7879ZM13.7273 24.9394L11.4606 24.9697L11.4303 22.703H13.697L13.7273 24.9394ZM32.6727 24.9394L30.4061 24.9697L30.3758 22.703H32.6424L32.6727 24.9394ZM20.9152 15.4242L20.903 14.6606C20.9152 14.606 20.9152 14.5515 20.9091 14.4909V14.4848C20.9091 14.4667 20.9212 14.4545 20.9212 14.4364C20.9212 14.406 20.9091 14.3818 20.903 14.3576L20.8849 13.1636H23.1515L23.1697 14.3576C23.1636 14.3879 23.1515 14.4121 23.1515 14.4424C23.1515 14.4606 23.1576 14.4727 23.1636 14.4909V14.497C23.1515 14.5757 23.1576 14.6485 23.1758 14.7151L23.1879 15.4L20.9152 15.4242ZM34.1333 14.7879C34.0606 14.9333 33.9394 15.0606 33.7939 15.1333C33.2667 15.4 32.8121 15.2303 32.5636 14.9697C32.3758 14.7879 32.2727 14.5394 32.2727 14.2727C32.2727 14.0121 32.3758 13.7636 32.5636 13.5697C32.7515 13.3818 33 13.2788 33.2667 13.2788C33.5273 13.2788 33.7818 13.3818 33.9636 13.5636C34.2788 13.8909 34.3394 14.3454 34.1333 14.7879Z" fill="#384BFF"/>
</svg>
