<svg width="20" height="20" viewBox="0 0 20 20" fill="none" xmlns="http://www.w3.org/2000/svg">
<path d="M4.16615 9.9998C4.16519 9.83428 4.21354 9.67222 4.30505 9.53429C4.39655 9.39636 4.52705 9.2888 4.67992 9.22533C4.83279 9.16185 5.0011 9.14534 5.16339 9.1779C5.32568 9.21046 5.4746 9.29061 5.59115 9.40813L9.99949 13.8248L14.4078 9.40813C14.5672 9.27161 14.7723 9.20027 14.982 9.20838C15.1918 9.21648 15.3907 9.30342 15.5391 9.45183C15.6875 9.60024 15.7745 9.79919 15.7826 10.0089C15.7907 10.2187 15.7193 10.4237 15.5828 10.5831L10.5828 15.5831C10.4267 15.7383 10.2155 15.8255 9.99532 15.8255C9.77517 15.8255 9.56396 15.7383 9.40782 15.5831L4.40782 10.5831C4.25387 10.4279 4.16708 10.2184 4.16615 9.9998Z" fill="#384BFF"/>
<path d="M4.16586 4.9998C4.1649 4.83428 4.21325 4.67222 4.30475 4.53429C4.39625 4.39636 4.52676 4.2888 4.67963 4.22533C4.83249 4.16185 5.0008 4.14534 5.16309 4.1779C5.32538 4.21046 5.4743 4.29061 5.59086 4.40813L9.99919 8.8248L14.4075 4.40813C14.5644 4.25121 14.7773 4.16306 14.9992 4.16306C15.2211 4.16306 15.4339 4.25121 15.5909 4.40813C15.7478 4.56505 15.8359 4.77788 15.8359 4.9998C15.8359 5.22172 15.7478 5.43455 15.5909 5.59147L10.5909 10.5915C10.4347 10.7467 10.2235 10.8338 10.0034 10.8338C9.78321 10.8338 9.572 10.7467 9.41586 10.5915L4.41586 5.59147C4.33712 5.51429 4.27448 5.42225 4.23157 5.32069C4.18865 5.21913 4.16632 5.11006 4.16586 4.9998Z" fill="#384BFF"/>
</svg>
