<svg width="38" height="38" viewBox="0 0 38 38" fill="none" xmlns="http://www.w3.org/2000/svg">
<path d="M34.2841 20.0543H30.9511C29.8356 20.0543 28.7336 20.5032 27.999 21.3331C27.2916 22.1357 26.2305 22.6119 25.0606 22.5302C23.3873 22.4078 21.9997 21.0746 21.8228 19.4013C21.5916 17.2655 23.2512 15.4562 25.3463 15.4562C26.3802 15.4562 27.3052 15.8915 27.9582 16.5989C28.72 17.4287 29.7539 17.9321 30.8831 17.9321H34.2977C36.2566 17.9321 37.9163 16.4084 37.9979 14.4495C38.066 12.3953 36.4335 10.7084 34.3929 10.7084H30.747C28.8425 10.7084 27.2916 9.15753 27.2916 7.25297V3.70233C27.2916 1.74336 25.768 0.0836749 23.809 0.00205105C21.7548 -0.0659688 20.0679 1.56651 20.0679 3.6071V7.03531C20.0679 8.15083 20.5032 9.25275 21.3467 9.98737C22.1493 10.6948 22.6255 11.7559 22.5438 12.9258C22.4214 14.5991 21.0882 15.9867 19.4149 16.1636C17.2791 16.3948 15.4698 14.7352 15.4698 12.6401C15.4698 11.6062 15.9051 10.6812 16.6125 10.0282C17.4423 9.26636 17.9457 8.23245 17.9457 7.10332V3.6071C17.9321 1.62092 16.3268 0.00205105 14.327 0.00205105C12.3273 0.00205105 10.722 1.62092 10.722 3.6071V7.25297C10.722 9.15753 9.17113 10.7084 7.26657 10.7084H3.70233C1.74336 10.7084 0.0836749 12.232 0.00205105 14.191C-0.0659688 16.2452 1.56651 17.9321 3.6071 17.9321H7.03531C8.15083 17.9321 9.25275 17.4968 9.98737 16.6533C10.6948 15.8507 11.7559 15.3745 12.9258 15.4562C14.5991 15.5786 15.9867 16.9118 16.1636 18.5851C16.3948 20.7209 14.7352 22.5302 12.6401 22.5302C11.6062 22.5302 10.6812 22.0949 10.0282 21.3875C9.26636 20.5577 8.23245 20.0543 7.10332 20.0543H3.70233C1.74336 20.0543 0.0836749 21.578 0.00205105 23.5369C-0.0659688 25.5911 1.56651 27.278 3.6071 27.278H7.25297C9.15753 27.278 10.7084 28.8289 10.7084 30.7334V34.3793C10.7084 36.3791 12.3273 37.9843 14.3134 37.9843C16.3132 37.9843 17.9185 36.3655 17.9185 34.3793V30.9511C17.9185 29.8356 17.4696 28.7336 16.6397 27.999C15.8371 27.2916 15.3609 26.2305 15.4426 25.0606C15.565 23.3873 16.8982 21.9997 18.5715 21.8228C20.7073 21.5916 22.5166 23.2512 22.5166 25.3463C22.5166 26.3802 22.0813 27.3052 21.3739 27.9582C20.5441 28.72 20.0407 29.7539 20.0407 30.8831V34.2977C20.0407 36.2566 21.5643 37.9163 23.5233 37.9979C25.5775 38.066 27.2644 36.4335 27.2644 34.3929V30.747C27.2644 28.8425 28.8153 27.2916 30.7198 27.2916H34.3657C36.4063 27.2916 38.0524 25.6047 37.9707 23.5505C37.9163 21.578 36.243 20.0543 34.2841 20.0543Z" fill="#384BFF"/>
</svg>
