<svg width="208" height="40" viewBox="0 0 208 40" fill="none" xmlns="http://www.w3.org/2000/svg">
<g clip-path="url(#clip0_2509_297)">
<path d="M188.886 38.2792H184.05V2.81458H188.886V26.7177L190.892 24.3061L199.999 14.6361H206.064L196.318 24.9918L207.432 38.2792H201.179L192.968 28.3018L188.886 32.5103V38.2792Z" fill="white"/>
<path d="M178.55 35.4656C175.624 37.6566 172.408 38.752 168.9 38.752C166.399 38.752 164.157 38.2004 162.175 37.097C160.194 35.9936 158.628 34.4884 157.48 32.5811C156.332 30.6739 155.757 28.5225 155.757 26.1266C155.757 23.8411 156.285 21.7999 157.338 20.003C158.392 18.1904 159.831 16.7639 161.656 15.7236C163.481 14.6833 165.549 14.1632 167.862 14.1632C170.253 14.1632 172.353 14.7306 174.162 15.8655C175.987 17.0004 177.402 18.5845 178.409 20.6177C179.432 22.6353 179.943 24.9759 179.943 27.6397V28.3964H160.995C161.279 29.6257 161.813 30.7054 162.6 31.6354C163.386 32.5496 164.362 33.2668 165.526 33.787C166.69 34.2913 168.003 34.5435 169.466 34.5435C172.078 34.5435 174.476 33.6924 176.662 31.9901L178.55 35.4656ZM160.783 25.039H175.435C175.279 23.715 174.869 22.5644 174.208 21.5871C173.549 20.5942 172.691 19.8217 171.637 19.2701C170.599 18.7027 169.427 18.4189 168.122 18.4189C166.8 18.4189 165.612 18.7027 164.558 19.2701C163.505 19.8217 162.648 20.5942 161.987 21.5871C161.342 22.5802 160.941 23.7308 160.783 25.039Z" fill="white"/>
<path d="M153.704 37.6881C152.052 38.3974 150.455 38.7521 148.913 38.7521C147.372 38.7521 146.019 38.4211 144.855 37.7591C143.707 37.0971 142.802 36.1671 142.142 34.9692C141.497 33.7555 141.174 32.3605 141.174 30.7843V18.9628H137.046V14.6361H141.411V8.72534H146.012V14.6361H152.901V18.9628H146.012V29.8859C146.012 31.273 146.381 32.3763 147.12 33.1959C147.875 33.9998 148.843 34.4017 150.023 34.4017C151.013 34.4017 151.996 34.1022 152.972 33.5033L153.704 37.6881Z" fill="white"/>
<path d="M122.652 38.752C120.182 38.752 117.979 38.2239 116.045 37.1679C114.126 36.0961 112.615 34.6381 111.514 32.7939C110.413 30.934 109.863 28.8219 109.863 26.4576C109.863 24.0933 110.413 21.989 111.514 20.1449C112.615 18.285 114.126 16.827 116.045 15.7709C117.979 14.6991 120.182 14.1632 122.652 14.1632C125.09 14.1632 127.26 14.6991 129.164 15.7709C131.083 16.827 132.585 18.285 133.67 20.1449C134.771 21.989 135.322 24.0933 135.322 26.4576C135.322 28.8219 134.771 30.934 133.67 32.7939C132.585 34.6381 131.083 36.0961 129.164 37.1679C127.26 38.2239 125.09 38.752 122.652 38.752ZM122.604 31.8009C123.516 31.8009 124.335 31.5724 125.058 31.1153C125.781 30.6582 126.348 30.0198 126.757 29.2002C127.181 28.3806 127.394 27.4506 127.394 26.4103C127.394 25.4015 127.181 24.4952 126.757 23.6913C126.348 22.8875 125.781 22.257 125.058 21.7999C124.335 21.3428 123.516 21.1143 122.604 21.1143C121.676 21.1143 120.85 21.3428 120.126 21.7999C119.403 22.257 118.829 22.8875 118.404 23.6913C117.995 24.4952 117.791 25.4015 117.791 26.4103C117.791 27.4506 117.995 28.3806 118.404 29.2002C118.829 30.0198 119.403 30.6582 120.126 31.1153C120.85 31.5724 121.676 31.8009 122.604 31.8009Z" fill="white"/>
<path d="M99.8103 38.2791H92.071V21.5635H87.9419V14.6361H92.071V11.4206C92.071 9.62373 92.5036 8.02388 93.3688 6.62106C94.234 5.21824 95.4137 4.11489 96.9081 3.31102C98.4182 2.50716 100.133 2.10522 102.052 2.10522C103.263 2.10522 104.506 2.28649 105.78 2.64901C107.054 2.99578 108.305 3.54746 109.532 4.30403L106.605 10.3094C106.102 9.8838 105.567 9.56856 105.001 9.36366C104.451 9.14298 103.9 9.03265 103.35 9.03265C102.374 9.03265 101.541 9.37153 100.849 10.0493C100.156 10.7271 99.8103 11.6886 99.8103 12.9338V14.6361H106.771V21.5635H99.8103V38.2791Z" fill="white"/>
<path d="M87.0205 38.2791H79.2812V26.5285C79.2812 24.8105 78.9115 23.4786 78.1723 22.5328C77.433 21.5871 76.4105 21.1143 75.1048 21.1143C73.7521 21.1143 72.6825 21.6029 71.896 22.5802C71.1251 23.5574 70.7398 24.905 70.7398 26.6231V38.2791H63.0005V14.636H69.1824L69.442 18.4189C70.2757 17.0318 71.3689 15.9758 72.7218 15.2508C74.0903 14.5257 75.6948 14.1632 77.5352 14.1632C80.4925 14.1632 82.8127 15.0853 84.4958 16.9294C86.1789 18.7578 87.0205 21.2955 87.0205 24.5425V38.2791Z" fill="white"/>
<path d="M54.8119 9.57644C53.8366 9.57644 53.0107 9.23756 52.3344 8.55979C51.6738 7.86625 51.3434 7.03086 51.3434 6.05362C51.3434 5.09214 51.6738 4.27251 52.3344 3.59474C53.0107 2.9012 53.8366 2.55444 54.8119 2.55444C55.8029 2.55444 56.6366 2.9012 57.313 3.59474C57.9894 4.27251 58.3276 5.09214 58.3276 6.05362C58.3276 7.03086 57.9894 7.86625 57.313 8.55979C56.6366 9.23756 55.8029 9.57644 54.8119 9.57644ZM58.7051 38.2791H50.9658V14.6361H58.7051V38.2791Z" fill="white"/>
<path d="M36.0156 21.1098H32.5143C31.3424 21.1098 30.1848 21.5823 29.4131 22.4559C28.67 23.3007 27.5553 23.802 26.3263 23.716C24.5685 23.5872 23.1108 22.1838 22.925 20.4224C22.6821 18.1742 24.4255 16.2697 26.6264 16.2697C27.7125 16.2697 28.6842 16.7279 29.3702 17.4725C30.1705 18.346 31.2566 18.8759 32.4429 18.8759H36.0299C38.0877 18.8759 39.8313 17.272 39.917 15.21C39.9885 13.0477 38.2736 11.272 36.1299 11.272H32.2999C30.2992 11.272 28.67 9.6395 28.67 7.63471V3.89719C28.67 1.83512 27.0694 0.0880788 25.0115 0.002159C22.8535 -0.0694408 21.0814 1.64896 21.0814 3.79695V7.40559C21.0814 8.57982 21.5387 9.73974 22.4248 10.513C23.268 11.2577 23.7682 12.3746 23.6824 13.6061C23.5538 15.3675 22.1533 16.8281 20.3955 17.0143C18.1518 17.2577 16.2511 15.5107 16.2511 13.3054C16.2511 12.2171 16.7084 11.2434 17.4515 10.556C18.3232 9.75406 18.852 8.66574 18.852 7.47718V3.79695C18.8378 1.70623 17.1514 0.002159 15.0506 0.002159C12.9499 0.002159 11.2635 1.70623 11.2635 3.79695V7.63471C11.2635 9.6395 9.63432 11.272 7.63357 11.272H3.88932C1.83141 11.272 0.0879009 12.8758 0.00215464 14.9379C-0.0693006 17.1002 1.64563 18.8759 3.78928 18.8759H7.39063C8.56249 18.8759 9.72006 18.4177 10.4918 17.5298C11.2349 16.6849 12.3496 16.1837 13.5786 16.2697C15.3364 16.3985 16.7941 17.8019 16.9799 19.5633C17.2228 21.8115 15.4794 23.716 13.2785 23.716C12.1924 23.716 11.2207 23.2578 10.5347 22.5132C9.73436 21.6397 8.64823 21.1098 7.46207 21.1098H3.88932C1.83141 21.1098 0.0879009 22.7137 0.00215464 24.7757C-0.0693006 26.938 1.64563 28.7137 3.78928 28.7137H7.61928C9.62003 28.7137 11.2492 30.3462 11.2492 32.3509V36.1887C11.2492 38.2938 12.9499 39.9835 15.0363 39.9835C17.1371 39.9835 18.8235 38.2795 18.8235 36.1887V32.5801C18.8235 31.4059 18.3519 30.2459 17.4801 29.4726C16.637 28.728 16.1367 27.6111 16.2225 26.3796C16.3511 24.6182 17.7516 23.1576 19.5095 22.9714C21.7531 22.728 23.6538 24.4749 23.6538 26.6803C23.6538 27.7686 23.1965 28.7423 22.4534 29.4297C21.5817 30.2316 21.0529 31.3199 21.0529 32.5085V36.1028C21.0529 38.1648 22.6534 39.9119 24.7113 39.9978C26.8693 40.0695 28.6414 38.351 28.6414 36.203V32.3653C28.6414 30.3605 30.2706 28.728 32.2713 28.728H36.1013C38.245 28.728 39.9742 26.9523 39.8884 24.79C39.8313 22.7137 38.0735 21.1098 36.0156 21.1098Z" fill="white"/>
</g>
<defs>
<clipPath id="clip0_2509_297">
<rect width="208" height="40" fill="white"/>
</clipPath>
</defs>
</svg>
