<svg width="198" height="38" viewBox="0 0 198 38" fill="none" xmlns="http://www.w3.org/2000/svg">
<g clip-path="url(#clip0_4407_171)">
<path d="M179.805 36.3652H175.201V2.67383H179.805V25.3818L181.714 23.0908L190.384 13.9043H196.157L186.88 23.7422L197.459 36.3652H191.507L183.691 26.8867L179.805 30.8848V36.3652Z" fill="white"/>
<path d="M169.966 33.6924C167.181 35.7738 164.119 36.8145 160.78 36.8145C158.399 36.8145 156.265 36.2904 154.378 35.2422C152.492 34.194 151.002 32.764 149.909 30.9521C148.816 29.1403 148.269 27.0964 148.269 24.8203C148.269 22.6491 148.771 20.71 149.774 19.0029C150.777 17.2809 152.147 15.9258 153.884 14.9375C155.621 13.9492 157.59 13.4551 159.792 13.4551C162.068 13.4551 164.067 13.9941 165.789 15.0723C167.526 16.1504 168.873 17.6553 169.832 19.5869C170.805 21.5036 171.292 23.7272 171.292 26.2578V26.9766H153.255C153.525 28.1445 154.034 29.1702 154.783 30.0537C155.531 30.9222 156.46 31.6035 157.568 32.0977C158.676 32.5768 159.926 32.8164 161.319 32.8164C163.805 32.8164 166.088 32.0078 168.169 30.3906L169.966 33.6924ZM153.053 23.7871H167.001C166.852 22.5293 166.462 21.4362 165.833 20.5078C165.205 19.5645 164.389 18.8307 163.385 18.3066C162.397 17.7676 161.281 17.498 160.039 17.498C158.781 17.498 157.65 17.7676 156.647 18.3066C155.644 18.8307 154.828 19.5645 154.199 20.5078C153.585 21.4512 153.203 22.5443 153.053 23.7871Z" fill="white"/>
<path d="M146.314 35.8037C144.742 36.4775 143.222 36.8145 141.754 36.8145C140.287 36.8145 138.999 36.5 137.891 35.8711C136.798 35.2422 135.937 34.3587 135.308 33.2207C134.694 32.0677 134.387 30.7425 134.387 29.2451V18.0146H130.457V13.9043H134.612V8.28906H138.992V13.9043H145.55V18.0146H138.992V28.3916C138.992 29.7093 139.344 30.7575 140.047 31.5361C140.766 32.2998 141.687 32.6816 142.81 32.6816C143.753 32.6816 144.689 32.3971 145.618 31.8281L146.314 35.8037Z" fill="white"/>
<path d="M116.755 36.8145C114.404 36.8145 112.307 36.3128 110.466 35.3096C108.639 34.2913 107.201 32.9062 106.153 31.1543C105.105 29.3874 104.581 27.3809 104.581 25.1348C104.581 22.8887 105.105 20.8896 106.153 19.1377C107.201 17.3708 108.639 15.9857 110.466 14.9824C112.307 13.9642 114.404 13.4551 116.755 13.4551C119.076 13.4551 121.142 13.9642 122.954 14.9824C124.781 15.9857 126.211 17.3708 127.244 19.1377C128.292 20.8896 128.816 22.8887 128.816 25.1348C128.816 27.3809 128.292 29.3874 127.244 31.1543C126.211 32.9062 124.781 34.2913 122.954 35.3096C121.142 36.3128 119.076 36.8145 116.755 36.8145ZM116.71 30.2109C117.578 30.2109 118.357 29.9938 119.046 29.5596C119.734 29.1253 120.274 28.5189 120.663 27.7402C121.067 26.9616 121.269 26.0781 121.269 25.0898C121.269 24.1315 121.067 23.2705 120.663 22.5068C120.274 21.7432 119.734 21.1442 119.046 20.71C118.357 20.2757 117.578 20.0586 116.71 20.0586C115.826 20.0586 115.04 20.2757 114.351 20.71C113.663 21.1442 113.116 21.7432 112.712 22.5068C112.322 23.2705 112.128 24.1315 112.128 25.0898C112.128 26.0781 112.322 26.9616 112.712 27.7402C113.116 28.5189 113.663 29.1253 114.351 29.5596C115.04 29.9938 115.826 30.2109 116.71 30.2109Z" fill="white"/>
<path d="M95.0117 36.3652H87.6445V20.4854H83.7139V13.9043H87.6445V10.8496C87.6445 9.14258 88.0563 7.62272 88.8799 6.29004C89.7035 4.95736 90.8265 3.90918 92.249 3.14551C93.6865 2.38184 95.3187 2 97.1455 2C98.2985 2 99.4814 2.1722 100.694 2.5166C101.907 2.84603 103.098 3.37012 104.266 4.08887L101.48 9.79395C101.001 9.38965 100.492 9.09017 99.9531 8.89551C99.429 8.68587 98.9049 8.58105 98.3809 8.58105C97.4525 8.58105 96.6589 8.90299 96 9.54688C95.3411 10.1908 95.0117 11.1042 95.0117 12.2871V13.9043H101.638V20.4854H95.0117V36.3652Z" fill="white"/>
<path d="M82.8369 36.3652H75.4697V25.2021C75.4697 23.57 75.1178 22.3047 74.4141 21.4062C73.7103 20.5078 72.737 20.0586 71.4941 20.0586C70.2064 20.0586 69.1882 20.5228 68.4395 21.4512C67.7057 22.3796 67.3389 23.6598 67.3389 25.292V36.3652H59.9717V13.9043H65.8564L66.1035 17.498C66.8971 16.1803 67.9378 15.1771 69.2256 14.4883C70.5283 13.7995 72.0557 13.4551 73.8076 13.4551C76.6227 13.4551 78.8314 14.3311 80.4336 16.083C82.0358 17.82 82.8369 20.2308 82.8369 23.3154V36.3652Z" fill="white"/>
<path d="M52.1768 9.09766C51.2484 9.09766 50.4622 8.77572 49.8184 8.13184C49.1895 7.47298 48.875 6.67936 48.875 5.75098C48.875 4.83757 49.1895 4.05892 49.8184 3.41504C50.4622 2.75618 51.2484 2.42676 52.1768 2.42676C53.1201 2.42676 53.9137 2.75618 54.5576 3.41504C55.2015 4.05892 55.5234 4.83757 55.5234 5.75098C55.5234 6.67936 55.2015 7.47298 54.5576 8.13184C53.9137 8.77572 53.1201 9.09766 52.1768 9.09766ZM55.8828 36.3652H48.5156V13.9043H55.8828V36.3652Z" fill="white"/>
<path d="M34.2841 20.0543H30.9511C29.8356 20.0543 28.7336 20.5032 27.999 21.3331C27.2916 22.1357 26.2305 22.6119 25.0606 22.5302C23.3873 22.4078 21.9997 21.0746 21.8228 19.4013C21.5916 17.2655 23.2512 15.4562 25.3463 15.4562C26.3802 15.4562 27.3052 15.8915 27.9582 16.5989C28.72 17.4287 29.7539 17.9321 30.8831 17.9321H34.2977C36.2566 17.9321 37.9163 16.4084 37.9979 14.4495C38.066 12.3953 36.4335 10.7084 34.3929 10.7084H30.747C28.8425 10.7084 27.2916 9.15753 27.2916 7.25297V3.70233C27.2916 1.74336 25.768 0.0836749 23.809 0.00205105C21.7548 -0.0659688 20.0679 1.56651 20.0679 3.6071V7.03531C20.0679 8.15083 20.5032 9.25275 21.3467 9.98737C22.1493 10.6948 22.6255 11.7559 22.5438 12.9258C22.4214 14.5991 21.0882 15.9867 19.4149 16.1636C17.2791 16.3948 15.4698 14.7352 15.4698 12.6401C15.4698 11.6062 15.9051 10.6812 16.6125 10.0282C17.4423 9.26636 17.9457 8.23245 17.9457 7.10332V3.6071C17.9321 1.62092 16.3268 0.00205105 14.327 0.00205105C12.3273 0.00205105 10.722 1.62092 10.722 3.6071V7.25297C10.722 9.15753 9.17113 10.7084 7.26657 10.7084H3.70233C1.74336 10.7084 0.0836749 12.232 0.00205105 14.191C-0.0659688 16.2452 1.56651 17.9321 3.6071 17.9321H7.03531C8.15083 17.9321 9.25275 17.4968 9.98737 16.6533C10.6948 15.8507 11.7559 15.3745 12.9258 15.4562C14.5991 15.5786 15.9867 16.9118 16.1636 18.5851C16.3948 20.7209 14.7352 22.5302 12.6401 22.5302C11.6062 22.5302 10.6812 22.0949 10.0282 21.3875C9.26636 20.5577 8.23245 20.0543 7.10332 20.0543H3.70233C1.74336 20.0543 0.0836749 21.578 0.00205105 23.5369C-0.0659688 25.5911 1.56651 27.278 3.6071 27.278H7.25297C9.15753 27.278 10.7084 28.8289 10.7084 30.7334V34.3793C10.7084 36.3791 12.3273 37.9843 14.3134 37.9843C16.3132 37.9843 17.9185 36.3655 17.9185 34.3793V30.9511C17.9185 29.8356 17.4696 28.7336 16.6397 27.999C15.8371 27.2916 15.3609 26.2305 15.4426 25.0606C15.565 23.3873 16.8982 21.9997 18.5715 21.8228C20.7073 21.5916 22.5166 23.2512 22.5166 25.3463C22.5166 26.3802 22.0813 27.3052 21.3739 27.9582C20.5441 28.72 20.0407 29.7539 20.0407 30.8831V34.2977C20.0407 36.2566 21.5643 37.9163 23.5233 37.9979C25.5775 38.066 27.2644 36.4335 27.2644 34.3929V30.747C27.2644 28.8425 28.8153 27.2916 30.7198 27.2916H34.3657C36.4063 27.2916 38.0524 25.6047 37.9707 23.5505C37.9163 21.578 36.243 20.0543 34.2841 20.0543Z" fill="#384BFF"/>
</g>
<defs>
<clipPath id="clip0_4407_171">
<rect width="198" height="38" fill="white"/>
</clipPath>
</defs>
</svg>
